<svg width="61" height="961" viewBox="0 0 61 961" fill="none" xmlns="http://www.w3.org/2000/svg">
<line y1="960.5" x2="59.9921" y2="960.5" stroke="white"/>
<line y1="675.5" x2="59.9921" y2="675.5" stroke="white"/>
<line y1="450.5" x2="59.9921" y2="450.5" stroke="white"/>
<line x1="0.689453" y1="225.5" x2="60.6815" y2="225.5" stroke="white"/>
<line y1="0.5" x2="59.9921" y2="0.5" stroke="white"/>
<line x1="20.687" y1="945.5" x2="59.9922" y2="945.5" stroke="white"/>
<line x1="20.687" y1="855.5" x2="59.9922" y2="855.5" stroke="white"/>
<line x1="20.687" y1="630.5" x2="59.9922" y2="630.5" stroke="white"/>
<line x1="20.687" y1="420.5" x2="59.9922" y2="420.5" stroke="white"/>
<line x1="21.3765" y1="195.5" x2="60.6816" y2="195.5" stroke="white"/>
<line x1="20.687" y1="765.5" x2="59.9922" y2="765.5" stroke="white"/>
<line x1="20.687" y1="540.5" x2="59.9922" y2="540.5" stroke="white"/>
<line x1="20.687" y1="330.5" x2="59.9922" y2="330.5" stroke="white"/>
<line x1="21.3765" y1="105.5" x2="60.6816" y2="105.5" stroke="white"/>
<line x1="20.687" y1="915.5" x2="59.9922" y2="915.5" stroke="white"/>
<line x1="20.687" y1="825.5" x2="59.9922" y2="825.5" stroke="white"/>
<line x1="20.687" y1="600.5" x2="59.9922" y2="600.5" stroke="white"/>
<line x1="20.687" y1="390.5" x2="59.9922" y2="390.5" stroke="white"/>
<line x1="21.3765" y1="165.5" x2="60.6816" y2="165.5" stroke="white"/>
<line x1="20.687" y1="735.5" x2="59.9922" y2="735.5" stroke="white"/>
<line x1="20.687" y1="510.5" x2="59.9922" y2="510.5" stroke="white"/>
<line x1="20.687" y1="300.5" x2="59.9922" y2="300.5" stroke="white"/>
<line x1="21.3765" y1="75.5" x2="60.6816" y2="75.5" stroke="white"/>
<line x1="20.687" y1="930.5" x2="59.9922" y2="930.5" stroke="white"/>
<line x1="20.687" y1="840.5" x2="59.9922" y2="840.5" stroke="white"/>
<line x1="20.687" y1="615.5" x2="59.9922" y2="615.5" stroke="white"/>
<line x1="20.687" y1="405.5" x2="59.9922" y2="405.5" stroke="white"/>
<line x1="21.3765" y1="180.5" x2="60.6816" y2="180.5" stroke="white"/>
<line x1="20.687" y1="750.5" x2="59.9922" y2="750.5" stroke="white"/>
<line x1="20.687" y1="525.5" x2="59.9922" y2="525.5" stroke="white"/>
<line x1="20.687" y1="315.5" x2="59.9922" y2="315.5" stroke="white"/>
<line x1="21.3765" y1="90.5" x2="60.6816" y2="90.5" stroke="white"/>
<line x1="20.687" y1="885.5" x2="59.9922" y2="885.5" stroke="white"/>
<line x1="20.687" y1="660.5" x2="59.9922" y2="660.5" stroke="white"/>
<line x1="20.687" y1="795.5" x2="59.9922" y2="795.5" stroke="white"/>
<line x1="20.687" y1="570.5" x2="59.9922" y2="570.5" stroke="white"/>
<line x1="20.687" y1="360.5" x2="59.9922" y2="360.5" stroke="white"/>
<line x1="21.3765" y1="135.5" x2="60.6816" y2="135.5" stroke="white"/>
<line x1="20.687" y1="705.5" x2="59.9922" y2="705.5" stroke="white"/>
<line x1="20.687" y1="480.5" x2="59.9922" y2="480.5" stroke="white"/>
<line x1="20.687" y1="270.5" x2="59.9922" y2="270.5" stroke="white"/>
<line x1="21.3765" y1="45.5" x2="60.6816" y2="45.5" stroke="white"/>
<line x1="20.687" y1="900.5" x2="59.9922" y2="900.5" stroke="white"/>
<line x1="20.687" y1="810.5" x2="59.9922" y2="810.5" stroke="white"/>
<line x1="20.687" y1="585.5" x2="59.9922" y2="585.5" stroke="white"/>
<line x1="20.687" y1="375.5" x2="59.9922" y2="375.5" stroke="white"/>
<line x1="21.3765" y1="150.5" x2="60.6816" y2="150.5" stroke="white"/>
<line x1="20.687" y1="720.5" x2="59.9922" y2="720.5" stroke="white"/>
<line x1="20.687" y1="495.5" x2="59.9922" y2="495.5" stroke="white"/>
<line x1="20.687" y1="285.5" x2="59.9922" y2="285.5" stroke="white"/>
<line x1="21.3765" y1="60.5" x2="60.6816" y2="60.5" stroke="white"/>
<line x1="20.687" y1="870.5" x2="59.9922" y2="870.5" stroke="white"/>
<line x1="20.687" y1="645.5" x2="59.9922" y2="645.5" stroke="white"/>
<line x1="20.687" y1="435.5" x2="59.9922" y2="435.5" stroke="white"/>
<line x1="21.3765" y1="210.5" x2="60.6816" y2="210.5" stroke="white"/>
<line x1="20.687" y1="780.5" x2="59.9922" y2="780.5" stroke="white"/>
<line x1="20.687" y1="555.5" x2="59.9922" y2="555.5" stroke="white"/>
<line x1="20.687" y1="345.5" x2="59.9922" y2="345.5" stroke="white"/>
<line x1="21.3765" y1="120.5" x2="60.6816" y2="120.5" stroke="white"/>
<line x1="20.687" y1="690.5" x2="59.9922" y2="690.5" stroke="white"/>
<line x1="20.687" y1="465.5" x2="59.9922" y2="465.5" stroke="white"/>
<line x1="20.687" y1="255.5" x2="59.9922" y2="255.5" stroke="white"/>
<line x1="21.3765" y1="30.5" x2="60.6816" y2="30.5" stroke="white"/>
<line x1="20.687" y1="240.5" x2="59.9922" y2="240.5" stroke="white"/>
<line x1="21.3765" y1="15.5" x2="60.6816" y2="15.5" stroke="white"/>
</svg>
