<svg width="48" height="920" viewBox="0 0 48 920" fill="none" xmlns="http://www.w3.org/2000/svg">
<path d="M11.224 166.816H16C16 166.656 16 166.472 16 166.264C16 166.04 15.992 165.824 15.976 165.616C15.976 165.392 15.968 165.184 15.952 164.992C15.952 164.784 15.952 164.616 15.952 164.488L19.24 165.016L18.448 165.736V166.816H19.96L21.112 165.184L23.368 166.696C23.432 166.728 23.472 166.784 23.488 166.864C23.504 166.928 23.512 166.984 23.512 167.032C23.512 167.24 23.272 167.344 22.792 167.344H18.448V169.024H19.552L20.224 167.8L22.816 169.12L22.168 169.936V170.248C22.168 170.568 22.168 170.872 22.168 171.16C22.184 171.448 22.2 171.792 22.216 172.192C22.216 172.496 22.064 172.672 21.76 172.72C21.488 172.768 21.176 172.808 20.824 172.84C20.488 172.872 20.168 172.896 19.864 172.912V172.384H18.448V173.296C19.28 173.312 19.952 173.36 20.464 173.44C20.992 173.504 21.4 173.608 21.688 173.752C21.976 173.88 22.168 174.04 22.264 174.232C22.376 174.408 22.432 174.616 22.432 174.856C22.432 175.192 22.312 175.488 22.072 175.744C21.832 175.984 21.568 176.104 21.28 176.104C21.12 176.104 20.984 176.08 20.872 176.032C20.776 175.968 20.664 175.848 20.536 175.672C20.168 175.16 19.832 174.744 19.528 174.424C19.24 174.104 18.88 173.808 18.448 173.536V176.224C18.448 176.48 18.4 176.672 18.304 176.8C18.224 176.912 18.072 176.984 17.848 177.016C17.56 177.064 17.232 177.112 16.864 177.16C16.496 177.192 16.176 177.208 15.904 177.208C15.936 176.792 15.952 176.36 15.952 175.912C15.968 175.464 15.976 175.024 15.976 174.592C15.176 175.184 14.36 175.704 13.528 176.152C12.696 176.584 11.744 177.016 10.672 177.448L10.576 177.352C11.136 176.856 11.632 176.4 12.064 175.984C12.512 175.568 12.92 175.168 13.288 174.784C13.672 174.4 14.024 174.016 14.344 173.632C14.664 173.232 14.984 172.816 15.304 172.384H14.392C14.376 172.752 14.232 172.96 13.96 173.008C13.592 173.088 13.256 173.152 12.952 173.2C12.664 173.232 12.352 173.248 12.016 173.248C12.048 172.768 12.064 172.336 12.064 171.952C12.08 171.552 12.088 171.088 12.088 170.56V170.248C12.088 169.848 12.08 169.488 12.064 169.168C12.064 168.832 12.056 168.552 12.04 168.328L14.752 169.024H16V167.344H11.224V166.816ZM12.544 177.544H27.256L28.528 175.864L31.048 177.472C31.16 177.552 31.216 177.64 31.216 177.736C31.216 177.816 31.136 177.904 30.976 178C30.832 178.08 30.656 178.12 30.448 178.12H24.304V181.192H27.04L28.144 179.512L30.496 181.144C30.608 181.224 30.664 181.312 30.664 181.408C30.664 181.488 30.592 181.568 30.448 181.648C30.304 181.728 30.12 181.768 29.896 181.768H24.304V184.84H28.912L30.4 182.776L33.112 184.744C33.224 184.824 33.28 184.904 33.28 184.984C33.28 185.08 33.2 185.168 33.04 185.248C32.896 185.344 32.72 185.392 32.512 185.392H10.864V184.84H15.16V183.832C15.16 183.352 15.16 182.792 15.16 182.152C15.16 181.512 15.144 180.736 15.112 179.824L18.856 180.448L17.992 181.24V184.84H21.328V178.12H12.544V177.544ZM21.184 177.112C22.256 176.44 23.2 175.76 24.016 175.072C24.832 174.384 25.544 173.648 26.152 172.864C25.672 171.984 25.304 170.92 25.048 169.672C24.712 170.152 24.344 170.616 23.944 171.064C23.56 171.512 23.128 171.984 22.648 172.48L22.528 172.408C23.168 170.872 23.64 169.472 23.944 168.208C24.248 166.944 24.456 165.712 24.568 164.512L28 165.304L27.088 165.928C26.928 166.312 26.768 166.672 26.608 167.008C26.448 167.344 26.28 167.664 26.104 167.968H29.536L30.832 166.144L33.256 167.848C33.368 167.928 33.424 168.032 33.424 168.16C33.424 168.256 33.344 168.344 33.184 168.424C33.04 168.504 32.864 168.544 32.656 168.544H31.192C30.888 169.408 30.56 170.2 30.208 170.92C29.856 171.624 29.448 172.272 28.984 172.864C29.544 173.12 30.168 173.344 30.856 173.536C31.56 173.728 32.376 173.896 33.304 174.04L33.256 174.184C32.984 174.328 32.736 174.48 32.512 174.64C32.288 174.8 32.08 174.984 31.888 175.192C31.712 175.384 31.544 175.608 31.384 175.864C31.224 176.104 31.072 176.392 30.928 176.728C30.144 176.376 29.464 176.024 28.888 175.672C28.312 175.304 27.808 174.912 27.376 174.496C26.624 175.104 25.752 175.632 24.76 176.08C23.768 176.512 22.6 176.896 21.256 177.232L21.184 177.112ZM25.24 169.408C25.816 170.272 26.416 170.992 27.04 171.568C27.312 171.104 27.552 170.624 27.76 170.128C27.984 169.632 28.184 169.104 28.36 168.544H25.768C25.688 168.704 25.6 168.856 25.504 169C25.424 169.144 25.336 169.28 25.24 169.408ZM16 171.592V169.552H14.392V171.856H16V171.592ZM18.448 169.552V171.856H19.864V169.552H18.448ZM26.104 200.528C27.192 200.848 28.096 201.168 28.816 201.488C29.552 201.792 30.136 202.096 30.568 202.4C31 202.704 31.304 203.008 31.48 203.312C31.672 203.616 31.768 203.92 31.768 204.224C31.768 204.832 31.608 205.304 31.288 205.64C30.984 205.96 30.608 206.12 30.16 206.12C29.904 206.12 29.688 206.056 29.512 205.928C29.352 205.8 29.2 205.576 29.056 205.256C28.912 204.92 28.768 204.608 28.624 204.32C28.496 204.032 28.352 203.752 28.192 203.48C26.896 203.944 25.52 204.368 24.064 204.752C22.624 205.12 21.128 205.44 19.576 205.712L19.048 206.408L22.192 206.936L21.424 207.8C21.424 209.096 21.32 210.24 21.112 211.232C20.92 212.224 20.584 213.104 20.104 213.872C19.624 214.64 18.984 215.32 18.184 215.912C17.384 216.504 16.376 217.056 15.16 217.568L15.064 217.424C15.768 216.656 16.344 215.952 16.792 215.312C17.256 214.672 17.616 214.024 17.872 213.368C18.128 212.712 18.304 212.016 18.4 211.28C18.496 210.544 18.544 209.704 18.544 208.76C18.544 208.376 18.536 208 18.52 207.632C18.504 207.264 18.48 206.824 18.448 206.312L18.76 206.36L17.44 203.192C17.744 203.176 18 203.144 18.208 203.096C18.432 203.048 18.624 202.992 18.784 202.928C18.944 202.848 19.088 202.752 19.216 202.64C19.36 202.528 19.512 202.384 19.672 202.208C19.928 201.92 20.232 201.528 20.584 201.032C20.952 200.52 21.288 199.904 21.592 199.184H17.008V198.608H23.368C23.192 198.48 23.08 198.248 23.032 197.912C22.936 197.368 22.824 196.928 22.696 196.592C22.584 196.24 22.4 195.88 22.144 195.512L22.192 195.416C23.008 195.448 23.672 195.52 24.184 195.632C24.712 195.728 25.12 195.856 25.408 196.016C25.696 196.176 25.896 196.36 26.008 196.568C26.12 196.76 26.176 196.968 26.176 197.192C26.176 197.496 26.096 197.776 25.936 198.032C25.792 198.272 25.568 198.464 25.264 198.608H28.504L29.968 196.616L32.752 198.512C32.848 198.592 32.896 198.688 32.896 198.8C32.896 198.912 32.824 199.008 32.68 199.088C32.536 199.152 32.36 199.184 32.152 199.184H25.216C24.384 199.984 23.536 200.712 22.672 201.368C21.824 202.024 20.944 202.64 20.032 203.216L27.856 202.928C27.6 202.544 27.32 202.168 27.016 201.8C26.728 201.416 26.4 201.024 26.032 200.624L26.104 200.528ZM29.512 213.32C29.512 213.592 29.552 213.792 29.632 213.92C29.728 214.032 29.912 214.088 30.184 214.088C30.408 214.088 30.592 214.024 30.736 213.896C30.88 213.768 31.008 213.496 31.12 213.08L32.32 209.072L32.464 209.12L32.68 212.72C32.696 213.264 32.816 213.648 33.04 213.872C33.376 214.208 33.544 214.536 33.544 214.856C33.544 215.448 33.304 215.88 32.824 216.152C32.36 216.44 31.696 216.584 30.832 216.584H29.008C28.16 216.584 27.584 216.392 27.28 216.008C26.992 215.64 26.848 215.024 26.848 214.16V209.384C26.848 208.92 26.848 208.432 26.848 207.92C26.848 207.392 26.832 206.848 26.8 206.288L30.448 206.888L29.512 207.896V213.32ZM15.352 208.304C15.208 208.912 15.088 209.448 14.992 209.912C14.912 210.36 14.872 210.792 14.872 211.208C14.872 211.512 14.888 211.872 14.92 212.288C14.968 212.704 15.056 213.12 15.184 213.536C15.376 214.16 15.472 214.768 15.472 215.36C15.472 215.888 15.264 216.304 14.848 216.608C14.448 216.912 13.984 217.064 13.456 217.064C13.008 217.064 12.632 216.92 12.328 216.632C12.04 216.344 11.896 215.944 11.896 215.432C11.896 215.16 11.92 214.888 11.968 214.616C12.032 214.344 12.104 214.064 12.184 213.776C12.264 213.456 12.328 213.16 12.376 212.888C12.424 212.6 12.448 212.328 12.448 212.072C12.448 211.8 12.424 211.56 12.376 211.352C12.344 211.128 12.272 210.92 12.16 210.728C12.048 210.536 11.88 210.352 11.656 210.176C11.448 210 11.168 209.816 10.816 209.624L10.864 209.48C11.232 209.528 11.536 209.56 11.776 209.576C12.016 209.576 12.216 209.552 12.376 209.504C12.552 209.44 12.696 209.352 12.808 209.24C12.92 209.112 13.024 208.944 13.12 208.736L17.248 200.048L17.392 200.12L15.352 208.304ZM26.152 206.864L25.336 207.752V211.784C25.336 212.248 25.336 212.832 25.336 213.536C25.336 214.24 25.352 215.056 25.384 215.984C25.384 216.384 25.2 216.624 24.832 216.704C24.464 216.784 24.088 216.84 23.704 216.872C23.32 216.904 22.944 216.92 22.576 216.92C22.608 215.672 22.632 214.64 22.648 213.824C22.664 212.992 22.672 212.28 22.672 211.688V209.528C22.672 209.24 22.672 208.992 22.672 208.784C22.672 208.56 22.664 208.344 22.648 208.136C22.648 207.912 22.64 207.656 22.624 207.368C22.624 207.08 22.616 206.72 22.6 206.288L26.152 206.864ZM12.016 195.92C13.664 196.144 14.824 196.488 15.496 196.952C16.184 197.4 16.528 197.912 16.528 198.488C16.528 199.112 16.368 199.592 16.048 199.928C15.728 200.264 15.352 200.432 14.92 200.432C14.6 200.432 14.352 200.368 14.176 200.24C14 200.096 13.856 199.864 13.744 199.544C13.616 199.144 13.488 198.784 13.36 198.464C13.248 198.144 13.12 197.848 12.976 197.576C12.848 197.304 12.696 197.048 12.52 196.808C12.36 196.552 12.168 196.288 11.944 196.016L12.016 195.92ZM10.528 201.32C11.328 201.448 12 201.592 12.544 201.752C13.088 201.912 13.52 202.096 13.84 202.304C14.176 202.512 14.416 202.744 14.56 203C14.704 203.24 14.776 203.504 14.776 203.792C14.776 204.08 14.728 204.352 14.632 204.608C14.536 204.848 14.408 205.064 14.248 205.256C14.104 205.432 13.928 205.568 13.72 205.664C13.528 205.76 13.328 205.808 13.12 205.808C12.784 205.808 12.528 205.744 12.352 205.616C12.192 205.472 12.072 205.232 11.992 204.896C11.896 204.496 11.792 204.136 11.68 203.816C11.584 203.496 11.48 203.2 11.368 202.928C11.256 202.656 11.128 202.4 10.984 202.16C10.84 201.92 10.672 201.664 10.48 201.392L10.528 201.32ZM16.96 236.16H19.936V232.08H15.448V232.176C15.448 232.4 15.4 232.552 15.304 232.632C15.224 232.712 15.088 232.768 14.896 232.8C14.528 232.88 14.112 232.936 13.648 232.968C13.2 232.984 12.808 232.992 12.472 232.992C12.488 232.784 12.496 232.544 12.496 232.272C12.512 232 12.52 231.728 12.52 231.456C12.536 231.184 12.544 230.92 12.544 230.664C12.56 230.408 12.568 230.192 12.568 230.016V229.416C12.568 229.304 12.568 229.144 12.568 228.936C12.568 228.712 12.568 228.488 12.568 228.264C12.568 228.04 12.56 227.824 12.544 227.616C12.544 227.408 12.536 227.248 12.52 227.136L16.072 227.88H27.664L28.528 226.44L31.744 227.952L30.928 228.936V229.176C30.928 229.272 30.928 229.408 30.928 229.584C30.928 229.76 30.928 229.96 30.928 230.184C30.944 230.408 30.952 230.64 30.952 230.88C30.968 231.104 30.976 231.328 30.976 231.552C30.992 231.76 30.952 231.92 30.856 232.032C30.776 232.128 30.632 232.192 30.424 232.224C30.008 232.304 29.6 232.368 29.2 232.416C28.8 232.448 28.416 232.472 28.048 232.488V232.08H22.864V233.808H28.504L29.704 232.392L31.792 233.76C31.888 233.84 31.936 233.928 31.936 234.024C31.936 234.12 31.88 234.208 31.768 234.288C31.656 234.352 31.504 234.384 31.312 234.384H22.864V236.16H26.32L27.232 234.72L30.448 236.256L29.632 237.312V239.04C29.632 239.168 29.632 239.28 29.632 239.376C29.632 239.472 29.632 239.6 29.632 239.76C29.632 239.904 29.632 240.104 29.632 240.36C29.648 240.6 29.664 240.928 29.68 241.344C29.68 241.792 29.496 242.048 29.128 242.112C28.712 242.192 28.304 242.256 27.904 242.304C27.504 242.336 27.12 242.36 26.752 242.376V241.68H23.08V243.96H28.528L30.136 241.992L32.896 243.888C32.992 243.968 33.04 244.064 33.04 244.176C33.04 244.272 32.976 244.36 32.848 244.44C32.72 244.504 32.536 244.536 32.296 244.536H23.08V247.104C23.08 247.424 23.024 247.64 22.912 247.752C22.8 247.88 22.608 247.968 22.336 248.016C22.192 248.048 22.008 248.072 21.784 248.088C21.576 248.104 21.352 248.12 21.112 248.136C20.888 248.168 20.664 248.184 20.44 248.184C20.232 248.2 20.056 248.208 19.912 248.208C19.912 248.048 19.912 247.824 19.912 247.536C19.928 247.248 19.936 246.936 19.936 246.6C19.952 246.264 19.968 245.92 19.984 245.568C20 245.2 20.016 244.856 20.032 244.536H11.152V243.96H20.032C20.048 243.816 20.056 243.688 20.056 243.576C20.056 243.464 20.056 243.368 20.056 243.288V241.68H16.576V241.944C16.576 242.344 16.392 242.584 16.024 242.664C15.656 242.728 15.24 242.776 14.776 242.808C14.328 242.824 13.936 242.832 13.6 242.832C13.616 242.624 13.624 242.384 13.624 242.112C13.64 241.84 13.648 241.568 13.648 241.296C13.664 241.024 13.672 240.76 13.672 240.504C13.688 240.248 13.696 240.032 13.696 239.856V237.576C13.696 237.464 13.696 237.304 13.696 237.096C13.696 236.872 13.688 236.648 13.672 236.424C13.672 236.2 13.664 235.984 13.648 235.776C13.648 235.568 13.648 235.408 13.648 235.296L16.96 236.16ZM16.576 241.104H26.752V239.184H16.576V241.104ZM16.576 236.736V238.608H26.752V236.736H16.576ZM15.448 231.504H17.824V228.456H15.448V231.504ZM20.56 231.504H22.936V228.456H20.56V231.504ZM25.672 228.456V231.504H28.048V228.456H25.672Z" fill="white"/>
<path d="M16.192 36.928C16.192 37.248 16.28 37.536 16.456 37.792C16.648 38.032 17 38.24 17.512 38.416C18.04 38.576 18.768 38.704 19.696 38.8C20.624 38.896 21.84 38.944 23.344 38.944C23.968 38.944 24.672 38.936 25.456 38.92C26.24 38.888 27.072 38.856 27.952 38.824C28.848 38.776 29.768 38.72 30.712 38.656C31.656 38.576 32.6 38.488 33.544 38.392V38.536C33.304 38.68 33.096 38.832 32.92 38.992C32.76 39.152 32.624 39.344 32.512 39.568C32.4 39.792 32.312 40.056 32.248 40.36C32.184 40.664 32.136 41.032 32.104 41.464C30.84 41.544 29.488 41.6 28.048 41.632C26.624 41.664 25.208 41.68 23.8 41.68C22.472 41.664 21.344 41.576 20.416 41.416C19.488 41.256 18.696 41.008 18.04 40.672C17.4 40.336 16.864 39.904 16.432 39.376C16 38.832 15.624 38.176 15.304 37.408C14.968 38.08 14.576 38.744 14.128 39.4C13.696 40.04 13.264 40.616 12.832 41.128L12.328 42.352L10.384 38.848C10.88 38.672 11.368 38.48 11.848 38.272C12.344 38.064 12.848 37.808 13.36 37.504V29.872H10.696V29.296H12.928L13.792 27.664L17.104 29.32L16.192 30.4V36.928ZM27.856 33.976C27.856 34.344 27.928 34.608 28.072 34.768C28.216 34.912 28.472 34.984 28.84 34.984H29.776C30.288 34.984 30.656 34.712 30.88 34.168L32.152 31.384L32.296 31.432L32.44 33.832C32.44 34.264 32.568 34.6 32.824 34.84C33.112 35.112 33.256 35.432 33.256 35.8C33.256 36.216 32.992 36.592 32.464 36.928C31.952 37.248 31.216 37.408 30.256 37.408H27.952C26.928 37.408 26.208 37.2 25.792 36.784C25.376 36.368 25.168 35.608 25.168 34.504V25.84C25.168 25.376 25.16 24.736 25.144 23.92C25.128 23.104 25.104 22.072 25.072 20.824L28.816 21.496L27.856 22.336V28.144C29.2 28.432 30.16 28.816 30.736 29.296C31.328 29.76 31.624 30.28 31.624 30.856C31.624 31.256 31.464 31.616 31.144 31.936C30.84 32.256 30.512 32.416 30.16 32.416C29.616 32.416 29.272 32.136 29.128 31.576C28.984 30.968 28.808 30.424 28.6 29.944C28.408 29.464 28.16 28.992 27.856 28.528V33.976ZM24.736 21.4L23.776 22.264V26.896C23.776 28.528 23.656 29.952 23.416 31.168C23.192 32.368 22.832 33.408 22.336 34.288C21.84 35.168 21.208 35.92 20.44 36.544C19.672 37.168 18.752 37.72 17.68 38.2L17.416 37.912C17.992 37.288 18.496 36.664 18.928 36.04C19.36 35.4 19.72 34.728 20.008 34.024C20.312 33.304 20.544 32.536 20.704 31.72C20.88 30.888 21 29.96 21.064 28.936C20.472 30.136 19.792 31.192 19.024 32.104L18.592 33.208L16.912 30.064C17.52 29.904 18.184 29.672 18.904 29.368C19.64 29.064 20.376 28.728 21.112 28.36C21.128 28.12 21.136 27.88 21.136 27.64C21.136 27.384 21.136 27.12 21.136 26.848V24.928C21.136 24.192 21.128 23.488 21.112 22.816C21.096 22.128 21.072 21.448 21.04 20.776L24.736 21.4ZM12.52 21.088C13.88 21.52 14.864 22.024 15.472 22.6C16.08 23.16 16.384 23.768 16.384 24.424C16.384 25.016 16.216 25.48 15.88 25.816C15.56 26.152 15.12 26.32 14.56 26.32C14.304 26.32 14.08 26.232 13.888 26.056C13.712 25.864 13.6 25.568 13.552 25.168C13.456 24.4 13.32 23.696 13.144 23.056C12.984 22.4 12.752 21.768 12.448 21.16L12.52 21.088ZM17.368 22.816C18.52 23.344 19.344 23.88 19.84 24.424C20.336 24.968 20.584 25.528 20.584 26.104C20.584 26.552 20.44 26.952 20.152 27.304C19.88 27.656 19.536 27.832 19.12 27.832C18.56 27.832 18.256 27.504 18.208 26.848C18.16 26.128 18.056 25.432 17.896 24.76C17.752 24.072 17.552 23.44 17.296 22.864L17.368 22.816ZM28.288 27.568C28.576 26.736 28.848 25.904 29.104 25.072C29.36 24.224 29.568 23.408 29.728 22.624L32.92 24.184L31.936 24.664C30.96 25.768 29.784 26.768 28.408 27.664L28.288 27.568ZM27.328 65.792C27.328 66.112 27.384 66.336 27.496 66.464C27.624 66.576 27.848 66.632 28.168 66.632H29.464C29.656 66.632 29.816 66.624 29.944 66.608C30.072 66.576 30.192 66.512 30.304 66.416C30.432 66.32 30.552 66.176 30.664 65.984C30.776 65.776 30.904 65.496 31.048 65.144L31.888 63.104L32.032 63.152L32.2 65.168C32.232 65.44 32.264 65.672 32.296 65.864C32.344 66.04 32.44 66.2 32.584 66.344C32.92 66.664 33.088 67 33.088 67.352C33.088 67.848 32.792 68.232 32.2 68.504C31.608 68.776 30.824 68.912 29.848 68.912H27.16C26.264 68.912 25.64 68.72 25.288 68.336C24.952 67.952 24.784 67.32 24.784 66.44V63.68C24.064 65.088 23.056 66.216 21.76 67.064C20.464 67.896 18.864 68.488 16.96 68.84L16.888 68.72C17.704 68.192 18.432 67.672 19.072 67.16C19.728 66.632 20.304 66.088 20.8 65.528C21.296 64.968 21.72 64.368 22.072 63.728C22.424 63.072 22.704 62.352 22.912 61.568H21.064V62.384C21.064 62.848 20.864 63.12 20.464 63.2C20.08 63.264 19.696 63.32 19.312 63.368C18.928 63.4 18.576 63.416 18.256 63.416C18.288 62.648 18.312 61.968 18.328 61.376C18.344 60.784 18.352 60.376 18.352 60.152V58.64C18.352 58.512 18.344 58.392 18.328 58.28C18.328 58.152 18.32 58.04 18.304 57.944C17.984 58.2 17.64 58.448 17.272 58.688C16.904 58.928 16.512 59.176 16.096 59.432L15.976 59.336C16.536 58.568 17.032 57.84 17.464 57.152C17.896 56.464 18.272 55.792 18.592 55.136C18.912 54.464 19.184 53.8 19.408 53.144C19.648 52.488 19.856 51.808 20.032 51.104L23.92 52.256L22.792 52.856C22.632 53.144 22.448 53.448 22.24 53.768H24.664L25.648 52.376L28.84 54.464L27.52 54.944C27.104 55.264 26.648 55.584 26.152 55.904C25.672 56.208 25.192 56.496 24.712 56.768H28.168L29.08 55.184L32.128 56.768L31.312 57.824V58.52C31.312 58.888 31.32 59.312 31.336 59.792C31.352 60.256 31.376 60.856 31.408 61.592C31.424 61.96 31.256 62.192 30.904 62.288C30.552 62.368 30.168 62.44 29.752 62.504C29.352 62.552 28.968 62.576 28.6 62.576V61.568H25.576C25.544 61.696 25.512 61.824 25.48 61.952C25.448 62.08 25.408 62.208 25.36 62.336L28.072 62.792L27.328 63.488V65.792ZM16.432 67.784C16.432 68.12 16.504 68.408 16.648 68.648C16.808 68.888 17.112 69.088 17.56 69.248C18.024 69.408 18.672 69.536 19.504 69.632C20.336 69.712 21.44 69.768 22.816 69.8C23.408 69.816 24.104 69.816 24.904 69.8C25.704 69.784 26.568 69.76 27.496 69.728C28.424 69.68 29.4 69.616 30.424 69.536C31.448 69.456 32.488 69.36 33.544 69.248V69.392C33.288 69.568 33.072 69.752 32.896 69.944C32.72 70.136 32.576 70.352 32.464 70.592C32.352 70.832 32.264 71.104 32.2 71.408C32.152 71.728 32.12 72.096 32.104 72.512C30.712 72.592 29.368 72.656 28.072 72.704C26.792 72.752 25.472 72.76 24.112 72.728C22.784 72.728 21.648 72.632 20.704 72.44C19.76 72.248 18.952 71.96 18.28 71.576C17.624 71.208 17.088 70.752 16.672 70.208C16.256 69.648 15.904 69 15.616 68.264C15.28 68.872 14.872 69.512 14.392 70.184C13.928 70.84 13.424 71.448 12.88 72.008L12.376 73.232L10.36 69.584C10.84 69.488 11.36 69.352 11.92 69.176C12.48 68.984 12.992 68.76 13.456 68.504V61.88H10.696V61.304H13.024L13.984 59.672L17.344 61.352L16.432 62.408V67.784ZM11.536 51.896C12.512 52.072 13.328 52.28 13.984 52.52C14.656 52.744 15.184 53 15.568 53.288C15.968 53.56 16.248 53.864 16.408 54.2C16.584 54.52 16.672 54.856 16.672 55.208C16.672 55.864 16.464 56.376 16.048 56.744C15.632 57.096 15.16 57.272 14.632 57.272C14.04 57.272 13.64 56.92 13.432 56.216C13.304 55.752 13.176 55.336 13.048 54.968C12.92 54.584 12.776 54.224 12.616 53.888C12.472 53.552 12.304 53.232 12.112 52.928C11.92 52.608 11.704 52.288 11.464 51.968L11.536 51.896ZM26.128 57.344C26.112 58.016 26.072 58.656 26.008 59.264C25.944 59.856 25.848 60.432 25.72 60.992H28.6V57.344H26.128ZM21.856 54.344C21.584 54.728 21.296 55.104 20.992 55.472C20.688 55.824 20.368 56.16 20.032 56.48L21.544 56.768H24.184L24.832 54.344H21.856ZM23.056 60.992C23.28 59.936 23.4 58.72 23.416 57.344H21.064V60.992H23.056ZM28.048 63.248C29.008 63.392 29.656 63.608 29.992 63.896C30.328 64.184 30.496 64.512 30.496 64.88C30.496 65.232 30.368 65.512 30.112 65.72C29.856 65.928 29.592 66.032 29.32 66.032C28.84 66.032 28.576 65.8 28.528 65.336C28.48 64.808 28.416 64.408 28.336 64.136C28.272 63.848 28.152 63.576 27.976 63.32L28.048 63.248ZM29.92 83.16L28.96 84V85.416H29.56L30.904 83.688L33.184 85.32C33.28 85.4 33.328 85.496 33.328 85.608C33.328 85.72 33.256 85.816 33.112 85.896C32.984 85.96 32.808 85.992 32.584 85.992H28.96V87.312C28.96 87.68 28.8 87.896 28.48 87.96C28.128 88.04 27.776 88.104 27.424 88.152C27.072 88.184 26.688 88.2 26.272 88.2C26.272 87.976 26.272 87.648 26.272 87.216C26.288 86.784 26.304 86.376 26.32 85.992H23.104V87.504C23.104 87.584 23.088 87.688 23.056 87.816L26.728 88.992L25.84 89.448C26.448 89.864 27.032 90.232 27.592 90.552C28.168 90.872 28.752 91.152 29.344 91.392C29.952 91.632 30.576 91.84 31.216 92.016C31.872 92.176 32.584 92.304 33.352 92.4L33.304 92.544C32.792 92.864 32.36 93.256 32.008 93.72C31.656 94.184 31.32 94.84 31 95.688C30.232 95.24 29.568 94.808 29.008 94.392C28.464 93.96 27.984 93.512 27.568 93.048C27.152 92.568 26.776 92.064 26.44 91.536C26.12 90.992 25.808 90.384 25.504 89.712C25.168 90.208 24.832 90.664 24.496 91.08C24.16 91.48 23.816 91.856 23.464 92.208C23.112 92.56 22.6 93 21.928 93.528C21.256 94.056 20.496 94.552 19.648 95.016C18.8 95.48 18.008 95.896 17.272 96.264L17.176 96.144C18.04 95.264 18.784 94.448 19.408 93.696C20.048 92.944 20.584 92.24 21.016 91.584C21.464 90.928 21.824 90.32 22.096 89.76C22.368 89.184 22.576 88.632 22.72 88.104C22.688 88.12 22.656 88.128 22.624 88.128C22.24 88.208 21.864 88.272 21.496 88.32C21.128 88.352 20.76 88.368 20.392 88.368C20.424 87.888 20.44 87.464 20.44 87.096C20.456 86.712 20.464 86.344 20.464 85.992H17.296V85.416H20.464V82.56L24.064 83.16L23.104 84V85.416H26.32V82.56L29.92 83.16ZM30.592 100.008C30.592 100.472 30.592 100.952 30.592 101.448C30.592 101.928 30.608 102.488 30.64 103.128C30.656 103.368 30.616 103.544 30.52 103.656C30.44 103.784 30.288 103.872 30.064 103.92C29.696 104 29.304 104.056 28.888 104.088C28.488 104.136 28.08 104.16 27.664 104.16V102.792H22.096V103.104C22.096 103.568 21.88 103.84 21.448 103.92C21.032 104 20.608 104.056 20.176 104.088C19.744 104.136 19.392 104.16 19.12 104.16C19.152 103.376 19.176 102.736 19.192 102.24C19.208 101.744 19.216 101.28 19.216 100.848V99.312C19.216 98.944 19.216 98.52 19.216 98.04C19.216 97.56 19.2 96.912 19.168 96.096L22.648 96.912H27.232L28.096 95.376L31.576 97.056L30.592 98.088V100.008ZM10.72 89.28H13.216V87.504C13.216 86.464 13.208 85.568 13.192 84.816C13.176 84.048 13.152 83.336 13.12 82.68L17.032 83.328L16.072 84.288V89.28L17.152 87.744L19.24 89.256C19.352 89.32 19.408 89.408 19.408 89.52C19.408 89.744 19.16 89.856 18.664 89.856H16.072V97.2C16.376 97.152 16.784 97.072 17.296 96.96C17.824 96.832 18.344 96.696 18.856 96.552L18.928 96.672C17.872 97.536 16.816 98.312 15.76 99C14.704 99.672 13.696 100.264 12.736 100.776L12.064 101.832L10.456 98.112C10.872 98.08 11.304 98.04 11.752 97.992C12.2 97.944 12.688 97.872 13.216 97.776V89.856H10.72V89.28ZM22.096 97.488V102.216H27.664V97.488H22.096ZM21.184 94.704V94.128H24.76L26.104 92.4L28.408 94.104C28.52 94.184 28.576 94.272 28.576 94.368C28.576 94.448 28.512 94.528 28.384 94.608C28.256 94.672 28.08 94.704 27.856 94.704H21.184Z" fill="white"/>
<path d="M19.84 390.648C19.84 391.096 19.92 391.416 20.08 391.608C20.24 391.784 20.528 391.872 20.944 391.872H24.088C24.488 391.872 24.792 391.8 25 391.656C25.224 391.496 25.416 391.24 25.576 390.888L27.376 387.048L27.52 387.096L27.544 390.576C27.544 390.896 27.584 391.144 27.664 391.32C27.744 391.48 27.88 391.624 28.072 391.752C28.488 392.024 28.696 392.368 28.696 392.784C28.696 393.36 28.376 393.8 27.736 394.104C27.112 394.408 26.208 394.56 25.024 394.56H19.192C18.376 394.56 17.776 394.344 17.392 393.912C17.008 393.496 16.816 392.808 16.816 391.848V386.904C16.816 386.76 16.816 386.512 16.816 386.16C16.816 385.792 16.808 385.4 16.792 384.984C16.792 384.568 16.784 384.16 16.768 383.76C16.752 383.36 16.736 383.04 16.72 382.8L20.8 383.4L19.84 384.24V390.648ZM27.856 374.136L26.848 375.024V376.8V376.992H28.648L30.28 374.784L33.16 376.896C33.272 376.992 33.328 377.08 33.328 377.16C33.328 377.272 33.256 377.368 33.112 377.448C32.968 377.528 32.792 377.568 32.584 377.568H26.848C26.864 377.968 26.872 378.4 26.872 378.864C26.888 379.312 26.896 379.64 26.896 379.848C26.896 380.184 26.736 380.384 26.416 380.448C25.6 380.608 24.8 380.704 24.016 380.736V377.568H19.504V379.944C19.504 380.28 19.344 380.472 19.024 380.52C18.64 380.6 18.232 380.664 17.8 380.712C17.368 380.744 16.976 380.76 16.624 380.76C16.656 380.088 16.68 379.456 16.696 378.864C16.712 378.272 16.72 377.84 16.72 377.568H10.768V376.992H16.72V376.56C16.72 376.256 16.712 375.832 16.696 375.288C16.696 374.728 16.688 374.152 16.672 373.56L20.512 374.112L19.504 375V376.992H24.016C24.016 376.672 24.008 376.208 23.992 375.6C23.992 374.976 23.984 374.304 23.968 373.584L27.856 374.136ZM27.472 384.144C29.248 385.04 30.608 385.952 31.552 386.88C32.496 387.808 32.968 388.704 32.968 389.568C32.968 389.904 32.912 390.216 32.8 390.504C32.688 390.776 32.536 391.016 32.344 391.224C32.152 391.416 31.928 391.576 31.672 391.704C31.416 391.816 31.144 391.872 30.856 391.872C30.488 391.872 30.216 391.784 30.04 391.608C29.864 391.432 29.736 391.136 29.656 390.72C29.544 390.08 29.424 389.488 29.296 388.944C29.168 388.4 29.016 387.872 28.84 387.36C28.68 386.832 28.48 386.32 28.24 385.824C28.016 385.312 27.744 384.784 27.424 384.24L27.472 384.144ZM14.416 384.24C14.656 384.864 14.84 385.48 14.968 386.088C15.112 386.696 15.184 387.304 15.184 387.912C15.184 388.648 15.096 389.288 14.92 389.832C14.76 390.376 14.544 390.832 14.272 391.2C14 391.568 13.688 391.848 13.336 392.04C13 392.216 12.656 392.304 12.304 392.304C11.84 392.304 11.472 392.128 11.2 391.776C10.928 391.408 10.792 390.952 10.792 390.408C10.792 389.992 10.848 389.656 10.96 389.4C11.072 389.128 11.336 388.848 11.752 388.56C12.072 388.32 12.36 388.064 12.616 387.792C12.888 387.52 13.12 387.216 13.312 386.88C13.52 386.544 13.704 386.16 13.864 385.728C14.04 385.296 14.192 384.8 14.32 384.24H14.416ZM19.84 380.76C20.96 381.016 21.864 381.28 22.552 381.552C23.256 381.824 23.8 382.112 24.184 382.416C24.584 382.704 24.856 383.008 25 383.328C25.144 383.632 25.216 383.952 25.216 384.288C25.216 384.608 25.16 384.896 25.048 385.152C24.936 385.392 24.784 385.6 24.592 385.776C24.416 385.952 24.216 386.088 23.992 386.184C23.784 386.264 23.576 386.304 23.368 386.304C22.776 386.304 22.4 386.04 22.24 385.512C22.096 385.032 21.944 384.6 21.784 384.216C21.64 383.832 21.472 383.464 21.28 383.112C21.104 382.744 20.888 382.384 20.632 382.032C20.392 381.664 20.104 381.264 19.768 380.832L19.84 380.76ZM10.936 422.512H27.256L29.368 419.728L32.896 422.416C33.024 422.512 33.088 422.608 33.088 422.704C33.088 422.8 33.016 422.896 32.872 422.992C32.728 423.088 32.56 423.136 32.368 423.136H10.936V422.512ZM12.904 408.136H25.504L27.352 405.592L30.664 408.064C30.776 408.16 30.832 408.248 30.832 408.328C30.832 408.408 30.768 408.504 30.64 408.616C30.512 408.712 30.328 408.76 30.088 408.76H12.904V408.136ZM28.816 443.192L29.776 441.656L33.112 443.48L32.032 444.44C31.712 445.768 31.288 446.992 30.76 448.112C30.248 449.216 29.6 450.248 28.816 451.208C29.44 451.672 30.136 452.088 30.904 452.456C31.688 452.824 32.56 453.168 33.52 453.488L33.472 453.632C33.232 453.76 33 453.912 32.776 454.088C32.552 454.264 32.328 454.48 32.104 454.736C31.896 454.992 31.68 455.296 31.456 455.648C31.248 456 31.016 456.416 30.76 456.896C29.816 456.384 28.992 455.848 28.288 455.288C27.6 454.728 26.992 454.128 26.464 453.488C24.544 454.992 22.056 456.256 19 457.28L18.904 457.16C20.264 456.216 21.464 455.296 22.504 454.4C23.544 453.504 24.464 452.576 25.264 451.616C24.736 450.576 24.328 449.424 24.04 448.16C23.752 446.88 23.536 445.416 23.392 443.768C23.2 445.576 22.896 447.152 22.48 448.496C22.08 449.84 21.56 451.032 20.92 452.072C20.28 453.096 19.52 454.016 18.64 454.832C17.76 455.632 16.752 456.4 15.616 457.136L15.496 457.064C16.424 455.896 17.224 454.712 17.896 453.512C18.584 452.312 19.144 450.976 19.576 449.504C20.008 448.032 20.328 446.36 20.536 444.488C20.744 442.616 20.848 440.408 20.848 437.864H18.52V437.288H26.464L27.4 435.848L30.688 437.552L29.584 438.464L27.976 443.192H28.816ZM15.712 441.896C16.016 441.08 16.304 440.192 16.576 439.232L20.152 440.84L19.048 441.512C17.56 443.768 15.944 445.744 14.2 447.44L19.504 447.08L19.528 447.224C18.648 447.752 17.704 448.264 16.696 448.76C15.688 449.24 14.704 449.664 13.744 450.032L13.168 451.088L11.632 447.512C12.128 447.48 12.512 447.376 12.784 447.2C13.072 447.024 13.312 446.776 13.504 446.456C13.872 445.832 14.208 445.216 14.512 444.608C14.832 443.984 15.128 443.344 15.4 442.688C14.856 443.04 14.352 443.344 13.888 443.6C13.424 443.84 12.928 444.08 12.4 444.32L11.872 445.352L10.504 442.112C10.824 442.064 11.08 441.976 11.272 441.848C11.48 441.704 11.648 441.52 11.776 441.296C11.984 440.912 12.168 440.568 12.328 440.264C12.488 439.944 12.632 439.64 12.76 439.352C12.888 439.048 13.008 438.736 13.12 438.416C13.232 438.096 13.352 437.744 13.48 437.36C13.608 436.944 13.704 436.592 13.768 436.304C13.832 436.016 13.88 435.728 13.912 435.44L17.632 436.808L16.528 437.456C15.888 438.336 15.248 439.144 14.608 439.88C13.968 440.6 13.256 441.336 12.472 442.088L15.712 441.896ZM28.096 443.768L27.232 444.752L24.712 443.192L25.48 442.304L26.776 437.864H23.656C23.656 439.512 23.608 441.008 23.512 442.352C23.96 443.904 24.44 445.248 24.952 446.384C25.48 447.52 26.104 448.52 26.824 449.384C27.336 448.536 27.784 447.656 28.168 446.744C28.552 445.816 28.888 444.824 29.176 443.768H28.096ZM18.976 450.56C18.176 451.328 17.256 452.088 16.216 452.84C15.176 453.576 14.072 454.264 12.904 454.904L12.376 455.912L10.72 452.144C11.216 452.096 11.776 452.024 12.4 451.928C13.024 451.816 13.688 451.688 14.392 451.544C15.112 451.4 15.856 451.232 16.624 451.04C17.392 450.848 18.16 450.64 18.928 450.416L18.976 450.56Z" fill="white"/>
<path d="M19.84 594.648C19.84 595.096 19.92 595.416 20.08 595.608C20.24 595.784 20.528 595.872 20.944 595.872H24.088C24.488 595.872 24.792 595.8 25 595.656C25.224 595.496 25.416 595.24 25.576 594.888L27.376 591.048L27.52 591.096L27.544 594.576C27.544 594.896 27.584 595.144 27.664 595.32C27.744 595.48 27.88 595.624 28.072 595.752C28.488 596.024 28.696 596.368 28.696 596.784C28.696 597.36 28.376 597.8 27.736 598.104C27.112 598.408 26.208 598.56 25.024 598.56H19.192C18.376 598.56 17.776 598.344 17.392 597.912C17.008 597.496 16.816 596.808 16.816 595.848V590.904C16.816 590.76 16.816 590.512 16.816 590.16C16.816 589.792 16.808 589.4 16.792 588.984C16.792 588.568 16.784 588.16 16.768 587.76C16.752 587.36 16.736 587.04 16.72 586.8L20.8 587.4L19.84 588.24V594.648ZM27.856 578.136L26.848 579.024V580.8V580.992H28.648L30.28 578.784L33.16 580.896C33.272 580.992 33.328 581.08 33.328 581.16C33.328 581.272 33.256 581.368 33.112 581.448C32.968 581.528 32.792 581.568 32.584 581.568H26.848C26.864 581.968 26.872 582.4 26.872 582.864C26.888 583.312 26.896 583.64 26.896 583.848C26.896 584.184 26.736 584.384 26.416 584.448C25.6 584.608 24.8 584.704 24.016 584.736V581.568H19.504V583.944C19.504 584.28 19.344 584.472 19.024 584.52C18.64 584.6 18.232 584.664 17.8 584.712C17.368 584.744 16.976 584.76 16.624 584.76C16.656 584.088 16.68 583.456 16.696 582.864C16.712 582.272 16.72 581.84 16.72 581.568H10.768V580.992H16.72V580.56C16.72 580.256 16.712 579.832 16.696 579.288C16.696 578.728 16.688 578.152 16.672 577.56L20.512 578.112L19.504 579V580.992H24.016C24.016 580.672 24.008 580.208 23.992 579.6C23.992 578.976 23.984 578.304 23.968 577.584L27.856 578.136ZM27.472 588.144C29.248 589.04 30.608 589.952 31.552 590.88C32.496 591.808 32.968 592.704 32.968 593.568C32.968 593.904 32.912 594.216 32.8 594.504C32.688 594.776 32.536 595.016 32.344 595.224C32.152 595.416 31.928 595.576 31.672 595.704C31.416 595.816 31.144 595.872 30.856 595.872C30.488 595.872 30.216 595.784 30.04 595.608C29.864 595.432 29.736 595.136 29.656 594.72C29.544 594.08 29.424 593.488 29.296 592.944C29.168 592.4 29.016 591.872 28.84 591.36C28.68 590.832 28.48 590.32 28.24 589.824C28.016 589.312 27.744 588.784 27.424 588.24L27.472 588.144ZM14.416 588.24C14.656 588.864 14.84 589.48 14.968 590.088C15.112 590.696 15.184 591.304 15.184 591.912C15.184 592.648 15.096 593.288 14.92 593.832C14.76 594.376 14.544 594.832 14.272 595.2C14 595.568 13.688 595.848 13.336 596.04C13 596.216 12.656 596.304 12.304 596.304C11.84 596.304 11.472 596.128 11.2 595.776C10.928 595.408 10.792 594.952 10.792 594.408C10.792 593.992 10.848 593.656 10.96 593.4C11.072 593.128 11.336 592.848 11.752 592.56C12.072 592.32 12.36 592.064 12.616 591.792C12.888 591.52 13.12 591.216 13.312 590.88C13.52 590.544 13.704 590.16 13.864 589.728C14.04 589.296 14.192 588.8 14.32 588.24H14.416ZM19.84 584.76C20.96 585.016 21.864 585.28 22.552 585.552C23.256 585.824 23.8 586.112 24.184 586.416C24.584 586.704 24.856 587.008 25 587.328C25.144 587.632 25.216 587.952 25.216 588.288C25.216 588.608 25.16 588.896 25.048 589.152C24.936 589.392 24.784 589.6 24.592 589.776C24.416 589.952 24.216 590.088 23.992 590.184C23.784 590.264 23.576 590.304 23.368 590.304C22.776 590.304 22.4 590.04 22.24 589.512C22.096 589.032 21.944 588.6 21.784 588.216C21.64 587.832 21.472 587.464 21.28 587.112C21.104 586.744 20.888 586.384 20.632 586.032C20.392 585.664 20.104 585.264 19.768 584.832L19.84 584.76ZM11.104 619.048H27.28L29.368 616.24L32.896 618.952C33.04 619.064 33.112 619.168 33.112 619.264C33.112 619.344 33.04 619.432 32.896 619.528C32.768 619.624 32.592 619.672 32.368 619.672H11.104V619.048ZM28.816 647.192L29.776 645.656L33.112 647.48L32.032 648.44C31.712 649.768 31.288 650.992 30.76 652.112C30.248 653.216 29.6 654.248 28.816 655.208C29.44 655.672 30.136 656.088 30.904 656.456C31.688 656.824 32.56 657.168 33.52 657.488L33.472 657.632C33.232 657.76 33 657.912 32.776 658.088C32.552 658.264 32.328 658.48 32.104 658.736C31.896 658.992 31.68 659.296 31.456 659.648C31.248 660 31.016 660.416 30.76 660.896C29.816 660.384 28.992 659.848 28.288 659.288C27.6 658.728 26.992 658.128 26.464 657.488C24.544 658.992 22.056 660.256 19 661.28L18.904 661.16C20.264 660.216 21.464 659.296 22.504 658.4C23.544 657.504 24.464 656.576 25.264 655.616C24.736 654.576 24.328 653.424 24.04 652.16C23.752 650.88 23.536 649.416 23.392 647.768C23.2 649.576 22.896 651.152 22.48 652.496C22.08 653.84 21.56 655.032 20.92 656.072C20.28 657.096 19.52 658.016 18.64 658.832C17.76 659.632 16.752 660.4 15.616 661.136L15.496 661.064C16.424 659.896 17.224 658.712 17.896 657.512C18.584 656.312 19.144 654.976 19.576 653.504C20.008 652.032 20.328 650.36 20.536 648.488C20.744 646.616 20.848 644.408 20.848 641.864H18.52V641.288H26.464L27.4 639.848L30.688 641.552L29.584 642.464L27.976 647.192H28.816ZM15.712 645.896C16.016 645.08 16.304 644.192 16.576 643.232L20.152 644.84L19.048 645.512C17.56 647.768 15.944 649.744 14.2 651.44L19.504 651.08L19.528 651.224C18.648 651.752 17.704 652.264 16.696 652.76C15.688 653.24 14.704 653.664 13.744 654.032L13.168 655.088L11.632 651.512C12.128 651.48 12.512 651.376 12.784 651.2C13.072 651.024 13.312 650.776 13.504 650.456C13.872 649.832 14.208 649.216 14.512 648.608C14.832 647.984 15.128 647.344 15.4 646.688C14.856 647.04 14.352 647.344 13.888 647.6C13.424 647.84 12.928 648.08 12.4 648.32L11.872 649.352L10.504 646.112C10.824 646.064 11.08 645.976 11.272 645.848C11.48 645.704 11.648 645.52 11.776 645.296C11.984 644.912 12.168 644.568 12.328 644.264C12.488 643.944 12.632 643.64 12.76 643.352C12.888 643.048 13.008 642.736 13.12 642.416C13.232 642.096 13.352 641.744 13.48 641.36C13.608 640.944 13.704 640.592 13.768 640.304C13.832 640.016 13.88 639.728 13.912 639.44L17.632 640.808L16.528 641.456C15.888 642.336 15.248 643.144 14.608 643.88C13.968 644.6 13.256 645.336 12.472 646.088L15.712 645.896ZM28.096 647.768L27.232 648.752L24.712 647.192L25.48 646.304L26.776 641.864H23.656C23.656 643.512 23.608 645.008 23.512 646.352C23.96 647.904 24.44 649.248 24.952 650.384C25.48 651.52 26.104 652.52 26.824 653.384C27.336 652.536 27.784 651.656 28.168 650.744C28.552 649.816 28.888 648.824 29.176 647.768H28.096ZM18.976 654.56C18.176 655.328 17.256 656.088 16.216 656.84C15.176 657.576 14.072 658.264 12.904 658.904L12.376 659.912L10.72 656.144C11.216 656.096 11.776 656.024 12.4 655.928C13.024 655.816 13.688 655.688 14.392 655.544C15.112 655.4 15.856 655.232 16.624 655.04C17.392 654.848 18.16 654.64 18.928 654.416L18.976 654.56Z" fill="white"/>
<path d="M12.448 773.608C12.448 772.888 12.44 772.144 12.424 771.376C12.424 770.592 12.416 769.824 12.4 769.072L16 769.816H17.536L18.4 768.232L21.616 769.816L20.752 770.92V783.184C21.008 783.136 21.264 783.088 21.52 783.04C21.776 782.992 22.04 782.936 22.312 782.872C22.776 781.736 23.136 780.48 23.392 779.104C23.648 777.728 23.808 776.12 23.872 774.28H21.472V773.704H23.872C23.888 773.544 23.896 773.376 23.896 773.2C23.896 773.008 23.896 772.816 23.896 772.624C23.896 772.336 23.896 772 23.896 771.616C23.896 771.232 23.888 770.824 23.872 770.392C23.872 769.96 23.856 769.512 23.824 769.048C23.808 768.584 23.784 768.136 23.752 767.704L28.096 768.328L27.016 769.264C27.016 770.08 27.008 770.856 26.992 771.592C26.976 772.328 26.952 773.032 26.92 773.704H28.984L29.896 772.024L33.328 773.776L32.416 774.904C32.416 775.464 32.408 776.128 32.392 776.896C32.376 777.648 32.352 778.44 32.32 779.272C32.304 780.088 32.272 780.896 32.224 781.696C32.192 782.496 32.16 783.208 32.128 783.832C32.08 784.792 31.984 785.584 31.84 786.208C31.712 786.832 31.488 787.336 31.168 787.72C30.848 788.104 30.408 788.4 29.848 788.608C29.304 788.832 28.592 789.016 27.712 789.16C27.664 788.712 27.584 788.32 27.472 787.984C27.376 787.664 27.208 787.376 26.968 787.12C26.744 786.864 26.424 786.632 26.008 786.424C25.608 786.2 25.08 785.984 24.424 785.776L24.472 785.632L26.896 785.848C27.296 785.88 27.632 785.872 27.904 785.824C28.176 785.76 28.392 785.648 28.552 785.488C28.728 785.312 28.856 785.072 28.936 784.768C29.016 784.448 29.072 784.056 29.104 783.592C29.136 782.952 29.168 782.248 29.2 781.48C29.232 780.696 29.264 779.896 29.296 779.08C29.328 778.264 29.352 777.448 29.368 776.632C29.384 775.816 29.4 775.032 29.416 774.28H26.896C26.816 775.8 26.68 777.152 26.488 778.336C26.296 779.52 26.032 780.576 25.696 781.504C25.376 782.432 24.976 783.256 24.496 783.976C24.032 784.696 23.472 785.36 22.816 785.968C22.176 786.576 21.44 787.152 20.608 787.696C19.776 788.256 18.832 788.824 17.776 789.4L17.68 789.28C18.688 788.304 19.56 787.336 20.296 786.376C21.048 785.416 21.68 784.36 22.192 783.208C21.552 783.608 20.832 784.008 20.032 784.408C19.248 784.808 18.44 785.192 17.608 785.56C16.792 785.928 15.984 786.272 15.184 786.592C14.384 786.912 13.648 787.176 12.976 787.384L12.352 788.488L10.816 784.696C11.28 784.728 11.824 784.68 12.448 784.552V773.608ZM15.328 784.12C15.76 784.04 16.192 783.968 16.624 783.904C17.056 783.824 17.488 783.744 17.92 783.664V779.704H15.328V784.12ZM15.328 770.392V774.472H17.92V770.392H15.328ZM15.328 779.128H17.92V775.048H15.328V779.128ZM17.584 810.56C18.064 809.568 18.504 808.608 18.904 807.68C19.304 806.752 19.648 805.824 19.936 804.896C20.24 803.968 20.496 803.032 20.704 802.088C20.928 801.128 21.104 800.128 21.232 799.088L25.504 800.264L24.352 801.08C24.144 801.56 23.944 802.016 23.752 802.448C23.576 802.864 23.392 803.272 23.2 803.672H29.32L30.616 801.896L33.112 803.6C33.224 803.696 33.28 803.784 33.28 803.864C33.28 803.944 33.216 804.032 33.088 804.128C32.976 804.208 32.8 804.248 32.56 804.248H28.36V808.616H29.224L30.448 806.888L32.872 808.52C32.984 808.616 33.04 808.712 33.04 808.808C33.04 808.888 32.976 808.976 32.848 809.072C32.72 809.152 32.544 809.192 32.32 809.192H28.36V813.56H29.224L30.52 811.808L32.872 813.464C33 813.576 33.064 813.68 33.064 813.776C33.064 813.856 33 813.936 32.872 814.016C32.744 814.096 32.56 814.136 32.32 814.136H28.36V818.504H29.56L30.952 816.68L33.304 818.408C33.432 818.488 33.496 818.576 33.496 818.672C33.496 818.768 33.432 818.856 33.304 818.936C33.192 819.032 33.008 819.08 32.752 819.08H22.816V819.296C22.816 819.584 22.776 819.792 22.696 819.92C22.632 820.064 22.48 820.16 22.24 820.208C22.08 820.24 21.888 820.264 21.664 820.28C21.456 820.312 21.24 820.336 21.016 820.352C20.792 820.368 20.576 820.376 20.368 820.376C20.176 820.376 20.016 820.376 19.888 820.376C19.92 818.616 19.944 817.088 19.96 815.792C19.976 814.48 19.984 813.456 19.984 812.72V808.616C19.248 809.4 18.488 810.08 17.704 810.656L17.584 810.56ZM11.032 803.816H14.104C14.104 803.656 14.104 803.4 14.104 803.048C14.104 802.696 14.096 802.296 14.08 801.848C14.08 801.4 14.072 800.912 14.056 800.384C14.04 799.856 14.024 799.328 14.008 798.8L17.92 799.352L16.96 800.288V803.816H17.248L18.184 802.328L19.936 803.744C20.032 803.824 20.08 803.92 20.08 804.032C20.08 804.128 20.008 804.216 19.864 804.296C19.72 804.36 19.544 804.392 19.336 804.392H16.96V808.208C17.232 808.112 17.512 808.008 17.8 807.896C18.088 807.784 18.392 807.664 18.712 807.536L18.784 807.68C18.128 808.272 17.52 808.784 16.96 809.216V817.568C16.96 818.448 16.664 819.12 16.072 819.584C15.48 820.048 14.544 820.32 13.264 820.4C13.232 820.016 13.176 819.68 13.096 819.392C13.016 819.104 12.88 818.848 12.688 818.624C12.512 818.4 12.264 818.192 11.944 818C11.624 817.824 11.208 817.648 10.696 817.472L10.744 817.328L13.312 817.424C13.584 817.44 13.784 817.384 13.912 817.256C14.04 817.112 14.104 816.872 14.104 816.536V811.256C13.912 811.384 13.712 811.504 13.504 811.616C13.296 811.728 13.08 811.848 12.856 811.976L12.136 813.032L10.768 809.696C11.28 809.632 11.808 809.552 12.352 809.456C12.912 809.344 13.496 809.216 14.104 809.072V804.392H11.032V803.816ZM22.816 818.504H25.504V814.136H22.816V818.504ZM22.816 813.56H25.504V809.192H22.816V813.56ZM22.816 808.616H25.504V804.248H22.936L22.816 804.464V808.616ZM25.624 798.92C27.016 799.24 27.984 799.608 28.528 800.024C29.088 800.424 29.368 800.88 29.368 801.392C29.368 801.888 29.192 802.304 28.84 802.64C28.488 802.976 28.056 803.144 27.544 803.144C27.192 803.144 26.928 803.048 26.752 802.856C26.592 802.664 26.496 802.4 26.464 802.064C26.4 801.552 26.296 801.04 26.152 800.528C26.024 800 25.824 799.488 25.552 798.992L25.624 798.92ZM25.288 836.904C26.424 836.92 27.208 837.048 27.64 837.288C28.088 837.528 28.312 837.824 28.312 838.176C28.312 838.4 28.248 838.6 28.12 838.776C28.008 838.952 27.856 839.096 27.664 839.208H28.864L30.304 837.288L32.944 839.112C33.04 839.192 33.088 839.288 33.088 839.4C33.088 839.496 33.032 839.584 32.92 839.664C32.808 839.744 32.64 839.784 32.416 839.784H23.728C24.544 840.136 25.328 840.44 26.08 840.696C26.832 840.936 27.592 841.128 28.36 841.272C29.144 841.416 29.952 841.52 30.784 841.584C31.632 841.632 32.552 841.632 33.544 841.584L33.52 841.728C33.344 841.888 33.184 842.056 33.04 842.232C32.912 842.392 32.792 842.584 32.68 842.808C32.568 843.032 32.464 843.296 32.368 843.6C32.272 843.904 32.184 844.256 32.104 844.656C31.832 844.656 31.576 844.632 31.336 844.584L31.72 844.752L30.928 845.808V847.104C30.928 847.456 30.928 847.872 30.928 848.352C30.944 848.816 30.96 849.352 30.976 849.96C30.976 850.2 30.944 850.376 30.88 850.488C30.832 850.6 30.696 850.68 30.472 850.728C30.152 850.808 29.808 850.864 29.44 850.896C29.088 850.944 28.704 850.976 28.288 850.992V849.336H25.432V849.984C25.432 850.256 25.376 850.456 25.264 850.584C25.168 850.712 25 850.8 24.76 850.848C24.392 850.928 24.048 850.984 23.728 851.016C23.408 851.048 23.08 851.064 22.744 851.064C22.776 850.312 22.792 849.648 22.792 849.072C22.792 848.496 22.792 848.024 22.792 847.656V843.984L25.72 844.704H27.904L28.36 843.888C27.288 843.52 26.344 843.016 25.528 842.376C24.728 841.72 23.976 840.856 23.272 839.784H21.544C20.712 840.872 19.768 841.792 18.712 842.544C17.656 843.28 16.328 843.88 14.728 844.344L15.832 844.704H17.92L18.784 843.264L21.76 844.752L20.944 845.808V847.2C20.944 847.552 20.944 847.968 20.944 848.448C20.96 848.912 20.976 849.448 20.992 850.056C20.992 850.296 20.96 850.472 20.896 850.584C20.848 850.696 20.712 850.776 20.488 850.824C20.168 850.904 19.824 850.96 19.456 850.992C19.104 851.04 18.72 851.072 18.304 851.088V849.336H15.544V850.08C15.544 850.352 15.488 850.552 15.376 850.68C15.28 850.808 15.112 850.896 14.872 850.944C14.504 851.024 14.16 851.08 13.84 851.112C13.52 851.144 13.192 851.16 12.856 851.16C12.888 850.408 12.904 849.744 12.904 849.168C12.904 848.592 12.904 848.12 12.904 847.752V844.8C12.248 844.96 11.544 845.08 10.792 845.16L10.72 845.04C11.696 844.56 12.56 844.104 13.312 843.672C14.08 843.224 14.76 842.792 15.352 842.376C15.944 841.944 16.456 841.52 16.888 841.104C17.32 840.672 17.696 840.232 18.016 839.784H10.864V839.208H18.424C18.536 839.032 18.64 838.856 18.736 838.68C18.832 838.504 18.92 838.32 19 838.128C19.096 837.936 19.176 837.736 19.24 837.528C19.32 837.304 19.392 837.088 19.456 836.88C19.312 836.912 19.104 836.944 18.832 836.976C18.576 836.992 18.328 837 18.088 837V836.184H15.544V836.472C15.544 836.744 15.504 836.944 15.424 837.072C15.344 837.2 15.192 837.288 14.968 837.336C14.6 837.416 14.232 837.472 13.864 837.504C13.512 837.536 13.168 837.552 12.832 837.552C12.864 836.944 12.88 836.352 12.88 835.776C12.896 835.2 12.904 834.68 12.904 834.216V832.824C12.904 832.712 12.904 832.608 12.904 832.512C12.904 832.416 12.904 832.304 12.904 832.176C12.904 832.032 12.896 831.848 12.88 831.624C12.88 831.4 12.872 831.096 12.856 830.712L16.216 831.552H17.704L18.52 830.064L21.52 831.552L20.728 832.656V833.28C20.728 833.68 20.728 834.104 20.728 834.552C20.728 834.984 20.744 835.456 20.776 835.968C20.776 836.208 20.744 836.384 20.68 836.496C20.632 836.608 20.504 836.688 20.296 836.736L23.632 837.792L22.456 838.464C22.376 838.592 22.288 838.736 22.192 838.896C22.096 839.04 22.016 839.144 21.952 839.208H26.272C26.128 839.112 26.032 838.96 25.984 838.752C25.904 838.384 25.8 838.056 25.672 837.768C25.56 837.48 25.416 837.216 25.24 836.976L25.288 836.904ZM30.928 833.376C30.928 833.728 30.928 834.096 30.928 834.48C30.944 834.864 30.96 835.36 30.976 835.968C30.976 836.208 30.944 836.384 30.88 836.496C30.832 836.608 30.696 836.688 30.472 836.736C30.152 836.816 29.808 836.88 29.44 836.928C29.088 836.96 28.704 836.984 28.288 837V836.184H25.408C25.392 836.552 25.2 836.776 24.832 836.856C24.48 836.92 24.12 836.968 23.752 837C23.4 837.032 23.056 837.048 22.72 837.048C22.752 836.44 22.768 835.848 22.768 835.272C22.784 834.696 22.792 834.176 22.792 833.712V832.824C22.792 832.584 22.792 832.288 22.792 831.936C22.792 831.568 22.776 831.208 22.744 830.856L25.912 831.648H27.904L28.72 830.16L31.744 831.648L30.928 832.728V833.376ZM25.432 845.28V848.76H28.288V845.28H25.432ZM25.432 832.224V835.608H28.288V832.224H25.432ZM15.544 845.28V848.76H18.304V845.28H15.544ZM15.544 832.128V835.608H18.088V832.128H15.544Z" fill="white"/>
<path d="M1 295C3.4 295 33.3333 295 48 295" stroke="white" stroke-opacity="0.8"/>
<path d="M1 295C3.4 295 33.3333 295 48 295" stroke="white" stroke-opacity="0.8"/>
<path d="M1 1C3.4 1 33.3333 1 48 1" stroke="white" stroke-opacity="0.8"/>
<path d="M0 539C2.4 539 32.3333 539 47 539" stroke="white" stroke-opacity="0.8"/>
<path d="M1 919C3.4 919 33.3333 919 48 919" stroke="white" stroke-opacity="0.8"/>
<path d="M1 702C3.4 702 33.3333 702 48 702" stroke="white" stroke-opacity="0.8"/>
<path d="M1 127C3.4 127 33.3333 127 48 127" stroke="white" stroke-opacity="0.8"/>
</svg>
