<svg width="391" height="115" viewBox="0 0 391 115" fill="none" xmlns="http://www.w3.org/2000/svg">
<path d="M145.25 66.0625V57.5H142.062L140.281 57.5938L139.438 56.6875L141.625 56.9062H145.25V50.4375H141.688L139.906 50.5312L139.062 49.625L141.25 49.8438L151 49.8125C152.062 48.3333 152.698 47.5729 152.906 47.5312C153.135 47.4688 153.458 47.5938 153.875 47.9062C154.958 48.7812 155.615 49.3438 155.844 49.5938C156.073 49.8229 156.177 50.0208 156.156 50.1875C156.156 50.3333 156.042 50.4062 155.812 50.4062L149.344 50.4375C149.177 50.7292 148.99 50.9688 148.781 51.1562V56.9062H151C151.875 55.5938 152.438 54.9062 152.688 54.8438C152.938 54.7812 153.26 54.9062 153.656 55.2188C154.615 56.0104 155.198 56.5312 155.406 56.7812C155.615 57.0312 155.698 57.2188 155.656 57.3438C155.615 57.4479 155.469 57.5 155.219 57.5L148.781 57.5312V66.0625H151.75C151.958 65.8333 152.26 65.4792 152.656 65C153.073 64.5208 153.344 64.2188 153.469 64.0938C153.594 63.9688 153.719 63.8958 153.844 63.875C153.99 63.8542 154.219 63.9583 154.531 64.1875C155.01 64.5625 155.406 64.9062 155.719 65.2188C156.052 65.5312 156.323 65.7812 156.531 65.9688C156.76 66.1354 156.844 66.2917 156.781 66.4375C156.74 66.5625 156.573 66.625 156.281 66.625L141.375 66.6562L139.562 66.75L138.719 65.8438L140.906 66.0625H145.25ZM150.531 58.6562C153.385 59.1146 154.792 59.8646 154.75 60.9062C154.729 61.9479 154.531 62.6771 154.156 63.0938C153.802 63.4896 153.333 63.6771 152.75 63.6562C152.25 63.6562 151.865 63.5312 151.594 63.2812C151.344 63.0104 151.198 62.6979 151.156 62.3438C151.135 62.3438 151.125 62.1042 151.125 61.625C151.146 61.125 151.083 60.6875 150.938 60.3125C150.792 59.9792 150.625 59.7188 150.438 59.5312L149.906 59.125C149.698 58.9375 149.625 58.7917 149.688 58.6875C149.75 58.5833 149.875 58.5417 150.062 58.5625L150.531 58.6562ZM138.344 70.5625L138.312 71.5938C138.292 71.8438 138.104 72.0833 137.75 72.3125C137.396 72.5625 136.75 72.6562 135.812 72.5938C135.438 72.5729 135.177 72.5 135.031 72.375C134.906 72.2708 134.812 72.1042 134.75 71.875L134.938 67.1562L134.906 48.7812L134.656 44.3125C134.698 44.2708 134.729 44.25 134.75 44.25C134.792 44.2292 135.115 44.3229 135.719 44.5312L138.625 45.6562H156.75C157.354 44.7188 157.74 44.2083 157.906 44.125C158.073 44.0417 158.385 44.1042 158.844 44.3125C159.01 44.3958 159.521 44.6875 160.375 45.1875C161.25 45.6875 161.708 46.0625 161.75 46.3125C161.771 46.625 161.469 46.9688 160.844 47.3438V67L161.031 71.5938C160.969 71.7396 160.844 71.9271 160.656 72.1562C160.469 72.4062 159.719 72.5625 158.406 72.625C157.573 72.6875 157.156 72.4583 157.156 71.9375V70.5625H138.344ZM138.312 69.9375L157.156 69.9688V46.25H138.344L138.312 69.9375ZM182.725 61.1562C181.704 62.7604 180.735 64.1458 179.819 65.3125C178.902 66.4792 177.662 67.6875 176.1 68.9375L175.256 69.625C174.902 69.9167 174.631 70.0938 174.444 70.1562C174.277 70.2396 174.183 70.2396 174.162 70.1562C174.142 70.0729 174.173 69.9583 174.256 69.8125L174.787 69.1562L175.569 68.0625C176.465 66.8333 177.225 65.4375 177.85 63.875C178.496 62.3125 178.923 61.0938 179.131 60.2188L179.412 58.9688C179.454 58.7604 179.496 58.6354 179.537 58.5938C179.579 58.5521 179.704 58.5521 179.912 58.5938C180.537 58.7604 181.35 59.0625 182.35 59.5C183.35 59.9167 183.86 60.1875 183.881 60.3125C183.902 60.6458 183.517 60.9271 182.725 61.1562ZM188.475 56.2188C188.392 56.4688 188.34 56.5938 188.319 56.5938L187.569 57.1562V69.8125C187.569 70.3542 187.444 70.8542 187.194 71.3125C186.965 71.7708 186.215 72.1042 184.944 72.3125C183.673 72.5417 182.965 72.5833 182.819 72.4375C182.756 72.4167 182.704 72.3646 182.662 72.2812C182.621 72.1979 182.558 71.8125 182.475 71.125C182.412 70.4375 181.871 69.9062 180.85 69.5312L179.975 69.2188C179.621 69.1146 179.454 68.9896 179.475 68.8438C179.517 68.6979 179.715 68.6458 180.069 68.6875L181.194 68.8438C182.902 69.0938 183.85 69.1042 184.037 68.875C184.246 68.6458 184.35 68.2917 184.35 67.8125V56.1562H178.975L177.319 56.25L176.475 55.375L178.662 55.5625H190.662C191.037 55.1042 191.454 54.5833 191.912 54C192.371 53.3958 192.673 53.0833 192.819 53.0625C192.985 53.0417 193.215 53.125 193.506 53.3125C194.09 53.75 194.673 54.2708 195.256 54.875C195.84 55.4583 196.09 55.8229 196.006 55.9688C195.944 56.0938 195.798 56.1562 195.569 56.1562L188.475 56.2188ZM188.756 47.0938C189.298 46.4271 189.725 45.875 190.037 45.4375C190.371 44.9792 190.621 44.75 190.787 44.75C190.975 44.7292 191.246 44.8438 191.6 45.0938C193.246 46.3438 194.027 47.0938 193.944 47.3438C193.881 47.5938 193.767 47.7188 193.6 47.7188H180.944L179.287 47.8125L178.412 46.9062L180.6 47.0938H188.756ZM188.912 60.4688L188.412 60.0312C188.162 59.8438 188.037 59.7292 188.037 59.6875C188.058 59.625 188.183 59.5729 188.412 59.5312C188.746 59.5104 189.735 59.8542 191.381 60.5625C193.048 61.25 194.256 62.1354 195.006 63.2188C195.756 64.2812 196.131 65.2188 196.131 66.0312C196.152 66.8229 195.954 67.4583 195.537 67.9375C195.121 68.3958 194.673 68.6771 194.194 68.7812C193.715 68.8854 193.267 68.7604 192.85 68.4062C192.558 68.1771 192.36 67.9167 192.256 67.625C192.152 67.3333 191.933 66.3958 191.6 64.8125C191.287 63.2292 190.392 61.7812 188.912 60.4688ZM173.475 53.8125C175.204 55.125 176.35 56.3125 176.912 57.375C177.496 58.4375 177.787 59.5208 177.787 60.625C177.808 61.7083 177.537 62.6562 176.975 63.4688C176.392 64.3021 175.694 64.8542 174.881 65.125C174.069 65.375 173.537 65.4688 173.287 65.4062C173.183 65.4062 173.1 65.3854 173.037 65.3438C172.996 65.2812 172.965 65.125 172.944 64.875C172.923 64.6042 172.767 64.2083 172.475 63.6875C172.183 63.1667 171.881 62.8229 171.569 62.6562L171.1 62.4375C170.787 62.3125 170.662 62.1875 170.725 62.0625C170.787 61.9375 170.954 61.8854 171.225 61.9062L171.787 61.9688C172.787 62.0938 173.517 61.8854 173.975 61.3438C174.433 60.8021 174.673 60.1458 174.694 59.375C174.735 58.5833 174.6 57.8229 174.287 57.0938C173.996 56.3646 173.662 55.7292 173.287 55.1875L172.819 54.5625C172.631 54.3333 172.527 54.2083 172.506 54.1875C172.506 54.1458 172.558 53.9062 172.662 53.4688L172.912 52.2812C172.954 52.0938 173.027 51.5312 173.131 50.5938L173.506 47.9375L173.662 46.5H170.631V67L170.819 70.8438C170.735 71.1354 170.579 71.4062 170.35 71.6562C170.121 71.9062 169.496 72.0208 168.475 72C168.037 72 167.756 71.9375 167.631 71.8125C167.527 71.7083 167.454 71.5312 167.412 71.2812L167.631 67.0938V48.75L167.475 44.4062C167.558 44.3229 167.777 44.3542 168.131 44.5L171.037 45.875H173.256C173.506 45.5 173.715 45.1667 173.881 44.875C174.048 44.5833 174.215 44.4271 174.381 44.4062C174.819 44.4062 175.59 44.7292 176.694 45.375C177.798 46.0208 178.35 46.4688 178.35 46.7188C178.329 47.0312 177.892 47.3125 177.037 47.5625C176.621 48.2292 176.319 48.7188 176.131 49.0312L174.287 52.4062L173.475 53.8125ZM215.856 46.375C216.481 47.5 217.137 48.5208 217.825 49.4375C218.512 50.3542 219.929 51.5312 222.075 52.9688C224.221 54.3854 226.492 55.2083 228.887 55.4375L230.137 55.5625C230.262 55.5833 230.335 55.6562 230.356 55.7812C230.398 55.8854 230.325 55.9896 230.137 56.0938L229.45 56.5C229.033 56.75 228.606 57.0938 228.169 57.5312C227.731 57.9688 227.419 58.4479 227.231 58.9688C227.065 59.4688 226.94 59.7604 226.856 59.8438C226.773 59.9062 226.596 59.8854 226.325 59.7812C226.137 59.7396 225.867 59.6146 225.512 59.4062L224.106 58.6562C223.585 58.3646 222.762 57.7604 221.637 56.8438C220.512 55.9062 219.502 54.8229 218.606 53.5938C217.71 52.3646 216.596 50.1146 215.262 46.8438C212.367 51.4271 209.721 54.625 207.325 56.4375C204.929 58.2292 202.992 59.5312 201.512 60.3438L200.481 60.9062C200.294 61.0104 200.158 61 200.075 60.875C199.992 60.7292 200.033 60.5833 200.2 60.4375L201.137 59.6562C202.262 58.7188 203.565 57.2708 205.044 55.3125C206.523 53.3542 207.502 51.9375 207.981 51.0625C208.481 50.1667 209.033 49.0938 209.637 47.8438C210.262 46.5938 210.637 45.75 210.762 45.3125L211.075 44.2188L211.169 43.6562C211.19 43.6562 211.242 43.6562 211.325 43.6562C212.2 43.7812 213.283 44.0521 214.575 44.4688C215.887 44.8854 216.596 45.1562 216.7 45.2812C216.825 45.4062 216.887 45.5208 216.887 45.625C216.846 45.875 216.502 46.125 215.856 46.375ZM209.356 61.8438H219.481C219.752 61.4271 219.971 61.0833 220.137 60.8125C220.304 60.5208 220.45 60.3542 220.575 60.3125C220.721 60.25 220.971 60.2917 221.325 60.4375C223.408 61.3542 224.492 61.9896 224.575 62.3438C224.596 62.5938 224.325 62.9792 223.762 63.5V69.4688L223.919 71.9062C223.877 72.0729 223.794 72.2396 223.669 72.4062C223.565 72.5938 223.065 72.75 222.169 72.875L221.075 72.9688C220.325 73.0729 219.95 72.8854 219.95 72.4062V70.4688H209.044V71.8125C209.044 72.1458 208.94 72.4479 208.731 72.7188C208.544 72.9896 207.752 73.0938 206.356 73.0312C206.044 73.0312 205.804 72.9792 205.637 72.875C205.471 72.7708 205.346 72.6042 205.262 72.375L205.45 69.625L205.419 63.4375L205.231 60.1875C205.252 60.1458 205.273 60.1146 205.294 60.0938C205.335 60.0521 205.554 60.1146 205.95 60.2812L209.356 61.8438ZM209.044 69.8438H219.95V62.4375H209.044V69.8438ZM207.95 57.625L207.262 56.75L209.356 56.9375H216.356C217.419 55.5625 218.054 54.8438 218.262 54.7812C218.492 54.7188 218.794 54.8333 219.169 55.125C219.377 55.3125 219.7 55.625 220.137 56.0625C220.575 56.4792 220.867 56.7708 221.012 56.9375C221.179 57.1042 221.242 57.25 221.2 57.375C221.158 57.4792 221.012 57.5312 220.762 57.5312H209.606L207.95 57.625ZM253.363 47C252.113 48.6667 251.342 49.6562 251.05 49.9688L248.831 52.4375H257.863C258.571 51.5417 259.092 50.8854 259.425 50.4688C259.758 50.0312 259.988 49.8125 260.113 49.8125C260.258 49.7917 260.477 49.875 260.769 50.0625C261.685 50.75 262.373 51.3542 262.831 51.875C263.31 52.3958 263.529 52.7292 263.488 52.875C263.446 53 263.269 53.0625 262.956 53.0625H253.706C253.498 53.375 253.227 53.625 252.894 53.8125V59.4062L257.05 59.4375C258.279 57.8542 258.998 57.0625 259.206 57.0625C259.415 57.0417 259.665 57.1354 259.956 57.3438C261.102 58.2396 261.79 58.875 262.019 59.25C262.269 59.6042 262.373 59.8333 262.331 59.9375C262.29 60.0208 262.165 60.0625 261.956 60.0625H252.894V66.5938H258.581C259.248 65.7812 259.748 65.1875 260.081 64.8125C260.415 64.4167 260.644 64.2188 260.769 64.2188C260.915 64.1979 261.144 64.3021 261.456 64.5312C262.644 65.5312 263.352 66.1875 263.581 66.5C263.81 66.7917 263.904 66.9896 263.863 67.0938C263.821 67.1771 263.685 67.2188 263.456 67.2188H252.894V69.0938L253.081 71.9375C252.998 72.2292 252.873 72.4583 252.706 72.625C252.56 72.7917 252.238 72.9271 251.738 73.0312C251.258 73.1562 250.769 73.2292 250.269 73.25C249.769 73.2708 249.467 73.2083 249.363 73.0625C249.258 72.9167 249.185 72.75 249.144 72.5625L249.363 68.8125V53.0625H248.269C246.394 54.8333 244.883 56.1562 243.738 57.0312L242.519 57.9688C242.331 58.1146 242.185 58.1354 242.081 58.0312C241.998 57.9062 242.019 57.7708 242.144 57.625L243.238 56.3125C244.279 55.0625 245.435 53.2917 246.706 51C247.977 48.7083 248.8 46.9688 249.175 45.7812L249.581 44.4688C249.665 44.1979 249.717 44.0625 249.738 44.0625C249.758 44.0417 249.79 44.0208 249.831 44C250.123 43.9583 250.935 44.2604 252.269 44.9062C253.602 45.5312 254.321 45.9375 254.425 46.125C254.55 46.2917 254.592 46.4375 254.55 46.5625C254.467 46.7292 254.071 46.875 253.363 47ZM240.238 52.0625C241.258 52.4375 241.8 52.75 241.863 53C241.904 53.2708 241.727 53.5208 241.331 53.75V68.7812L241.519 71.75C241.394 72.0833 241.206 72.3333 240.956 72.5C240.727 72.6875 240.404 72.8021 239.988 72.8438C239.592 72.8854 239.144 72.9062 238.644 72.9062C238.144 72.9271 237.831 72.8646 237.706 72.7188C237.602 72.5729 237.55 72.3542 237.55 72.0625L237.769 69.0312V54.6562C237.123 55.1979 236.654 55.5938 236.363 55.8438L234.863 57.1562L234.081 57.8125C233.894 57.9583 233.758 57.9792 233.675 57.875C233.613 57.7708 233.633 57.6458 233.738 57.5L234.644 56.2812C235.727 54.8229 236.779 53.0417 237.8 50.9375C238.842 48.8125 239.56 47.0312 239.956 45.5938L240.3 44.3125L240.331 43.9062C240.394 43.8438 240.519 43.8229 240.706 43.8438C240.956 43.9062 241.331 44.0521 241.831 44.2812C242.331 44.4896 242.758 44.6667 243.113 44.8125C243.467 44.9375 243.883 45.1354 244.363 45.4062C244.863 45.6562 245.133 45.8646 245.175 46.0312C245.217 46.1979 245.227 46.3125 245.206 46.375C245.144 46.5 244.769 46.6667 244.081 46.875C242.748 48.7708 241.467 50.5 240.238 52.0625Z" fill="white"/>
<mask id="mask0_265_142" style="mask-type:alpha" maskUnits="userSpaceOnUse" x="9" y="9" width="373" height="97">
<rect x="9" y="9" width="373" height="97" rx="21" fill="black"/>
</mask>
<g mask="url(#mask0_265_142)">
<g filter="url(#filter0_f_265_142)">
<path d="M391.796 -1.5C391.796 37.9884 391.796 150 335.281 116.074C242.219 37.5 215.846 31.562 215.846 -7.92641C215.846 -47.4148 309.917 -73 339.049 -73C368.181 -73 391.796 -40.9884 391.796 -1.5Z" fill="#4630BF" fill-opacity="0.6"/>
</g>
<g filter="url(#filter1_f_265_142)">
<path d="M121.653 16.5264C-29.8075 73 19.4676 107.5 6.15024 107.5C-7.16708 107.5 -17.9629 30.8858 -17.9629 16.5264C-17.9629 2.16696 -7.16708 -9.47363 6.15024 -9.47363C19.4676 -9.47363 136.724 5.5 121.653 16.5264Z" fill="#803096" fill-opacity="0.6"/>
</g>
</g>
<g filter="url(#filter2_dddddddd_265_142)">
<rect x="10" y="10" width="371" height="95" rx="20" stroke="url(#paint0_linear_265_142)" stroke-width="2" shape-rendering="crispEdges"/>
</g>
<g filter="url(#filter3_dddddddd_265_142)">
<rect x="10" y="10" width="371" height="95" rx="20" stroke="url(#paint1_linear_265_142)" stroke-width="2" shape-rendering="crispEdges"/>
</g>
<rect x="10" y="10" width="371" height="95" rx="20" stroke="url(#paint2_linear_265_142)" stroke-width="2"/>
<defs>
<filter id="filter0_f_265_142" x="108.246" y="-180.6" width="391.151" height="410.587" filterUnits="userSpaceOnUse" color-interpolation-filters="sRGB">
<feFlood flood-opacity="0" result="BackgroundImageFix"/>
<feBlend mode="normal" in="SourceGraphic" in2="BackgroundImageFix" result="shape"/>
<feGaussianBlur stdDeviation="53.8" result="effect1_foregroundBlur_265_142"/>
</filter>
<filter id="filter1_f_265_142" x="-75.5629" y="-67.0736" width="256.15" height="232.174" filterUnits="userSpaceOnUse" color-interpolation-filters="sRGB">
<feFlood flood-opacity="0" result="BackgroundImageFix"/>
<feBlend mode="normal" in="SourceGraphic" in2="BackgroundImageFix" result="shape"/>
<feGaussianBlur stdDeviation="28.8" result="effect1_foregroundBlur_265_142"/>
</filter>
<filter id="filter2_dddddddd_265_142" x="9" y="9" width="373" height="97" filterUnits="userSpaceOnUse" color-interpolation-filters="sRGB">
<feFlood flood-opacity="0" result="BackgroundImageFix"/>
<feColorMatrix in="SourceAlpha" type="matrix" values="0 0 0 0 0 0 0 0 0 0 0 0 0 0 0 0 0 0 127 0" result="hardAlpha"/>
<feOffset/>
<feComposite in2="hardAlpha" operator="out"/>
<feColorMatrix type="matrix" values="0 0 0 0 1 0 0 0 0 1 0 0 0 0 1 0 0 0 1 0"/>
<feBlend mode="normal" in2="BackgroundImageFix" result="effect1_dropShadow_265_142"/>
<feColorMatrix in="SourceAlpha" type="matrix" values="0 0 0 0 0 0 0 0 0 0 0 0 0 0 0 0 0 0 127 0" result="hardAlpha"/>
<feOffset/>
<feComposite in2="hardAlpha" operator="out"/>
<feColorMatrix type="matrix" values="0 0 0 0 1 0 0 0 0 1 0 0 0 0 1 0 0 0 1 0"/>
<feBlend mode="normal" in2="effect1_dropShadow_265_142" result="effect2_dropShadow_265_142"/>
<feColorMatrix in="SourceAlpha" type="matrix" values="0 0 0 0 0 0 0 0 0 0 0 0 0 0 0 0 0 0 127 0" result="hardAlpha"/>
<feOffset/>
<feComposite in2="hardAlpha" operator="out"/>
<feColorMatrix type="matrix" values="0 0 0 0 1 0 0 0 0 1 0 0 0 0 1 0 0 0 1 0"/>
<feBlend mode="normal" in2="effect2_dropShadow_265_142" result="effect3_dropShadow_265_142"/>
<feColorMatrix in="SourceAlpha" type="matrix" values="0 0 0 0 0 0 0 0 0 0 0 0 0 0 0 0 0 0 127 0" result="hardAlpha"/>
<feOffset/>
<feComposite in2="hardAlpha" operator="out"/>
<feColorMatrix type="matrix" values="0 0 0 0 1 0 0 0 0 1 0 0 0 0 1 0 0 0 1 0"/>
<feBlend mode="normal" in2="effect3_dropShadow_265_142" result="effect4_dropShadow_265_142"/>
<feColorMatrix in="SourceAlpha" type="matrix" values="0 0 0 0 0 0 0 0 0 0 0 0 0 0 0 0 0 0 127 0" result="hardAlpha"/>
<feOffset/>
<feComposite in2="hardAlpha" operator="out"/>
<feColorMatrix type="matrix" values="0 0 0 0 1 0 0 0 0 1 0 0 0 0 1 0 0 0 1 0"/>
<feBlend mode="normal" in2="effect4_dropShadow_265_142" result="effect5_dropShadow_265_142"/>
<feColorMatrix in="SourceAlpha" type="matrix" values="0 0 0 0 0 0 0 0 0 0 0 0 0 0 0 0 0 0 127 0" result="hardAlpha"/>
<feOffset/>
<feComposite in2="hardAlpha" operator="out"/>
<feColorMatrix type="matrix" values="0 0 0 0 1 0 0 0 0 1 0 0 0 0 1 0 0 0 1 0"/>
<feBlend mode="normal" in2="effect5_dropShadow_265_142" result="effect6_dropShadow_265_142"/>
<feColorMatrix in="SourceAlpha" type="matrix" values="0 0 0 0 0 0 0 0 0 0 0 0 0 0 0 0 0 0 127 0" result="hardAlpha"/>
<feOffset/>
<feComposite in2="hardAlpha" operator="out"/>
<feColorMatrix type="matrix" values="0 0 0 0 1 0 0 0 0 1 0 0 0 0 1 0 0 0 1 0"/>
<feBlend mode="normal" in2="effect6_dropShadow_265_142" result="effect7_dropShadow_265_142"/>
<feColorMatrix in="SourceAlpha" type="matrix" values="0 0 0 0 0 0 0 0 0 0 0 0 0 0 0 0 0 0 127 0" result="hardAlpha"/>
<feOffset/>
<feComposite in2="hardAlpha" operator="out"/>
<feColorMatrix type="matrix" values="0 0 0 0 1 0 0 0 0 1 0 0 0 0 1 0 0 0 1 0"/>
<feBlend mode="normal" in2="effect7_dropShadow_265_142" result="effect8_dropShadow_265_142"/>
<feBlend mode="normal" in="SourceGraphic" in2="effect8_dropShadow_265_142" result="shape"/>
</filter>
<filter id="filter3_dddddddd_265_142" x="0.5" y="0.5" width="390" height="114" filterUnits="userSpaceOnUse" color-interpolation-filters="sRGB">
<feFlood flood-opacity="0" result="BackgroundImageFix"/>
<feColorMatrix in="SourceAlpha" type="matrix" values="0 0 0 0 0 0 0 0 0 0 0 0 0 0 0 0 0 0 127 0" result="hardAlpha"/>
<feOffset/>
<feGaussianBlur stdDeviation="4.25"/>
<feComposite in2="hardAlpha" operator="out"/>
<feColorMatrix type="matrix" values="0 0 0 0 1 0 0 0 0 1 0 0 0 0 1 0 0 0 0.18 0"/>
<feBlend mode="normal" in2="BackgroundImageFix" result="effect1_dropShadow_265_142"/>
<feColorMatrix in="SourceAlpha" type="matrix" values="0 0 0 0 0 0 0 0 0 0 0 0 0 0 0 0 0 0 127 0" result="hardAlpha"/>
<feOffset/>
<feGaussianBlur stdDeviation="4.25"/>
<feComposite in2="hardAlpha" operator="out"/>
<feColorMatrix type="matrix" values="0 0 0 0 1 0 0 0 0 1 0 0 0 0 1 0 0 0 0.18 0"/>
<feBlend mode="normal" in2="effect1_dropShadow_265_142" result="effect2_dropShadow_265_142"/>
<feColorMatrix in="SourceAlpha" type="matrix" values="0 0 0 0 0 0 0 0 0 0 0 0 0 0 0 0 0 0 127 0" result="hardAlpha"/>
<feOffset/>
<feGaussianBlur stdDeviation="4.25"/>
<feComposite in2="hardAlpha" operator="out"/>
<feColorMatrix type="matrix" values="0 0 0 0 1 0 0 0 0 1 0 0 0 0 1 0 0 0 0.18 0"/>
<feBlend mode="normal" in2="effect2_dropShadow_265_142" result="effect3_dropShadow_265_142"/>
<feColorMatrix in="SourceAlpha" type="matrix" values="0 0 0 0 0 0 0 0 0 0 0 0 0 0 0 0 0 0 127 0" result="hardAlpha"/>
<feOffset/>
<feGaussianBlur stdDeviation="4.25"/>
<feComposite in2="hardAlpha" operator="out"/>
<feColorMatrix type="matrix" values="0 0 0 0 1 0 0 0 0 1 0 0 0 0 1 0 0 0 0.18 0"/>
<feBlend mode="normal" in2="effect3_dropShadow_265_142" result="effect4_dropShadow_265_142"/>
<feColorMatrix in="SourceAlpha" type="matrix" values="0 0 0 0 0 0 0 0 0 0 0 0 0 0 0 0 0 0 127 0" result="hardAlpha"/>
<feOffset/>
<feGaussianBlur stdDeviation="4.25"/>
<feComposite in2="hardAlpha" operator="out"/>
<feColorMatrix type="matrix" values="0 0 0 0 1 0 0 0 0 1 0 0 0 0 1 0 0 0 0.18 0"/>
<feBlend mode="normal" in2="effect4_dropShadow_265_142" result="effect5_dropShadow_265_142"/>
<feColorMatrix in="SourceAlpha" type="matrix" values="0 0 0 0 0 0 0 0 0 0 0 0 0 0 0 0 0 0 127 0" result="hardAlpha"/>
<feOffset/>
<feGaussianBlur stdDeviation="4.25"/>
<feComposite in2="hardAlpha" operator="out"/>
<feColorMatrix type="matrix" values="0 0 0 0 1 0 0 0 0 1 0 0 0 0 1 0 0 0 0.18 0"/>
<feBlend mode="normal" in2="effect5_dropShadow_265_142" result="effect6_dropShadow_265_142"/>
<feColorMatrix in="SourceAlpha" type="matrix" values="0 0 0 0 0 0 0 0 0 0 0 0 0 0 0 0 0 0 127 0" result="hardAlpha"/>
<feOffset/>
<feGaussianBlur stdDeviation="4.25"/>
<feComposite in2="hardAlpha" operator="out"/>
<feColorMatrix type="matrix" values="0 0 0 0 1 0 0 0 0 1 0 0 0 0 1 0 0 0 0.18 0"/>
<feBlend mode="normal" in2="effect6_dropShadow_265_142" result="effect7_dropShadow_265_142"/>
<feColorMatrix in="SourceAlpha" type="matrix" values="0 0 0 0 0 0 0 0 0 0 0 0 0 0 0 0 0 0 127 0" result="hardAlpha"/>
<feOffset/>
<feGaussianBlur stdDeviation="4.25"/>
<feComposite in2="hardAlpha" operator="out"/>
<feColorMatrix type="matrix" values="0 0 0 0 1 0 0 0 0 1 0 0 0 0 1 0 0 0 0.18 0"/>
<feBlend mode="normal" in2="effect7_dropShadow_265_142" result="effect8_dropShadow_265_142"/>
<feBlend mode="normal" in="SourceGraphic" in2="effect8_dropShadow_265_142" result="shape"/>
</filter>
<linearGradient id="paint0_linear_265_142" x1="27.4616" y1="2" x2="384.45" y2="65.3292" gradientUnits="userSpaceOnUse">
<stop stop-color="#803096"/>
<stop offset="0.961854" stop-color="#4630BF"/>
</linearGradient>
<linearGradient id="paint1_linear_265_142" x1="27.4616" y1="2" x2="384.45" y2="65.3292" gradientUnits="userSpaceOnUse">
<stop stop-color="#803096"/>
<stop offset="0.961854" stop-color="#4630BF"/>
</linearGradient>
<linearGradient id="paint2_linear_265_142" x1="27.4616" y1="2" x2="384.45" y2="65.3292" gradientUnits="userSpaceOnUse">
<stop stop-color="#803096"/>
<stop offset="0.961854" stop-color="#4630BF"/>
</linearGradient>
</defs>
</svg>
