<svg width="513" height="115" viewBox="0 0 513 115" fill="none" xmlns="http://www.w3.org/2000/svg">
<path d="M80.6562 50.9375C81.1562 51.3333 81.5729 51.7083 81.9062 52.0625C82.2604 52.4167 82.5 52.8542 82.625 53.375C82.7708 53.875 82.75 54.3958 82.5625 54.9375C82.375 55.4792 81.9062 55.75 81.1562 55.75C80.4062 55.7292 79.9479 55.5417 79.7812 55.1875C79.6354 54.8333 79.5833 54.5 79.625 54.1875L79.8125 53.2812C79.875 52.9479 79.8958 52.5625 79.875 52.125C79.8542 51.8542 79.8229 51.6146 79.7812 51.4062C79.7396 51.1979 79.6771 51.0208 79.5938 50.875C79.5312 50.7083 79.5208 50.5938 79.5625 50.5312C79.625 50.4479 79.75 50.4479 79.9375 50.5312L80.6562 50.9375ZM76.2188 58.0625L74.6562 58.1562L73.8125 57.25L75.9688 57.4375H76.1562C76.1979 56.0208 76.2188 54.9479 76.2188 54.2188L76.1562 50.8438L76.125 48.5312L76.0312 47.4062C76.0729 47.3438 76.1354 47.2917 76.2188 47.25L77 47.5938L79.2812 48.5312C79.4062 47.8021 79.5 47.1146 79.5625 46.4688C79.625 45.8229 79.6562 45.3125 79.6562 44.9375V44.0938C79.6562 43.7812 79.6667 43.5938 79.6875 43.5312C79.7083 43.4688 79.8854 43.4688 80.2188 43.5312C80.3021 43.5729 80.9271 43.6979 82.0938 43.9062C83.2812 44.0938 83.875 44.3646 83.875 44.7188C83.8542 45.0104 83.5417 45.2292 82.9375 45.375C82.3333 46.2708 81.6979 47.3229 81.0312 48.5312H82.875C83.3125 47.7188 83.6146 47.2917 83.7812 47.25C83.9688 47.2083 84.2188 47.2604 84.5312 47.4062C86.1562 48.2188 86.9896 48.7604 87.0312 49.0312C87.0521 49.2812 86.8333 49.5521 86.375 49.8438V70.125C86.375 70.8125 86.2604 71.3125 86.0312 71.625C85.8021 71.9375 85.3542 72.2188 84.6875 72.4688C84.0417 72.7396 83.375 72.8646 82.6875 72.8438C82.3333 72.8438 82.1146 72.7917 82.0312 72.6875C81.9688 72.6042 81.9062 72.2812 81.8438 71.7188C81.8021 71.1562 81.2604 70.6667 80.2188 70.25L79.25 69.875C79.0208 69.8125 78.9479 69.7083 79.0312 69.5625C79.1146 69.4167 79.2812 69.3542 79.5312 69.375L80.6562 69.5C81.8438 69.6458 82.5104 69.6979 82.6562 69.6562C83.0312 69.5938 83.2188 69.3646 83.2188 68.9688V58.0625H79.0938C79.0729 59 79.0521 59.8646 79.0312 60.6562C79.0104 61.4479 78.9479 62.3854 78.8438 63.4688C78.7396 64.5521 78.4479 65.7812 77.9688 67.1562C77.5104 68.5312 76.6562 69.9375 75.4062 71.375L74.5312 72.375C74.3229 72.6042 74.1562 72.6562 74.0312 72.5312C73.9062 72.4062 73.8958 72.2396 74 72.0312L74.5625 70.8125C74.8542 70.1875 75.1042 69.4896 75.3125 68.7188C75.5208 67.9688 75.6771 67.2604 75.7812 66.5938C75.9062 65.9271 76.0104 64.9167 76.0938 63.5625C76.1771 62.2083 76.2188 61.0312 76.2188 60.0312V58.0625ZM79.0938 57.4375H83.2188V49.125H79.0938V53.2812V57.4375ZM80.5625 59.4688C81.5 60.1562 82.1458 60.7812 82.5 61.3438C82.875 61.9062 82.9583 62.5208 82.75 63.1875C82.5417 63.8542 82.1146 64.2812 81.4688 64.4688C80.8438 64.6562 80.3854 64.5833 80.0938 64.25C79.8021 63.9167 79.6771 63.5208 79.7188 63.0625L79.9062 62.1562C79.9479 61.9062 79.9688 61.5521 79.9688 61.0938C79.9896 60.6354 79.9167 60.2396 79.75 59.9062C79.5833 59.5729 79.4896 59.3125 79.4688 59.125C79.4688 58.9375 79.6771 58.9583 80.0938 59.1875L80.5625 59.4688ZM95.0312 54.875H92.4688C92.4271 56.1042 92.3646 57.8229 92.2812 60.0312C92.2188 62.2396 92.0417 63.9583 91.75 65.1875C91.4792 66.3958 91.0312 67.5521 90.4062 68.6562C89.8021 69.7604 88.6042 70.9479 86.8125 72.2188L86.0625 72.75C85.8333 72.9167 85.6667 72.9375 85.5625 72.8125C85.4792 72.7083 85.4896 72.5938 85.5938 72.4688L86.4688 71.375C87.8021 69.7083 88.5729 67.6146 88.7812 65.0938C89.0104 62.5521 89.125 60.6771 89.125 59.4688C89.1458 58.2396 89.125 56.9896 89.0625 55.7188L88.9688 54.0312L88.875 53.1875C88.9167 53.0625 89.1354 53.0625 89.5312 53.1875L92.6562 54.2812H94.75C95.2083 53.4896 95.5312 53.0625 95.7188 53C95.9062 52.9167 96.2708 53 96.8125 53.25C98.0625 53.9167 98.7812 54.3021 98.9688 54.4062C99.1771 54.5104 99.3021 54.6146 99.3438 54.7188C99.3854 54.9688 99.0833 55.3333 98.4375 55.8125V67.875C98.4375 68.2292 98.4792 68.5312 98.5625 68.7812C98.6667 69.0312 98.9479 69.1354 99.4062 69.0938C100.177 69.0521 100.719 68.9062 101.031 68.6562C101.365 68.4062 101.812 67.3125 102.375 65.375L102.75 64.0312C102.812 63.7604 102.927 63.6354 103.094 63.6562C103.26 63.6562 103.333 63.7812 103.312 64.0312L103.125 65.4688C103 66.4062 102.927 66.9062 102.906 66.9688C102.906 67.0104 102.917 67.3125 102.938 67.875C102.938 68.2708 102.958 68.5208 103 68.625C103.042 68.75 103.25 69.0521 103.625 69.5312C104 70.0104 104.031 70.5208 103.719 71.0625C103.531 71.3958 103.125 71.7083 102.5 72C101.875 72.2917 100.365 72.3958 97.9688 72.3125C96.8438 72.2917 96.0729 72.1042 95.6562 71.75C95.2396 71.3958 95.0312 70.8333 95.0312 70.0625V54.875ZM98.6562 49.9688C99.3021 49.1979 99.7812 48.6042 100.094 48.1875C100.427 47.7708 100.688 47.5625 100.875 47.5625C101.062 47.5417 101.344 47.6875 101.719 48C102.448 48.6667 102.99 49.1979 103.344 49.5938C103.719 49.9896 103.885 50.2604 103.844 50.4062C103.802 50.5312 103.698 50.5938 103.531 50.5938H89.2812L87.5 50.6875L86.6562 49.7812L88.875 49.9688H98.6562ZM92.3125 43.8438C93.125 44.0938 93.9896 44.4479 94.9062 44.9062C95.8229 45.3438 96.2708 46.1562 96.25 47.3438C96.2292 47.9688 96.0312 48.4792 95.6562 48.875C95.2812 49.2708 94.7396 49.5208 94.0312 49.625C93.3229 49.7083 92.8542 49.5521 92.625 49.1562C92.3958 48.7604 92.2917 48.3438 92.3125 47.9062L92.375 47.0312C92.3958 46.5312 92.3333 46.0625 92.1875 45.625C92.0417 45.25 91.8229 44.9271 91.5312 44.6562C91.2604 44.3646 91.0833 44.1562 91 44.0312C90.9375 43.9062 90.9375 43.8021 91 43.7188C91.0625 43.6146 91.25 43.5938 91.5625 43.6562L92.3125 43.8438ZM107.756 55.9062L109.569 56.0938H119.225C119.267 55.5312 119.298 55.0521 119.319 54.6562C119.34 54.2396 119.371 53.4792 119.412 52.375C119.454 51.2708 119.475 50.4896 119.475 50.0312L119.412 47.9688H111.069L109.787 48.0625L109.006 47.1562L110.6 47.3438H128.975C129.725 46.4271 130.256 45.7604 130.569 45.3438C130.881 44.9271 131.11 44.7188 131.256 44.7188C131.402 44.6979 131.662 44.8438 132.037 45.1562L133.225 46.125C133.371 46.2708 133.642 46.5521 134.037 46.9688C134.454 47.3646 134.642 47.6354 134.6 47.7812C134.558 47.9062 134.412 47.9688 134.162 47.9688H124.256C124.152 48.2812 123.933 48.5729 123.6 48.8438C123.392 51.4062 123.215 53.8229 123.069 56.0938H130.35C130.6 55.7604 130.912 55.3646 131.287 54.9062C131.662 54.4479 131.965 54.0729 132.194 53.7812C132.423 53.4688 132.621 53.3125 132.787 53.3125C132.954 53.2917 133.204 53.4271 133.537 53.7188L134.756 54.75C135.027 55 135.35 55.3125 135.725 55.6875C136.1 56.0417 136.256 56.3021 136.194 56.4688C136.131 56.6146 135.985 56.6875 135.756 56.6875L123.725 56.7188C124.725 59.4896 125.944 61.5625 127.381 62.9375C128.819 64.3125 130.308 65.4479 131.85 66.3438C133.392 67.2188 134.933 67.7604 136.475 67.9688L137.131 68.0312C137.298 68.0729 137.392 68.1562 137.412 68.2812C137.454 68.4271 137.371 68.5312 137.162 68.5938L136.475 68.8438C136.308 68.9062 136.006 69.0729 135.569 69.3438C135.131 69.6146 134.777 69.9062 134.506 70.2188C134.235 70.5521 133.996 70.9375 133.787 71.375C133.6 71.8333 133.454 72.0833 133.35 72.125C133.246 72.1667 133.1 72.1354 132.912 72.0312C128.162 69.7812 125.392 67.1771 124.6 64.2188C123.829 61.2604 123.319 58.75 123.069 56.6875H122.975C122.85 57.3542 122.683 58.2812 122.475 59.4688C122.287 60.6354 121.798 62.2292 121.006 64.25C120.235 66.25 118.621 67.9375 116.162 69.3125C113.725 70.6875 111.683 71.6146 110.037 72.0938L109.1 72.375C108.829 72.4583 108.621 72.5104 108.475 72.5312C108.329 72.5521 108.225 72.5 108.162 72.375C108.121 72.25 108.215 72.1042 108.444 71.9375L108.85 71.75L109.6 71.375C113.787 69.2917 116.35 66.8438 117.287 64.0312C118.246 61.2188 118.86 58.7708 119.131 56.6875H110.131L108.537 56.7812L107.756 55.9062ZM146.7 54.7812H142.981L141.794 54.875L140.981 54L142.512 54.1562H147.075V48.75C144.804 48.875 143.273 48.8958 142.481 48.8125L141.856 48.75H141.481C141.294 48.7292 141.19 48.6562 141.169 48.5312C141.169 48.4062 141.398 48.2917 141.856 48.1875L142.356 48.0938C143.398 47.9062 144.721 47.5208 146.325 46.9375C147.95 46.3542 149.2 45.7917 150.075 45.25L150.544 44.9688L151.075 44.625C151.2 44.6458 151.648 44.9583 152.419 45.5625C153.19 46.1667 153.679 46.5729 153.887 46.7812C154.117 46.9896 154.356 47.2292 154.606 47.5C154.877 47.75 154.992 47.9167 154.95 48C154.929 48.0833 154.887 48.1354 154.825 48.1562L154.231 48.1875L153.419 48.2812L152.356 48.375L150.825 48.5312C150.721 48.8229 150.554 49.0833 150.325 49.3125V54.1562H150.856C151.335 53.5938 151.742 53.0833 152.075 52.625C152.429 52.1458 152.669 51.9062 152.794 51.9062C152.919 51.8854 153.117 51.9896 153.387 52.2188L154.45 53.0938C155.387 53.9271 155.815 54.4167 155.731 54.5625C155.648 54.7083 155.533 54.7812 155.387 54.7812H150.325V57.875C150.658 57.9167 150.992 57.9688 151.325 58.0312C151.658 58.0729 152.481 58.2917 153.794 58.6875C155.106 59.0833 155.69 59.7917 155.544 60.8125C155.398 61.8333 155.065 62.5729 154.544 63.0312C154.023 63.4688 153.512 63.5521 153.012 63.2812C152.512 63.0104 152.2 62.7604 152.075 62.5312C151.95 62.2812 151.856 61.9167 151.794 61.4375C151.731 60.9375 151.627 60.5 151.481 60.125C151.356 59.75 150.971 59.25 150.325 58.625V68.5L150.45 71.7188C150.408 72.0312 150.294 72.3125 150.106 72.5625C149.94 72.8333 149.429 72.9896 148.575 73.0312C147.742 73.0938 147.262 73.0625 147.137 72.9375C147.012 72.8125 146.929 72.6667 146.887 72.5L147.075 68.125V62.0625C146.596 62.625 146.179 63.0938 145.825 63.4688C145.492 63.8438 144.971 64.3542 144.262 65C143.575 65.625 143.117 66.0521 142.887 66.2812C142.679 66.5104 142.523 66.6667 142.419 66.75L141.887 67.1562L141.7 67.3438C141.533 67.4896 141.387 67.5312 141.262 67.4688C141.158 67.3854 141.2 67.1771 141.387 66.8438L141.575 66.5625L141.887 66.0312C141.887 66.0104 142.117 65.6354 142.575 64.9062C143.054 64.1771 143.575 63.1979 144.137 61.9688C144.721 60.7188 145.179 59.6042 145.512 58.625C145.867 57.6458 146.262 56.3646 146.7 54.7812ZM150.919 64.375L152.544 64.0938L162.044 62.2188V47.4375L161.856 43.9375C161.96 43.9167 162.148 43.9062 162.419 43.9062C165.065 44.1146 166.45 44.4375 166.575 44.875C166.637 45.125 166.304 45.5104 165.575 46.0312V61.4688L166.419 61.25C167.19 59.4375 167.658 58.5104 167.825 58.4688C167.992 58.4271 168.21 58.4792 168.481 58.625C169.127 58.9792 169.533 59.2083 169.7 59.3125L170.887 60.0938C171.262 60.3229 171.429 60.5 171.387 60.625C171.367 60.75 171.273 60.8229 171.106 60.8438L165.575 62.0625V67.9688L165.731 72.0312C165.669 72.3854 165.533 72.6771 165.325 72.9062C165.117 73.1354 164.533 73.2708 163.575 73.3125C162.783 73.375 162.304 73.3125 162.137 73.125C161.992 72.9375 161.898 72.7292 161.856 72.5L162.044 68.3438V62.8125L153.262 64.5625L151.762 64.875L150.919 64.375ZM155.919 56.2188L155.481 55.75C155.085 55.3542 155.231 55.1875 155.919 55.25C157.981 55.4792 159.262 55.9792 159.762 56.75C160.262 57.5208 160.512 58.1562 160.512 58.6562C160.533 59.1562 160.346 59.6667 159.95 60.1875C159.575 60.6875 158.981 60.9271 158.169 60.9062C157.627 60.9062 157.221 60.7708 156.95 60.5C156.7 60.2083 156.554 59.8229 156.512 59.3438V58.2812C156.492 57.9271 156.429 57.5521 156.325 57.1562C156.242 56.7604 156.106 56.4479 155.919 56.2188ZM156.294 48.5625L155.856 48.125C155.669 47.9583 155.596 47.8333 155.637 47.75C155.679 47.6458 155.877 47.5938 156.231 47.5938C156.565 47.6146 156.898 47.6458 157.231 47.6875C157.565 47.7292 158.096 47.875 158.825 48.125C159.575 48.375 160.117 48.7396 160.45 49.2188C160.804 49.6771 161.002 50.1667 161.044 50.6875C161.106 51.2083 160.971 51.7292 160.637 52.25C160.304 52.7708 159.783 53.0417 159.075 53.0625C158.387 53.0833 157.908 52.9583 157.637 52.6875C157.387 52.4792 157.221 52.1354 157.137 51.6562L157.044 50.5938C157.002 50.2396 156.919 49.875 156.794 49.5C156.669 49.1042 156.502 48.7917 156.294 48.5625ZM188.425 56.3125L186.925 56.4062L186.175 55.5312L188.456 55.7188H191.581V50.9688H189.394L187.581 51.0312L186.831 50.125L189.144 50.3438H191.581V47.3438L191.456 44.2188C191.602 44.1979 191.821 44.1875 192.113 44.1875C194.842 44.375 196.154 44.6771 196.05 45.0938C195.946 45.5104 195.581 45.875 194.956 46.1875V50.3438H198.613C199.779 48.7604 200.508 47.9688 200.8 47.9688C201.029 47.9896 201.56 48.4167 202.394 49.25C203.248 50.0833 203.633 50.5833 203.55 50.75C203.467 50.8958 203.363 50.9688 203.238 50.9688H194.956V55.7188H196.675L197.425 54.6875C197.571 54.4792 197.779 54.3542 198.05 54.3125C198.321 54.2708 199.008 54.6042 200.113 55.3125C201.238 56.0208 201.81 56.5 201.831 56.75C201.831 57.0833 201.456 57.375 200.706 57.625C199.644 60.3333 198.842 62.1875 198.3 63.1875C197.758 64.1875 197.05 65.25 196.175 66.375C197.404 67.1042 198.352 67.5938 199.019 67.8438C199.685 68.0729 200.456 68.2812 201.331 68.4688C202.227 68.6771 202.779 68.7812 202.988 68.7812L204.394 68.8438C204.498 68.8646 204.571 68.9167 204.613 69C204.654 69.0833 204.665 69.1354 204.644 69.1562C204.644 69.1979 204.508 69.2812 204.238 69.4062L203.456 69.7812C203.227 69.9062 202.852 70.1979 202.331 70.6562C201.831 71.1146 201.488 71.5729 201.3 72.0312C201.113 72.5104 200.977 72.7604 200.894 72.7812C200.831 72.8229 200.706 72.8125 200.519 72.75C199.519 72.4792 198.727 72.1458 198.144 71.75C197.56 71.375 196.863 70.875 196.05 70.25C195.258 69.6458 194.633 69.0938 194.175 68.5938C192.758 69.5312 191.456 70.2812 190.269 70.8438C189.102 71.4062 187.321 71.8333 184.925 72.125L183.394 72.3125C182.79 72.3958 182.425 72.4271 182.3 72.4062C182.175 72.3854 182.102 72.3229 182.081 72.2188C182.081 72.1354 182.269 72.0312 182.644 71.9062L183.831 71.5625C184.602 71.3542 185.81 70.7812 187.456 69.8438C189.102 68.9271 190.654 67.7708 192.113 66.375C191.196 64.9375 190.633 64.0208 190.425 63.625C190.238 63.2083 189.988 62.5729 189.675 61.7188C189.383 60.8646 189.144 60.0833 188.956 59.375C188.769 58.6458 188.592 57.625 188.425 56.3125ZM196.956 56.3125H189.019C189.331 57.6042 189.675 58.6667 190.05 59.5C190.446 60.3333 190.894 61.1146 191.394 61.8438C191.894 62.5729 192.644 63.4271 193.644 64.4062C194.498 63.1354 195.165 61.8438 195.644 60.5312C196.123 59.1979 196.56 57.7917 196.956 56.3125ZM179.425 58.6562V51.5625H177.175L175.55 51.6562L174.894 50.8125L176.644 50.9688H179.425V47.1562L179.3 44.0312C179.425 44.0104 179.644 44 179.956 44C180.415 44.0417 181.113 44.1562 182.05 44.3438C182.988 44.5104 183.519 44.6771 183.644 44.8438C183.769 45.0104 183.821 45.1667 183.8 45.3125C183.738 45.5625 183.394 45.8229 182.769 46.0938V50.9688H182.988C183.654 49.9479 184.081 49.3438 184.269 49.1562C184.456 48.9479 184.738 48.9688 185.113 49.2188C185.279 49.3646 185.519 49.5938 185.831 49.9062C186.144 50.2188 186.415 50.4896 186.644 50.7188C186.894 50.9271 186.998 51.125 186.956 51.3125C186.935 51.4792 186.842 51.5625 186.675 51.5625H182.769V57.875C183.935 57.625 184.717 57.4479 185.113 57.3438L186.175 57.0625L186.863 56.875C187.092 56.9167 187.154 57.0104 187.05 57.1562C186.946 57.3021 186.81 57.4271 186.644 57.5312L185.988 57.9688L184.55 58.8125L182.769 59.9062V69.9688C182.769 70.4271 182.613 70.9375 182.3 71.5C182.008 72.0833 180.956 72.4688 179.144 72.6562C178.873 72.6979 178.685 72.6875 178.581 72.625C178.498 72.5625 178.435 72.5 178.394 72.4375C178.352 72.375 178.3 72.0625 178.238 71.5C178.196 70.9583 177.581 70.4375 176.394 69.9375L175.55 69.5938C175.342 69.5312 175.248 69.4375 175.269 69.3125C175.31 69.2083 175.415 69.1562 175.581 69.1562L176.519 69.1875L177.363 69.2812C177.508 69.3021 177.821 69.3021 178.3 69.2812C178.717 69.2812 179.008 69.2083 179.175 69.0625C179.342 68.9375 179.425 68.6979 179.425 68.3438V61.8438C178.05 62.6562 177.29 63.1042 177.144 63.1875L176.269 63.7188L175.956 63.9375C175.852 63.9792 175.779 63.9896 175.738 63.9688C175.717 63.9479 175.685 63.8125 175.644 63.5625L174.894 60C174.831 59.7083 174.8 59.5417 174.8 59.5C174.821 59.4375 174.842 59.3958 174.863 59.375L175.675 59.3125L176.831 59.125C178.206 58.9167 179.071 58.7604 179.425 58.6562ZM216.431 49.9688H232.15C232.733 49.1146 233.202 48.4479 233.556 47.9688C233.91 47.4896 234.181 47.25 234.369 47.25C234.556 47.2292 234.806 47.3229 235.119 47.5312C236.181 48.3021 236.921 48.9583 237.337 49.5C237.775 50.0417 237.962 50.3542 237.9 50.4375C237.858 50.5208 237.744 50.5625 237.556 50.5625H216.087C216.067 51.6875 216.035 53.2708 215.994 55.3125C215.973 57.3333 215.869 59.25 215.681 61.0625C215.515 62.8542 215.275 64.3438 214.962 65.5312C214.671 66.7188 214.192 67.7604 213.525 68.6562C212.879 69.5521 212.15 70.3646 211.337 71.0938C210.546 71.8438 209.983 72.3229 209.65 72.5312L209.212 72.8125C208.942 72.9792 208.775 73.0208 208.712 72.9375C208.65 72.8542 208.681 72.7083 208.806 72.5L209.4 71.6562C210.317 70.3438 210.952 68.9688 211.306 67.5312C211.681 66.0938 211.9 64.7917 211.962 63.625C212.046 62.4583 212.087 60.4271 212.087 57.5312C212.108 54.6354 212.098 52.7396 212.056 51.8438L211.931 49.5625L211.806 48.0625C211.848 47.9167 211.994 47.8958 212.244 48L216.431 49.9688ZM227.931 71.4688H232.275C232.796 70.7396 233.233 70.1042 233.587 69.5625C233.942 69.0208 234.254 68.7396 234.525 68.7188C234.692 68.7188 235.015 68.8958 235.494 69.25C235.994 69.625 236.556 70.125 237.181 70.75C237.827 71.3958 238.087 71.7812 237.962 71.9062C237.858 72.0312 237.733 72.0938 237.587 72.0938H216.306L213.681 72.1875L212.837 71.2812L215.806 71.4688L225.962 71.5C226.192 71.1875 226.442 70.8125 226.712 70.375C227.004 69.9375 227.442 68.8021 228.025 66.9688L230.4 59.4688C230.629 58.6354 230.962 57.3021 231.4 55.4688L231.681 54.2812L231.775 53.5312C231.858 53.4062 232.046 53.375 232.337 53.4375C232.817 53.5833 233.515 53.8438 234.431 54.2188C235.369 54.5938 236.046 54.9167 236.462 55.1875C236.9 55.4583 237.119 55.6875 237.119 55.875C237.14 56.0417 237.004 56.2083 236.712 56.375C236.608 56.4375 236.296 56.5417 235.775 56.6875C235.504 57.25 235.192 57.8854 234.837 58.5938C234.483 59.3021 234.233 59.8229 234.087 60.1562L231.306 66C230.306 67.9583 229.181 69.7812 227.931 71.4688ZM218.337 57.125C219.15 58 219.806 58.8125 220.306 59.5625C220.827 60.2917 221.223 61.0938 221.494 61.9688C221.785 62.8438 221.921 63.5938 221.9 64.2188C221.858 64.8438 221.619 65.5417 221.181 66.3125C220.765 67.0833 220.16 67.4167 219.369 67.3125C218.577 67.1875 218.025 66.9271 217.712 66.5312C217.4 66.1354 217.296 65.625 217.4 65C217.421 64.875 217.462 64.7083 217.525 64.5L217.962 63.25C218.025 62.9792 218.077 62.6354 218.119 62.2188C218.181 61.8021 218.212 61.3646 218.212 60.9062C218.192 60.2396 218.108 59.6562 217.962 59.1562C217.837 58.6562 217.671 58.1667 217.462 57.6875C217.254 57.1875 217.098 56.8646 216.994 56.7188C216.89 56.5521 216.848 56.4375 216.869 56.375C216.91 56.2917 216.973 56.2292 217.056 56.1875C217.223 56.125 217.65 56.4375 218.337 57.125ZM222.494 43.7188C224.785 44.0312 226.16 44.5625 226.619 45.3125C227.098 46.0625 227.337 46.6458 227.337 47.0625C227.358 47.4583 227.317 47.8021 227.212 48.0938C226.879 48.9896 226.212 49.4792 225.212 49.5625C224.358 49.6458 223.796 49.5312 223.525 49.2188C223.254 48.8854 223.087 48.5312 223.025 48.1562C222.962 47.7812 222.921 47.3125 222.9 46.75C222.9 46.1875 222.837 45.7292 222.712 45.375C222.608 45.0208 222.4 44.7083 222.087 44.4375C221.796 44.1458 221.671 43.9479 221.712 43.8438C221.733 43.6979 221.994 43.6562 222.494 43.7188ZM223.212 53.75C225.671 55.9167 227.056 57.6562 227.369 58.9688C227.702 60.2812 227.837 61.1875 227.775 61.6875C227.692 62.2083 227.442 62.7604 227.025 63.3438C226.608 63.9271 225.91 64.125 224.931 63.9375C223.89 63.7708 223.369 63.1042 223.369 61.9375C223.348 61.7708 223.39 61.3125 223.494 60.5625C223.619 59.8125 223.681 59.2083 223.681 58.75C223.66 58.3125 223.546 57.5833 223.337 56.5625C223.15 55.5208 222.879 54.7708 222.525 54.3125C222.171 53.8333 221.952 53.5312 221.869 53.4062C221.785 53.2604 221.827 53.1458 221.994 53.0625C222.16 52.9792 222.567 53.2083 223.212 53.75ZM251.219 45.9688H264.844C265.135 45.5104 265.385 45.1354 265.594 44.8438C265.802 44.5312 265.99 44.3542 266.156 44.3125C266.406 44.2917 267.115 44.5938 268.281 45.2188C269.469 45.8229 270.073 46.2396 270.094 46.4688C270.094 46.5938 269.76 46.9375 269.094 47.5V69.4062C269.094 70.4479 269 71.1562 268.812 71.5312C268.646 71.9271 268.219 72.2188 267.531 72.4062C266.865 72.5938 266.052 72.7188 265.094 72.7812C264.698 72.8229 264.417 72.8021 264.25 72.7188C264.104 72.6354 264.01 72.5521 263.969 72.4688C263.927 72.3854 263.875 72.0312 263.812 71.4062C263.771 70.7812 263.135 70.2708 261.906 69.875L260.906 69.5625C260.635 69.5 260.521 69.3854 260.562 69.2188C260.604 69.0521 260.74 68.9792 260.969 69L262.469 69.1562C262.927 69.2188 263.521 69.2292 264.25 69.1875C264.688 69.1875 264.969 69.0938 265.094 68.9062C265.24 68.7396 265.312 68.4271 265.312 67.9688V60.7188H259.344V66.75L259.469 70.25C259.427 70.5417 259.302 70.8646 259.094 71.2188C258.885 71.5729 258.354 71.7708 257.5 71.8125C256.667 71.8542 256.156 71.7917 255.969 71.625C255.781 71.4583 255.646 71.1875 255.562 70.8125L255.75 66.7812V60.7188H250.188C250.104 61.2396 249.958 62.1458 249.75 63.4375C249.542 64.7083 248.865 66.0833 247.719 67.5625C246.573 69.0208 245.24 70.3542 243.719 71.5625L243.406 71.8125C243.01 72.1458 242.75 72.2604 242.625 72.1562C242.521 72.0521 242.562 71.8438 242.75 71.5312L243.062 71.1562L243.344 70.7812C244.365 69.4271 245.083 68.125 245.5 66.875C245.917 65.6042 246.208 64.2708 246.375 62.875C246.562 61.4583 246.667 60.0729 246.688 58.7188C246.708 57.3438 246.719 55.4375 246.719 53C246.698 50.6458 246.677 49.125 246.656 48.4375C246.656 47.75 246.635 47.1667 246.594 46.6875L246.438 45.1562L246.312 44.2812C246.354 44.2396 246.479 44.25 246.688 44.3125L251.219 45.9688ZM250.219 60.0938H255.75V53.625H250.375C250.333 55.5417 250.312 56.7083 250.312 57.125L250.219 60.0938ZM250.406 53H255.75V46.5625H250.406V53ZM259.344 60.0938H265.312V53.625H259.344V60.0938ZM259.344 53H265.312V46.5625H259.844L259.781 46.8438L259.344 47.3438V53ZM292.1 63.0312C293.329 61.4271 294.058 60.6146 294.288 60.5938C294.538 60.5729 294.829 60.6875 295.163 60.9375C295.433 61.1875 295.694 61.4375 295.944 61.6875C296.194 61.9167 296.527 62.25 296.944 62.6875C297.36 63.1042 297.538 63.375 297.475 63.5C297.413 63.6042 297.308 63.6562 297.163 63.6562H279.475L277.506 63.7188L276.506 62.8438L278.6 63.0312H292.1ZM286.225 45.6875L285.85 49.375H298.975C300.183 47.7292 300.902 46.8854 301.131 46.8438C301.36 46.8021 301.6 46.8542 301.85 47C302.058 47.1458 302.454 47.4896 303.038 48.0312C303.642 48.5521 304.058 48.9479 304.288 49.2188C304.538 49.4688 304.642 49.6667 304.6 49.8125C304.558 49.9375 304.381 50 304.069 50H285.725L285.038 56.5312H299.194C299.819 55.6354 300.225 55.1667 300.413 55.125C300.621 55.0625 300.913 55.125 301.288 55.3125C303.183 56.2917 304.142 56.8854 304.163 57.0938C304.163 57.1979 303.819 57.5417 303.131 58.125C302.965 59.4375 302.808 60.7396 302.663 62.0312C302.517 63.3021 302.277 64.7292 301.944 66.3125C301.631 67.875 300.975 69.2708 299.975 70.5C298.975 71.75 297.673 72.4583 296.069 72.625C294.465 72.8125 293.61 72.8333 293.506 72.6875C293.444 72.6458 293.413 72.4896 293.413 72.2188C293.433 71.9479 293.444 71.7396 293.444 71.5938C293.319 70.5521 292.663 69.7917 291.475 69.3125L290.288 68.8438C290.058 68.7812 289.975 68.6771 290.038 68.5312C290.121 68.4062 290.267 68.3542 290.475 68.375L291.663 68.5625C293.871 68.9167 295.298 68.9792 295.944 68.75C296.59 68.5417 297.142 68.125 297.6 67.5C298.079 66.875 298.454 65.6146 298.725 63.7188C299.017 61.8229 299.194 60.5312 299.256 59.8438L299.475 57.1562H285.194C284.402 58.0938 283.902 58.5833 283.694 58.625C283.485 58.6667 283.121 58.4896 282.6 58.0938C282.496 58.0312 282.204 57.8333 281.725 57.5C281.246 57.1667 280.881 56.8854 280.631 56.6562C280.402 56.4062 280.298 56.25 280.319 56.1875C280.34 56.1042 280.767 55.6771 281.6 54.9062C281.808 53.4271 281.975 52.1354 282.1 51.0312C282.246 49.9271 282.35 48.75 282.413 47.5C282.496 46.2292 282.517 45.3854 282.475 44.9688C282.454 44.5521 282.444 44.2917 282.444 44.1875C282.465 44.0625 282.465 43.9479 282.444 43.8438C282.444 43.7188 282.454 43.625 282.475 43.5625C282.496 43.4167 282.663 43.3646 282.975 43.4062C285.308 43.8021 286.673 44.1146 287.069 44.3438C287.465 44.5729 287.423 44.8542 286.944 45.1875L286.225 45.6875ZM329.7 52.8438H326.294C326.127 53.1771 325.887 53.4583 325.575 53.6875C325.658 55.6875 325.742 56.9062 325.825 57.3438L326.012 58.6562H332.981C333.69 57.8021 334.2 57.1667 334.512 56.75C334.825 56.3125 335.044 56.0833 335.169 56.0625C335.294 56.0417 335.512 56.1667 335.825 56.4375L337.169 57.625L338.075 58.5625C338.283 58.7708 338.367 58.9375 338.325 59.0625C338.304 59.1667 338.242 59.2188 338.137 59.2188L326.106 59.25C326.585 61.1667 327.21 62.7292 327.981 63.9375C328.773 65.1458 329.669 66.1146 330.669 66.8438C331.69 67.5729 332.523 68 333.169 68.125C333.835 68.2708 334.294 68.3021 334.544 68.2188C335.065 68.0938 335.46 67.7917 335.731 67.3125C336.002 66.8125 336.325 66.1771 336.7 65.4062L337.325 64.0938C337.387 63.9271 337.492 63.8646 337.637 63.9062C337.783 63.9271 337.835 64.0833 337.794 64.375L337.45 66.125C337.367 66.5417 337.315 66.9896 337.294 67.4688C337.294 67.9479 337.377 68.3438 337.544 68.6562L338.075 69.5C338.387 70.0417 338.492 70.5 338.387 70.875C338.283 71.2708 337.94 71.6667 337.356 72.0625C336.773 72.4792 335.731 72.5625 334.231 72.3125C330.273 71.7083 327.502 70.1562 325.919 67.6562C324.335 65.1354 323.387 63.0625 323.075 61.4375L322.606 59.25H315.606V67.375C316.002 67.3333 318.221 66.9792 322.262 66.3125L324.012 66.0312C324.242 66.0104 324.367 66.0729 324.387 66.2188C324.408 66.3438 324.346 66.4375 324.2 66.5L322.512 67.3438C319.054 69.0521 316.356 70.5208 314.419 71.75L313.481 72.3438L313.075 72.625C312.929 72.6458 312.835 72.5833 312.794 72.4375L311.262 68.375C311.179 68.1667 311.137 68.0417 311.137 68C311.158 67.9583 311.294 67.8438 311.544 67.6562C311.815 67.4479 311.95 66.9688 311.95 66.2188V48.4688L311.7 44.3125C311.762 44.25 311.887 44.25 312.075 44.3125L315.762 45.75H329.294C330.044 44.7708 330.554 44.2604 330.825 44.2188C330.971 44.1979 331.471 44.4271 332.325 44.9062C333.2 45.3646 333.783 45.6979 334.075 45.9062C334.367 46.0938 334.523 46.2396 334.544 46.3438C334.565 46.4479 334.523 46.5625 334.419 46.6875L333.95 47.0625L333.544 47.375V51.5L333.669 53.375C333.648 53.6875 333.523 54 333.294 54.3125C333.085 54.6042 332.492 54.7604 331.512 54.7812C330.554 54.7812 330.012 54.7083 329.887 54.5625C329.762 54.4167 329.7 54.1875 329.7 53.875V52.8438ZM315.606 58.6562H322.45C322.262 57.1354 322.169 56.2292 322.169 55.9375L321.95 52.8438H315.606V58.6562ZM329.7 52.25V46.3438H315.606V52.25H329.7ZM356.112 71.0938V62.5312H351.394L348.081 62.625L347.425 61.75L350.8 61.9375H356.112V54H350.894C349.394 56.8333 348.31 58.7812 347.644 59.8438C346.977 60.9062 346.248 61.8646 345.456 62.7188L344.769 63.4688C344.56 63.6979 344.394 63.7604 344.269 63.6562C344.165 63.5312 344.175 63.3438 344.3 63.0938L344.706 62.1562C345.935 59.2812 346.81 56.6042 347.331 54.125C347.852 51.6458 348.196 49.7917 348.362 48.5625L348.487 47.5312C348.508 47.2396 348.54 47.0625 348.581 47C348.623 46.9375 348.748 46.9062 348.956 46.9062C349.29 46.9479 349.779 47.0833 350.425 47.3125C351.071 47.5208 351.81 47.7396 352.644 47.9688C353.477 48.1979 353.873 48.4792 353.831 48.8125C353.79 49.0417 353.394 49.3125 352.644 49.625C352.144 50.8333 351.623 52.0833 351.081 53.375H356.112V49.7812L355.831 44.6875C355.894 44.5208 356.112 44.4479 356.487 44.4688C358.279 44.6771 359.446 44.8333 359.987 44.9375C360.529 45.0417 360.831 45.1875 360.894 45.375C360.935 45.5833 360.602 45.9792 359.894 46.5625V53.375H364.394C365.081 52.5208 365.602 51.8542 365.956 51.375C366.31 50.875 366.571 50.625 366.737 50.625C366.8 50.6458 367.165 50.8854 367.831 51.3438C368.519 51.8021 369.102 52.2917 369.581 52.8125C370.06 53.3125 370.279 53.6354 370.237 53.7812C370.196 53.9271 370.112 54 369.987 54H359.894V61.9375H363.487C364.008 61.1458 364.435 60.5104 364.769 60.0312C365.102 59.5521 365.362 59.3125 365.55 59.3125C365.758 59.2917 366.071 59.4271 366.487 59.7188C367.05 60.1771 367.415 60.4896 367.581 60.6562C367.769 60.8229 368.05 61.1146 368.425 61.5312C368.8 61.9479 368.956 62.2188 368.894 62.3438C368.831 62.4688 368.696 62.5312 368.487 62.5312H359.894V71.0938H366.55C367.175 70.2396 367.665 69.5625 368.019 69.0625C368.373 68.5833 368.644 68.3333 368.831 68.3125C369.019 68.3125 369.3 68.4479 369.675 68.7188C371.55 70.2188 372.446 71.0938 372.362 71.3438C372.279 71.5938 372.123 71.7188 371.894 71.7188H346.925L344.019 71.8125L343.331 70.9062L346.456 71.0938H356.112ZM399.306 46.2812C399.848 45.4062 400.212 44.9479 400.4 44.9062C400.587 44.8646 400.827 44.9062 401.119 45.0312C403.015 45.9271 403.983 46.5104 404.025 46.7812C404.046 47.0729 403.712 47.4062 403.025 47.7812C402.921 48.7604 402.837 49.6562 402.775 50.4688C402.712 51.2604 402.608 51.9792 402.462 52.625C402.337 53.25 402.077 53.7917 401.681 54.25C401.306 54.7083 400.692 55.0208 399.837 55.1875C398.983 55.3542 398.431 55.4375 398.181 55.4375C397.848 55.4583 397.65 55.4375 397.587 55.375C397.525 55.2917 397.473 55.1354 397.431 54.9062C397.41 54.6771 397.285 54.3438 397.056 53.9062C396.827 53.4479 396.546 53.1146 396.212 52.9062L395.4 52.4062C395.192 52.3021 395.108 52.1979 395.15 52.0938C395.192 51.9688 395.327 51.9167 395.556 51.9375L396.775 52.0625C398.004 52.2083 398.733 52.1042 398.962 51.75C399.212 51.3958 399.358 50.8021 399.4 49.9688C399.462 49.1146 399.504 48.5729 399.525 48.3438L399.556 46.875H393.462V56.6562H399.4C399.879 55.8646 400.265 55.4375 400.556 55.375C400.765 55.3542 401.275 55.5729 402.087 56.0312L403.462 56.875C404.108 57.2708 404.4 57.5521 404.337 57.7188C404.275 57.8854 403.9 58.1562 403.212 58.5312C402.858 59.5312 402.473 60.6042 402.056 61.75C401.64 62.875 400.983 64.1667 400.087 65.625C401.171 66.4583 402.087 67.0521 402.837 67.4062C403.608 67.7604 404.494 68.0729 405.494 68.3438L406.337 68.5938C406.421 68.6354 406.462 68.6979 406.462 68.7812C406.483 68.8646 406.41 68.9479 406.244 69.0312L405.556 69.375C405.14 69.5833 404.723 69.9167 404.306 70.375C403.89 70.8542 403.608 71.2708 403.462 71.625C403.337 72 403.233 72.1979 403.15 72.2188C403.087 72.2604 402.973 72.25 402.806 72.1875C402.556 72.125 402.254 71.9375 401.9 71.625L400.244 70.3438C399.702 69.9271 398.962 69.2292 398.025 68.25C397.025 69.1667 395.504 70.1771 393.462 71.2812C393.462 71.5521 393.41 71.7812 393.306 71.9688C393.202 72.1771 392.89 72.3333 392.369 72.4375C391.869 72.5625 391.4 72.6042 390.962 72.5625C390.692 72.5625 390.504 72.5104 390.4 72.4062C390.317 72.3229 390.265 72.125 390.244 71.8125L390.462 67.625V49L390.244 44.75C390.265 44.6667 390.285 44.6146 390.306 44.5938C390.348 44.5521 390.525 44.6042 390.837 44.75L393.744 46.2812H399.306ZM393.462 70.5938C394.067 69.9896 394.681 69.2812 395.306 68.4688C395.931 67.6771 396.296 67.1354 396.4 66.8438L396.65 66.2188C395.9 64.7812 395.4 63.5417 395.15 62.5C394.921 61.4583 394.733 60.2604 394.587 58.9062L394.4 57.25H393.462V70.5938ZM397.994 63.4375C398.848 61.1458 399.358 59.5729 399.525 58.7188L399.806 57.25H395.244C395.306 57.7292 395.442 58.4479 395.65 59.4062C395.858 60.3438 396.64 61.6875 397.994 63.4375ZM384.619 45.5312C385.244 44.6562 385.608 44.2083 385.712 44.1875C385.817 44.1458 386.015 44.1875 386.306 44.3125L387.337 44.7812C388.087 45.2604 388.535 45.5625 388.681 45.6875C388.848 45.8125 388.942 45.9271 388.962 46.0312C388.983 46.2812 388.671 46.6146 388.025 47.0312V69.875C388.025 70.3958 387.879 70.8854 387.587 71.3438C387.296 71.8021 386.619 72.1146 385.556 72.2812C384.515 72.4688 383.942 72.4792 383.837 72.3125C383.796 72.2917 383.723 71.9583 383.619 71.3125C383.535 70.6667 383.108 70.125 382.337 69.6875L381.369 69.1562C381.202 69.0729 381.129 68.9688 381.15 68.8438C381.192 68.7188 381.327 68.6667 381.556 68.6875L382.806 68.8125C383.66 68.9167 384.15 68.9479 384.275 68.9062C384.421 68.8646 384.556 68.7708 384.681 68.625C384.827 68.5 384.9 68.1042 384.9 67.4375V59.125H381.587C381.525 60.3333 381.442 61.5208 381.337 62.6875C381.254 63.8542 380.983 65.1771 380.525 66.6562C380.067 68.1146 379.129 69.5833 377.712 71.0625L377.087 71.7188C376.9 71.9062 376.744 71.9688 376.619 71.9062C376.515 71.8646 376.525 71.6875 376.65 71.375L376.994 70.625C377.327 69.8958 377.619 69.1146 377.869 68.2812C378.119 67.4479 378.327 66.2292 378.494 64.625C378.66 63 378.744 61.1667 378.744 59.125L378.681 55.8438C378.598 50.6771 378.556 48.0833 378.556 48.0625L378.4 45.3438L378.306 44.1875C378.348 44.0417 378.504 44.0208 378.775 44.125L381.9 45.5312H384.619ZM381.619 58.5312H384.9V52.7812H381.681L381.619 58.5312ZM381.681 52.1875L384.9 52.1562V46.0938L381.681 46.125V52.1875ZM423 54.0625C422.25 52.9167 421.469 51.2604 420.656 49.0938C419.24 50.7396 418.031 52.0208 417.031 52.9375C416.031 53.8542 414.938 54.6875 413.75 55.4375L412.75 56.0625C412.438 56.2708 412.208 56.3958 412.062 56.4375C411.917 56.4792 411.812 56.4688 411.75 56.4062C411.708 56.3229 411.781 56.1667 411.969 55.9375L412.469 55.4062L413.281 54.5C414.24 53.4167 415.167 52.1042 416.062 50.5625C416.958 49 417.594 47.7708 417.969 46.875C418.365 45.9792 418.625 45.3125 418.75 44.875L419.125 43.5625C419.146 43.4375 419.167 43.3646 419.188 43.3438C419.229 43.3229 419.323 43.3333 419.469 43.375C419.531 43.4167 419.885 43.5312 420.531 43.7188C421.198 43.8854 421.979 44.1458 422.875 44.5C423.792 44.8542 424.26 45.0938 424.281 45.2188C424.323 45.5938 423.906 45.875 423.031 46.0625L421.656 47.875H428.688C429.542 47 430.042 46.5521 430.188 46.5312C430.292 46.5312 431.083 46.9583 432.562 47.8125C434.062 48.6667 434.792 49.2812 434.75 49.6562C434.688 49.9896 434.031 50.2188 432.781 50.3438C431.531 51.5521 429.823 52.9271 427.656 54.4688C428.781 55.0938 430.302 55.5938 432.219 55.9688C434.135 56.3438 435.969 56.4896 437.719 56.4062L439.188 56.3438C439.417 56.3438 439.552 56.3958 439.594 56.5C439.635 56.5833 439.531 56.7188 439.281 56.9062L438.656 57.375C438.365 57.6042 438.083 57.9375 437.812 58.375C437.542 58.8125 437.333 59.2396 437.188 59.6562C437.042 60.0729 436.948 60.3958 436.906 60.625C436.865 60.8542 436.74 60.9583 436.531 60.9375C435.344 60.8958 433.479 60.4167 430.938 59.5C428.396 58.5625 426.396 57.4167 424.938 56.0625C424.021 56.5833 423.083 57.0625 422.125 57.5C423.417 57.7083 424.333 57.9167 424.875 58.125C425.417 58.3125 425.698 58.5104 425.719 58.7188C425.74 58.9062 425.438 59.1771 424.812 59.5312L424.562 61.5625L430.125 61.5C430.854 60.6667 431.281 60.2396 431.406 60.2188C431.531 60.1771 431.75 60.2292 432.062 60.375C434.188 61.4792 435.26 62.1458 435.281 62.375C435.281 62.4792 434.917 62.8229 434.188 63.4062C433.958 65.5521 433.74 67.1042 433.531 68.0625C433.344 69.0208 433.021 69.9479 432.562 70.8438C432.125 71.7396 431.396 72.3542 430.375 72.6875C429.354 73.0417 428.521 73.2292 427.875 73.25C427.25 73.2917 426.917 73.2917 426.875 73.25C426.792 73.2083 426.729 73.1354 426.688 73.0312C426.646 72.9271 426.594 72.7083 426.531 72.375C426.49 72.0417 426.375 71.6458 426.188 71.1875C426 70.7292 425.51 70.3229 424.719 69.9688L423.781 69.5625C423.531 69.4792 423.417 69.3646 423.438 69.2188C423.479 69.0938 423.625 69.0521 423.875 69.0938L425.062 69.3438C426.875 69.7396 428.083 69.7292 428.688 69.3125C429.312 68.9167 429.75 67.9688 430 66.4688C430.271 64.9688 430.427 63.9271 430.469 63.3438L430.562 62.125L424.438 62.1875C424.271 63.125 424.073 64.0625 423.844 65C423.615 65.9167 423.115 66.8958 422.344 67.9375C421.594 68.9792 420.333 69.9479 418.562 70.8438C416.792 71.7396 414.865 72.3333 412.781 72.625L411.906 72.75C411.469 72.8125 411.188 72.8438 411.062 72.8438C410.938 72.8438 410.865 72.8021 410.844 72.7188C410.844 72.6562 410.938 72.5625 411.125 72.4375L411.781 72.1875L412.719 71.8125C416.073 70.4792 418.167 68.9583 419 67.25C419.833 65.5417 420.323 64.2396 420.469 63.3438L420.656 62.2188L414.906 62.2812L413.219 62.375L412.375 61.4688L414.562 61.6562L420.75 61.5938C420.812 60.6979 420.844 60.1667 420.844 60L420.75 58.125C417.896 59.1875 415.198 59.8333 412.656 60.0625L411.281 60.1875L410.75 60.25C410.521 60.1875 410.417 60.0833 410.438 59.9375C410.438 59.875 410.74 59.7708 411.344 59.625L412.156 59.4375C415.844 58.6042 419.458 56.8125 423 54.0625ZM424.656 52.7812C426.302 51.4271 427.698 49.9896 428.844 48.4688H421.031C421.948 50.1771 423.156 51.6146 424.656 52.7812Z" fill="white"/>
<mask id="mask0_265_141" style="mask-type:alpha" maskUnits="userSpaceOnUse" x="9" y="9" width="495" height="97">
<rect x="9" y="9" width="495" height="97" rx="21" fill="black"/>
</mask>
<g mask="url(#mask0_265_141)">
<g filter="url(#filter0_f_265_141)">
<path d="M517 -1.5C517 37.9884 517 150 442 116.074C318.5 37.5 283.5 31.562 283.5 -7.92641C283.5 -47.4148 408.34 -73 447 -73C485.66 -73 517 -40.9884 517 -1.5Z" fill="#4630BF" fill-opacity="0.6"/>
</g>
<g filter="url(#filter1_f_265_141)">
<path d="M158.5 16.5264C-42.5 73 22.8919 107.5 5.21874 107.5C-12.4544 107.5 -26.7812 30.8858 -26.7812 16.5264C-26.7812 2.16696 -12.4544 -9.47363 5.21874 -9.47363C22.8919 -9.47363 178.5 5.5 158.5 16.5264Z" fill="#803096" fill-opacity="0.6"/>
</g>
</g>
<g filter="url(#filter2_dddddddd_265_141)">
<rect x="10" y="10" width="493" height="95" rx="20" stroke="url(#paint0_linear_265_141)" stroke-width="2" shape-rendering="crispEdges"/>
</g>
<g filter="url(#filter3_dddddddd_265_141)">
<rect x="10" y="10" width="493" height="95" rx="20" stroke="url(#paint1_linear_265_141)" stroke-width="2" shape-rendering="crispEdges"/>
</g>
<rect x="10" y="10" width="493" height="95" rx="20" stroke="url(#paint2_linear_265_141)" stroke-width="2"/>
<defs>
<filter id="filter0_f_265_141" x="175.9" y="-180.6" width="448.7" height="410.587" filterUnits="userSpaceOnUse" color-interpolation-filters="sRGB">
<feFlood flood-opacity="0" result="BackgroundImageFix"/>
<feBlend mode="normal" in="SourceGraphic" in2="BackgroundImageFix" result="shape"/>
<feGaussianBlur stdDeviation="53.8" result="effect1_foregroundBlur_265_141"/>
</filter>
<filter id="filter1_f_265_141" x="-84.3812" y="-67.0736" width="302.253" height="232.174" filterUnits="userSpaceOnUse" color-interpolation-filters="sRGB">
<feFlood flood-opacity="0" result="BackgroundImageFix"/>
<feBlend mode="normal" in="SourceGraphic" in2="BackgroundImageFix" result="shape"/>
<feGaussianBlur stdDeviation="28.8" result="effect1_foregroundBlur_265_141"/>
</filter>
<filter id="filter2_dddddddd_265_141" x="9" y="9" width="495" height="97" filterUnits="userSpaceOnUse" color-interpolation-filters="sRGB">
<feFlood flood-opacity="0" result="BackgroundImageFix"/>
<feColorMatrix in="SourceAlpha" type="matrix" values="0 0 0 0 0 0 0 0 0 0 0 0 0 0 0 0 0 0 127 0" result="hardAlpha"/>
<feOffset/>
<feComposite in2="hardAlpha" operator="out"/>
<feColorMatrix type="matrix" values="0 0 0 0 1 0 0 0 0 1 0 0 0 0 1 0 0 0 1 0"/>
<feBlend mode="normal" in2="BackgroundImageFix" result="effect1_dropShadow_265_141"/>
<feColorMatrix in="SourceAlpha" type="matrix" values="0 0 0 0 0 0 0 0 0 0 0 0 0 0 0 0 0 0 127 0" result="hardAlpha"/>
<feOffset/>
<feComposite in2="hardAlpha" operator="out"/>
<feColorMatrix type="matrix" values="0 0 0 0 1 0 0 0 0 1 0 0 0 0 1 0 0 0 1 0"/>
<feBlend mode="normal" in2="effect1_dropShadow_265_141" result="effect2_dropShadow_265_141"/>
<feColorMatrix in="SourceAlpha" type="matrix" values="0 0 0 0 0 0 0 0 0 0 0 0 0 0 0 0 0 0 127 0" result="hardAlpha"/>
<feOffset/>
<feComposite in2="hardAlpha" operator="out"/>
<feColorMatrix type="matrix" values="0 0 0 0 1 0 0 0 0 1 0 0 0 0 1 0 0 0 1 0"/>
<feBlend mode="normal" in2="effect2_dropShadow_265_141" result="effect3_dropShadow_265_141"/>
<feColorMatrix in="SourceAlpha" type="matrix" values="0 0 0 0 0 0 0 0 0 0 0 0 0 0 0 0 0 0 127 0" result="hardAlpha"/>
<feOffset/>
<feComposite in2="hardAlpha" operator="out"/>
<feColorMatrix type="matrix" values="0 0 0 0 1 0 0 0 0 1 0 0 0 0 1 0 0 0 1 0"/>
<feBlend mode="normal" in2="effect3_dropShadow_265_141" result="effect4_dropShadow_265_141"/>
<feColorMatrix in="SourceAlpha" type="matrix" values="0 0 0 0 0 0 0 0 0 0 0 0 0 0 0 0 0 0 127 0" result="hardAlpha"/>
<feOffset/>
<feComposite in2="hardAlpha" operator="out"/>
<feColorMatrix type="matrix" values="0 0 0 0 1 0 0 0 0 1 0 0 0 0 1 0 0 0 1 0"/>
<feBlend mode="normal" in2="effect4_dropShadow_265_141" result="effect5_dropShadow_265_141"/>
<feColorMatrix in="SourceAlpha" type="matrix" values="0 0 0 0 0 0 0 0 0 0 0 0 0 0 0 0 0 0 127 0" result="hardAlpha"/>
<feOffset/>
<feComposite in2="hardAlpha" operator="out"/>
<feColorMatrix type="matrix" values="0 0 0 0 1 0 0 0 0 1 0 0 0 0 1 0 0 0 1 0"/>
<feBlend mode="normal" in2="effect5_dropShadow_265_141" result="effect6_dropShadow_265_141"/>
<feColorMatrix in="SourceAlpha" type="matrix" values="0 0 0 0 0 0 0 0 0 0 0 0 0 0 0 0 0 0 127 0" result="hardAlpha"/>
<feOffset/>
<feComposite in2="hardAlpha" operator="out"/>
<feColorMatrix type="matrix" values="0 0 0 0 1 0 0 0 0 1 0 0 0 0 1 0 0 0 1 0"/>
<feBlend mode="normal" in2="effect6_dropShadow_265_141" result="effect7_dropShadow_265_141"/>
<feColorMatrix in="SourceAlpha" type="matrix" values="0 0 0 0 0 0 0 0 0 0 0 0 0 0 0 0 0 0 127 0" result="hardAlpha"/>
<feOffset/>
<feComposite in2="hardAlpha" operator="out"/>
<feColorMatrix type="matrix" values="0 0 0 0 1 0 0 0 0 1 0 0 0 0 1 0 0 0 1 0"/>
<feBlend mode="normal" in2="effect7_dropShadow_265_141" result="effect8_dropShadow_265_141"/>
<feBlend mode="normal" in="SourceGraphic" in2="effect8_dropShadow_265_141" result="shape"/>
</filter>
<filter id="filter3_dddddddd_265_141" x="0.5" y="0.5" width="512" height="114" filterUnits="userSpaceOnUse" color-interpolation-filters="sRGB">
<feFlood flood-opacity="0" result="BackgroundImageFix"/>
<feColorMatrix in="SourceAlpha" type="matrix" values="0 0 0 0 0 0 0 0 0 0 0 0 0 0 0 0 0 0 127 0" result="hardAlpha"/>
<feOffset/>
<feGaussianBlur stdDeviation="4.25"/>
<feComposite in2="hardAlpha" operator="out"/>
<feColorMatrix type="matrix" values="0 0 0 0 1 0 0 0 0 1 0 0 0 0 1 0 0 0 0.18 0"/>
<feBlend mode="normal" in2="BackgroundImageFix" result="effect1_dropShadow_265_141"/>
<feColorMatrix in="SourceAlpha" type="matrix" values="0 0 0 0 0 0 0 0 0 0 0 0 0 0 0 0 0 0 127 0" result="hardAlpha"/>
<feOffset/>
<feGaussianBlur stdDeviation="4.25"/>
<feComposite in2="hardAlpha" operator="out"/>
<feColorMatrix type="matrix" values="0 0 0 0 1 0 0 0 0 1 0 0 0 0 1 0 0 0 0.18 0"/>
<feBlend mode="normal" in2="effect1_dropShadow_265_141" result="effect2_dropShadow_265_141"/>
<feColorMatrix in="SourceAlpha" type="matrix" values="0 0 0 0 0 0 0 0 0 0 0 0 0 0 0 0 0 0 127 0" result="hardAlpha"/>
<feOffset/>
<feGaussianBlur stdDeviation="4.25"/>
<feComposite in2="hardAlpha" operator="out"/>
<feColorMatrix type="matrix" values="0 0 0 0 1 0 0 0 0 1 0 0 0 0 1 0 0 0 0.18 0"/>
<feBlend mode="normal" in2="effect2_dropShadow_265_141" result="effect3_dropShadow_265_141"/>
<feColorMatrix in="SourceAlpha" type="matrix" values="0 0 0 0 0 0 0 0 0 0 0 0 0 0 0 0 0 0 127 0" result="hardAlpha"/>
<feOffset/>
<feGaussianBlur stdDeviation="4.25"/>
<feComposite in2="hardAlpha" operator="out"/>
<feColorMatrix type="matrix" values="0 0 0 0 1 0 0 0 0 1 0 0 0 0 1 0 0 0 0.18 0"/>
<feBlend mode="normal" in2="effect3_dropShadow_265_141" result="effect4_dropShadow_265_141"/>
<feColorMatrix in="SourceAlpha" type="matrix" values="0 0 0 0 0 0 0 0 0 0 0 0 0 0 0 0 0 0 127 0" result="hardAlpha"/>
<feOffset/>
<feGaussianBlur stdDeviation="4.25"/>
<feComposite in2="hardAlpha" operator="out"/>
<feColorMatrix type="matrix" values="0 0 0 0 1 0 0 0 0 1 0 0 0 0 1 0 0 0 0.18 0"/>
<feBlend mode="normal" in2="effect4_dropShadow_265_141" result="effect5_dropShadow_265_141"/>
<feColorMatrix in="SourceAlpha" type="matrix" values="0 0 0 0 0 0 0 0 0 0 0 0 0 0 0 0 0 0 127 0" result="hardAlpha"/>
<feOffset/>
<feGaussianBlur stdDeviation="4.25"/>
<feComposite in2="hardAlpha" operator="out"/>
<feColorMatrix type="matrix" values="0 0 0 0 1 0 0 0 0 1 0 0 0 0 1 0 0 0 0.18 0"/>
<feBlend mode="normal" in2="effect5_dropShadow_265_141" result="effect6_dropShadow_265_141"/>
<feColorMatrix in="SourceAlpha" type="matrix" values="0 0 0 0 0 0 0 0 0 0 0 0 0 0 0 0 0 0 127 0" result="hardAlpha"/>
<feOffset/>
<feGaussianBlur stdDeviation="4.25"/>
<feComposite in2="hardAlpha" operator="out"/>
<feColorMatrix type="matrix" values="0 0 0 0 1 0 0 0 0 1 0 0 0 0 1 0 0 0 0.18 0"/>
<feBlend mode="normal" in2="effect6_dropShadow_265_141" result="effect7_dropShadow_265_141"/>
<feColorMatrix in="SourceAlpha" type="matrix" values="0 0 0 0 0 0 0 0 0 0 0 0 0 0 0 0 0 0 127 0" result="hardAlpha"/>
<feOffset/>
<feGaussianBlur stdDeviation="4.25"/>
<feComposite in2="hardAlpha" operator="out"/>
<feColorMatrix type="matrix" values="0 0 0 0 1 0 0 0 0 1 0 0 0 0 1 0 0 0 0.18 0"/>
<feBlend mode="normal" in2="effect7_dropShadow_265_141" result="effect8_dropShadow_265_141"/>
<feBlend mode="normal" in="SourceGraphic" in2="effect8_dropShadow_265_141" result="shape"/>
</filter>
<linearGradient id="paint0_linear_265_141" x1="33.5" y1="2" x2="496.5" y2="111" gradientUnits="userSpaceOnUse">
<stop stop-color="#803096"/>
<stop offset="0.961854" stop-color="#4630BF"/>
</linearGradient>
<linearGradient id="paint1_linear_265_141" x1="33.5" y1="2" x2="496.5" y2="111" gradientUnits="userSpaceOnUse">
<stop stop-color="#803096"/>
<stop offset="0.961854" stop-color="#4630BF"/>
</linearGradient>
<linearGradient id="paint2_linear_265_141" x1="33.5" y1="2" x2="496.5" y2="111" gradientUnits="userSpaceOnUse">
<stop stop-color="#803096"/>
<stop offset="0.961854" stop-color="#4630BF"/>
</linearGradient>
</defs>
</svg>
