<svg width="102" height="95" viewBox="0 0 102 95" fill="none" xmlns="http://www.w3.org/2000/svg">
<g id="Group 134">
<g id="Polygon 3" filter="url(#filter0_f_733_280)">
<path d="M11.7515 21.6289C9.15273 17.6763 12.9871 12.6595 17.4832 14.1296L85.3285 36.313C90.0219 37.8476 89.9299 44.6831 85.2377 46.2211C75.8141 49.31 65.2452 53.2057 63.1126 55.7483C61.0913 58.1583 60.4219 68.2838 60.2548 77.7292C60.1653 82.7891 53.3512 84.8994 50.5711 80.6709L11.7515 21.6289Z" fill="#6045F6"/>
<path d="M12.5872 21.0795C10.5083 17.9175 13.5755 13.904 17.1722 15.0798L85.0179 37.263C88.7468 38.4823 88.7456 44.0189 84.9257 45.271C80.2055 46.8182 75.1811 48.5732 71.0614 50.2646C69.0029 51.1097 67.1526 51.9463 65.6722 52.74C64.3187 53.4657 63.166 54.2104 62.4775 54.9564L62.346 55.1056C61.6808 55.8987 61.2192 57.1834 60.8658 58.6345C60.5018 60.1293 60.2168 61.9639 59.9941 63.9914C59.604 67.5424 59.3952 71.7593 59.2929 75.9295L59.2545 77.7115C59.2187 79.739 57.8481 81.201 56.1293 81.7273C54.4144 82.2525 52.5107 81.8011 51.4064 80.1215L12.5872 21.0795Z" stroke="#9E9E9E" stroke-width="2"/>
</g>
<g id="Polygon 6" filter="url(#filter1_f_733_280)">
<path d="M12.7072 17.8887C10.1084 13.9361 13.9428 8.91923 18.4389 10.3893L86.2842 32.5727C90.9776 34.1073 90.8856 40.9428 86.1934 42.4809C76.7698 45.5698 66.2008 49.4654 64.0683 52.0081C62.047 54.4181 61.3776 64.5436 61.2105 73.989C61.121 79.0488 54.3069 81.1592 51.5267 76.9307L12.7072 17.8887Z" fill="#D975F5"/>
</g>
<g id="Polygon 5" filter="url(#filter2_if_733_280)">
<path d="M12.7072 17.2304C10.1084 13.2779 13.9428 8.26102 18.4389 9.73112L86.2842 31.9145C90.9776 33.4491 90.8856 40.2846 86.1934 41.8227C76.7698 44.9116 66.2008 48.8072 64.0683 51.3499C62.047 53.7599 61.3776 63.8854 61.2105 73.3308C61.121 78.3906 54.3069 80.501 51.5267 76.2725L12.7072 17.2304Z" fill="#803096"/>
</g>
<path id="Subtract" d="M12.7078 18.4721C10.1092 14.5195 13.9442 9.50297 18.4403 10.9731L86.285 33.1557C90.9049 34.6663 90.8882 41.3132 86.411 42.9877L86.1951 43.0639C84.1468 43.7353 82.0444 44.4458 79.9862 45.1713L79.1785 43.3354C81.3017 42.5855 83.4681 41.8528 85.5711 41.1635L85.8387 41.0639C88.5106 39.9363 88.3418 35.9329 85.6639 35.057L17.8182 12.8734C15.1207 11.9917 12.8198 15.002 14.3787 17.3734L53.199 76.4154C54.0175 77.66 55.4254 78.0323 56.7928 77.6137C58.1679 77.1925 59.1845 76.0622 59.2117 74.5375L59.2498 72.7494C59.3525 68.5644 59.5624 64.3153 59.9569 60.725C60.1819 58.6767 60.4721 56.7944 60.8504 55.2406C61.2076 53.7739 61.712 52.2898 62.5369 51.3061L62.6942 51.1274C63.5103 50.2414 64.7976 49.43 66.1561 48.7016C67.6788 47.8851 69.5638 47.0335 71.6375 46.182C72.8763 45.6734 74.1961 45.1616 75.5623 44.6498L76.368 46.4838C70.5923 48.643 65.7014 50.8243 64.1756 52.4711L64.0692 52.5912C62.048 55.0015 61.3788 65.1274 61.2117 74.5727L61.202 74.807C60.9141 79.6184 54.4739 81.6123 51.661 77.7074L51.5281 77.5141L12.7078 18.4721Z" fill="white"/>
</g>
<defs>
<filter id="filter0_f_733_280" x="-2.79143" y="0.167188" width="105.294" height="96.4664" filterUnits="userSpaceOnUse" color-interpolation-filters="sRGB">
<feFlood flood-opacity="0" result="BackgroundImageFix"/>
<feBlend mode="normal" in="SourceGraphic" in2="BackgroundImageFix" result="shape"/>
<feGaussianBlur stdDeviation="6.85" result="effect1_foregroundBlur_733_280"/>
</filter>
<filter id="filter1_f_733_280" x="-1.83574" y="-3.57305" width="105.294" height="96.4664" filterUnits="userSpaceOnUse" color-interpolation-filters="sRGB">
<feFlood flood-opacity="0" result="BackgroundImageFix"/>
<feBlend mode="normal" in="SourceGraphic" in2="BackgroundImageFix" result="shape"/>
<feGaussianBlur stdDeviation="6.85" result="effect1_foregroundBlur_733_280"/>
</filter>
<filter id="filter2_if_733_280" x="-1.83574" y="-4.23125" width="105.294" height="96.4664" filterUnits="userSpaceOnUse" color-interpolation-filters="sRGB">
<feFlood flood-opacity="0" result="BackgroundImageFix"/>
<feBlend mode="normal" in="SourceGraphic" in2="BackgroundImageFix" result="shape"/>
<feColorMatrix in="SourceAlpha" type="matrix" values="0 0 0 0 0 0 0 0 0 0 0 0 0 0 0 0 0 0 127 0" result="hardAlpha"/>
<feOffset dx="1" dy="4"/>
<feGaussianBlur stdDeviation="8.05"/>
<feComposite in2="hardAlpha" operator="arithmetic" k2="-1" k3="1"/>
<feColorMatrix type="matrix" values="0 0 0 0 0 0 0 0 0 0 0 0 0 0 0 0 0 0 1 0"/>
<feBlend mode="normal" in2="shape" result="effect1_innerShadow_733_280"/>
<feGaussianBlur stdDeviation="6.85" result="effect2_foregroundBlur_733_280"/>
</filter>
</defs>
</svg>
