<svg width="108" height="93" viewBox="0 0 108 93" fill="none" xmlns="http://www.w3.org/2000/svg">
<g id="Group 136">
<g id="Group 94">
<path id="Ellipse 78" d="M50.1503 23.8714C67.2244 21.8898 82.6754 34.1359 84.6591 51.2268C86.6427 68.3178 74.4071 83.7771 57.333 85.7587C40.2589 87.7403 24.8078 75.4943 22.8242 58.4033C20.8408 41.3124 33.0763 25.853 50.1503 23.8714Z" stroke="white" stroke-width="3"/>
<g id="Ellipse 79" filter="url(#filter0_f_733_317)">
<path d="M50.503 25.4993C66.2569 23.6709 80.5386 35.0746 82.3858 50.9907C84.233 66.9069 72.9427 81.2784 57.1889 83.1068C41.4351 84.9351 27.1533 73.5315 25.3061 57.6154C23.4588 41.6992 34.7492 27.3278 50.503 25.4993Z" stroke="white" stroke-width="2"/>
</g>
<path id="Subtract" d="M77.2399 32.5697C90.975 32.2448 100.846 34.771 102.402 39.8511L102.457 40.0414C104.583 48.1554 84.9599 59.6012 58.3536 65.7111L57.0996 65.9943C31.01 71.7717 8.10918 70.1741 5.35572 62.3395L5.29451 62.151C3.73618 57.0637 10.8858 50.6225 23.0328 45.0054C22.55 46.2732 22.1872 47.5732 21.9576 48.8965C20.5606 49.5992 19.2493 50.3104 18.0314 51.0254C14.1885 53.2816 11.4228 55.4896 9.78957 57.4688C8.10791 59.5068 8.01027 60.801 8.21803 61.4794C8.42603 62.1578 9.25108 63.2398 11.8778 64.2881C14.4291 65.3064 18.0953 66.0376 22.7247 66.3483C31.9447 66.967 44.2765 65.874 57.4751 62.8431C70.674 59.8121 82.0113 55.4695 89.6654 50.9757C93.5082 48.7196 96.273 46.5116 97.9062 44.5325C99.5875 42.495 99.6864 41.2014 99.4789 40.5227C99.2711 39.8443 98.4446 38.7619 95.8171 37.7132C93.2657 36.6951 89.6002 35.9646 84.9712 35.654C83.5219 35.5567 81.9957 35.5011 80.4013 35.4893C79.4484 34.4458 78.3916 33.469 77.2399 32.5697Z" fill="white" fill-opacity="0.8"/>
<path id="&#229;&#175;&#176; &#229;&#174;&#135;" d="M41.9879 42.0364C42.1907 42.0266 42.3298 42.1529 42.405 42.4152C43.7842 42.1456 45.1606 41.9778 46.534 41.9119C47.9386 41.8444 49.3236 41.8561 50.6889 41.9469C50.7572 41.7403 50.8757 41.6016 51.0444 41.531C51.329 41.5955 51.4804 41.8151 51.4983 42.1896C51.5336 42.9232 51.4439 43.4984 51.2293 43.9155C50.8781 44.7458 49.4625 45.2361 46.9825 45.3865C44.4214 45.4783 42.8085 45.1177 42.1438 44.3049C41.8642 44.0211 41.7057 43.4891 41.6682 42.7087C41.694 42.2695 41.8006 42.0454 41.9879 42.0364ZM50.6067 42.6783C49.9162 42.6332 49.2191 42.612 48.5153 42.6145C48.5495 42.6754 48.5677 42.7293 48.57 42.7761L48.6476 44.3914C49.5163 44.2402 50.0376 44.0196 50.2114 43.7297C50.409 43.6107 50.5408 43.2602 50.6067 42.6783ZM47.7416 42.6282C47.3195 42.6328 46.9211 42.6441 46.5466 42.6621C46.1564 42.6809 45.79 42.7063 45.4474 42.7384C45.466 42.8001 45.4764 42.8543 45.4787 42.9011L45.5596 44.5867C45.9833 44.6133 46.4214 44.6157 46.874 44.5939C47.2174 44.5775 47.5287 44.5469 47.8082 44.5021L47.7272 42.8166C47.7242 42.7542 47.729 42.6914 47.7416 42.6282ZM44.6303 42.8246C43.9146 42.9059 43.2157 43.0098 42.5335 43.1365C42.6815 43.6143 42.8526 43.9189 43.0466 44.0504C43.4332 44.2821 43.9884 44.4431 44.7124 44.5335L44.6303 42.8246ZM40.3809 46.1964L52.6246 45.6083C53.0007 45.6215 53.194 45.7374 53.2044 45.9559C53.2164 46.2056 53.0664 46.3379 52.7542 46.3529L40.2296 46.9545C39.9175 46.9695 39.7554 46.8521 39.7434 46.6024C39.7329 46.3839 39.9454 46.2486 40.3809 46.1964ZM44.93 50.53C43.8434 50.3788 43.1141 50.0149 42.7423 49.4384C42.5088 49.1367 42.3733 48.5957 42.3358 47.8154C42.3617 47.3761 42.4682 47.152 42.6555 47.143C42.8896 47.1318 43.0305 47.2971 43.0782 47.6389C44.3178 47.3917 45.5618 47.2381 46.8104 47.1781C47.9965 47.1211 49.1634 47.1511 50.3109 47.2681C50.3629 47.0466 50.481 46.9001 50.6653 46.8287C50.9343 46.894 51.0767 47.0905 51.0925 47.4182C51.1285 48.1674 51.0548 48.7497 50.8714 49.1652C50.5194 49.9799 49.2131 50.465 46.9523 50.6206C47.4229 50.9734 47.8772 51.4756 48.3152 52.1272C48.3442 52.0789 48.3735 52.0384 48.4032 52.0057L50.6914 50.7929C50.8601 50.7223 51.0069 50.6839 51.1317 50.6779C51.322 50.7314 51.4202 50.8205 51.4262 50.9454C51.4352 51.1326 51.349 51.2932 51.1677 51.4271L48.9029 52.6387C48.8115 52.69 48.7346 52.7172 48.6722 52.7202C48.9764 53.1905 49.2675 53.7162 49.5457 54.2972C50.8289 56.9106 52.4142 58.9775 54.3018 60.4981C54.3056 60.5761 54.2763 60.6166 54.2138 60.6196C54.1514 60.6226 54.0785 60.5714 53.9953 60.4659C51.5986 59.0949 49.8677 57.254 48.8024 54.943C47.848 52.6581 47.122 51.2225 46.6246 50.6363C46.2968 50.652 45.9991 50.6429 45.7316 50.6088C45.0629 51.0164 44.4344 51.6097 43.8461 52.3888C44.1309 52.7819 44.302 53.2507 44.3594 53.7955L44.5349 57.4475C44.5229 59.1532 43.9312 60.5113 42.7595 61.5218C42.7031 61.6496 42.6281 61.7158 42.5344 61.7203C42.4564 61.7241 42.4151 61.6791 42.4106 61.5855C43.3109 60.4629 43.7381 59.097 43.6921 57.488L43.4874 53.2273C43.2572 53.6451 43.0202 53.9224 42.7765 54.0592C41.9957 54.7381 41.0584 55.2524 39.9645 55.6022C39.7528 55.7531 39.5923 55.8312 39.483 55.8365C39.3738 55.8417 39.3002 55.7749 39.2622 55.6359C39.6761 55.4596 40.2092 55.1602 40.8616 54.7378C41.803 54.1451 42.4329 53.4187 42.7514 52.5587C43.0997 51.9945 43.5603 51.4874 44.1331 51.0376C44.4207 50.836 44.6863 50.6668 44.93 50.53ZM50.2522 47.9983C49.1054 47.8969 47.9545 47.874 46.7996 47.9295C45.5978 47.9872 44.3998 48.123 43.2056 48.3368C43.3061 48.8012 43.4374 49.0921 43.5995 49.2095C44.1705 49.6983 45.2051 49.9067 46.7034 49.8347C48.545 49.7463 49.6028 49.4608 49.8769 48.9784C50.0745 48.8594 50.1996 48.5327 50.2522 47.9983ZM46.0193 39.989L45.6555 39.2556L45.6533 39.2088C45.6443 39.0215 45.7561 38.9067 45.9887 38.8642C46.1448 38.8567 46.2741 38.9443 46.3768 39.1271L46.7662 39.9062C46.7825 39.9211 46.7911 39.9363 46.7918 39.9519C48.5874 39.8813 50.3484 39.9062 52.0749 40.0267C52.1915 39.849 52.3256 39.7096 52.4772 39.6084C52.5329 39.465 52.6153 39.3906 52.7246 39.3854C52.8338 39.3801 52.8918 39.4477 52.8986 39.5882C52.7583 39.9234 52.6975 40.2861 52.7162 40.6763C52.7507 41.3942 52.9401 42.0813 53.2845 42.7374C53.2912 42.8778 53.2634 42.9496 53.201 42.9526C53.1229 42.9563 53.0267 42.9062 52.9122 42.8022C52.2624 42.3015 51.9177 41.6376 51.8779 40.8104L51.8757 40.7636C50.0711 40.6469 48.2402 40.6332 46.383 40.7224C44.6194 40.8071 42.8458 41.0096 41.0623 41.33C41.102 42.1571 40.7835 42.8529 40.1066 43.4173C40.0026 43.5318 39.9116 43.5909 39.8336 43.5946C39.7711 43.5976 39.7366 43.5289 39.7298 43.3884C40.0878 42.6986 40.2495 41.9947 40.215 41.2768C40.1948 40.8554 40.098 40.469 39.9247 40.1175C39.9172 39.9614 39.968 39.8808 40.0773 39.8755C40.1865 39.8703 40.2761 39.9442 40.3461 40.0973C40.5862 40.2109 40.7661 40.3743 40.8858 40.5876C42.6233 40.2851 44.3345 40.0856 46.0193 39.989ZM57.7775 55.4192C57.9023 55.4132 57.9997 55.4868 58.0697 55.6398C58.2332 55.7884 58.3578 55.9389 58.4433 56.0912C60.1897 55.6475 61.9602 55.3826 63.755 55.2964L63.4136 54.5384C63.3972 54.5236 63.3887 54.5083 63.3879 54.4927C63.3789 54.3054 63.5064 54.1898 63.7702 54.1459C63.9262 54.1384 64.0556 54.226 64.1582 54.4088L64.5755 55.2804C66.4187 55.2232 68.2459 55.3231 70.0572 55.5803C70.2592 55.2264 70.5337 54.916 70.8806 54.6491C70.9587 54.6453 70.9988 54.6668 71.0011 54.7137C71.0026 54.7449 70.9743 54.8088 70.9164 54.9054C70.7027 55.6666 70.6097 56.3359 70.6374 56.9133C70.6502 57.1787 70.6889 57.4975 70.7538 57.8698C70.8334 58.2258 70.9302 58.6122 71.0441 59.0291C71.0471 59.0915 71.0337 59.1391 71.004 59.1718C70.926 59.1755 70.8464 59.1481 70.7654 59.0894C70.5052 58.8829 70.2624 58.5504 70.037 58.0919C69.8592 57.6468 69.7606 57.2214 69.7411 56.8156C69.7328 56.6439 69.748 56.4711 69.7866 56.2972C67.7872 56.0334 65.7731 55.9503 63.7442 56.0477C62.0899 56.1272 60.4512 56.3702 58.8282 56.7766C58.9361 57.0687 58.9968 57.3551 59.0103 57.6361C59.047 58.4008 58.7749 59.0865 58.194 59.6932C58.0766 59.8553 57.9711 59.9386 57.8775 59.9431C57.7838 59.9476 57.7333 59.8718 57.7258 59.7157C57.9662 58.8594 58.0845 58.228 58.0806 57.8215C58.0476 57.1348 57.9035 56.4143 57.6483 55.6601C57.6408 55.504 57.6838 55.4237 57.7775 55.4192ZM60.6591 57.7681L68.291 57.4015C68.667 57.4147 68.8603 57.5306 68.8708 57.7491C68.8828 57.9988 68.7327 58.1311 68.4206 58.1461L64.2301 58.3474C64.4169 58.9798 64.6643 59.5702 64.9722 60.1185L69.7713 59.888C70.1474 59.9012 70.3407 60.0171 70.3512 60.2356C70.3632 60.4853 70.2131 60.6176 69.901 60.6326L65.3827 60.8497C65.3991 60.8645 65.4076 60.8798 65.4084 60.8954C66.3716 62.7106 66.891 64.4064 66.9668 65.9827C67.1564 69.9313 65.0531 73.3643 60.6567 76.2817C60.4918 76.4304 60.3547 76.5074 60.2455 76.5126C60.1362 76.5179 60.079 76.4659 60.0737 76.3566C64.2165 73.0447 66.2028 69.6173 66.0326 66.0745C65.9599 64.5606 65.6178 63.1379 65.0063 61.8063C64.8338 61.4705 64.6861 61.1647 64.5634 60.889L59.1555 61.1488C58.8434 61.1638 58.6813 61.0464 58.6693 60.7967C58.6588 60.5782 58.8713 60.4428 59.3068 60.3906L64.2933 60.1511C64.0909 59.5195 63.9684 58.9231 63.9258 58.362L60.5078 58.5262C60.1957 58.5412 60.0336 58.4238 60.0216 58.1741C60.0111 57.9556 60.2236 57.8203 60.6591 57.7681Z" fill="#F2C5FF"/>
<path id="Intersect" d="M94.6593 45.1254C94.3657 45.3046 94.0679 45.4846 93.7647 45.6628C85.6315 50.4431 73.8729 54.9746 60.3718 58.174L60.368 58.1745L59.1008 58.4699L59.097 58.4713C55.2964 59.3411 51.5584 60.0565 47.9345 60.6233L47.2069 57.7084C51.2098 57.0875 55.3677 56.2792 59.6078 55.2745L60.8585 54.9733C73.7281 51.8182 84.7925 47.4695 92.3638 42.9842L93.0863 42.5499C93.3598 42.3825 93.6272 42.2144 93.8898 42.0475L94.6593 45.1254Z" fill="url(#paint0_linear_733_317)"/>
</g>
<path id="Polygon 8" d="M12.8731 13.509C12.8419 12.7342 13.5427 12.1336 14.3036 12.2831L35.8031 16.5084C36.9635 16.7365 37.1292 18.3283 36.0407 18.7904L23.9022 23.9443C23.682 24.0378 23.4947 24.195 23.3645 24.3957L15.955 35.817C15.3182 36.7987 13.7964 36.3815 13.7492 35.2124L12.8731 13.509Z" fill="#803096"/>
<path id="Polygon 9" d="M13.3726 12.4847C13.3545 12.0329 13.7633 11.6825 14.2069 11.7695L35.7064 15.9951C36.3833 16.1281 36.4803 17.0567 35.8453 17.3263L23.707 22.48C23.4339 22.596 23.1966 22.7813 23.0179 23.0164L22.9452 23.1196L15.5357 34.5406C15.1643 35.1132 14.2768 34.8702 14.2493 34.1882L13.3726 12.4847Z" stroke="white"/>
</g>
<defs>
<filter id="filter0_f_733_317" x="14.9082" y="15.1066" width="77.8758" height="78.3922" filterUnits="userSpaceOnUse" color-interpolation-filters="sRGB">
<feFlood flood-opacity="0" result="BackgroundImageFix"/>
<feBlend mode="normal" in="SourceGraphic" in2="BackgroundImageFix" result="shape"/>
<feGaussianBlur stdDeviation="4.6" result="effect1_foregroundBlur_733_317"/>
</filter>
<linearGradient id="paint0_linear_733_317" x1="54.6516" y1="53.4812" x2="93.618" y2="48.6352" gradientUnits="userSpaceOnUse">
<stop stop-color="white" stop-opacity="0"/>
<stop offset="0.504808" stop-color="#FFE734"/>
<stop offset="1" stop-color="white" stop-opacity="0"/>
</linearGradient>
</defs>
</svg>
