<svg width="118" height="141" viewBox="0 0 118 141" fill="none" xmlns="http://www.w3.org/2000/svg">
<line x1="115.541" y1="0.00195313" x2="115.541" y2="115.002" stroke="white" stroke-width="3"/>
<line x1="116.041" y1="1.52148" x2="3.00246" y2="1.52148" stroke="white" stroke-width="3"/>
<path d="M0.0410156 117.002V114.002H33.0625C33.0499 114.334 33.041 114.667 33.041 115.002C33.041 115.675 33.067 116.342 33.1172 117.002H0.0410156ZM84.9648 117.002C85.0151 116.342 85.041 115.675 85.041 115.002C85.041 114.667 85.0331 114.334 85.0205 114.002H117.041V117.002H84.9648Z" fill="white"/>
<path d="M85.041 115.002C85.041 129.361 73.4004 141.002 59.041 141.002C44.6816 141.002 33.041 129.361 33.041 115.002C33.041 114.667 33.0499 114.334 33.0625 114.002H36.0645C36.0503 114.334 36.041 114.667 36.041 115.002C36.041 127.705 46.3385 138.002 59.041 138.002C71.7436 138.002 82.041 127.705 82.041 115.002C82.041 114.667 82.0327 114.334 82.0186 114.002H85.0205C85.0331 114.334 85.041 114.667 85.041 115.002Z" fill="white"/>
<path d="M3.04102 0.00195312L0.0410156 0.000976562L0.0351562 33.0029C0.0371094 33.0029 0.0390624 33.002 0.0410156 33.002C1.05372 33.002 2.05263 33.0621 3.03516 33.1748L3.04102 0.00195312ZM3.02637 84.8311C2.04671 84.9431 1.05066 85.002 0.0410156 85.002C0.0361325 85.002 0.0312497 85.002 0.0263672 85.002L0.0214844 115.982L3.02148 115.983L3.02637 84.8311Z" fill="white"/>
<path d="M0.0410156 85.002C14.4004 85.002 26.041 73.3614 26.041 59.002C26.041 44.6426 14.4004 33.002 0.0410156 33.002V36.002C12.7436 36.002 23.041 46.2994 23.041 59.002C23.041 71.7045 12.7436 82.002 0.0410156 82.002V85.002Z" fill="white"/>
</svg>
