<svg width="142" height="118" viewBox="0 0 142 118" fill="none" xmlns="http://www.w3.org/2000/svg">
<line x1="141.021" y1="115.521" x2="26.0205" y2="115.521" stroke="white" stroke-width="3"/>
<line x1="139.501" y1="116.021" x2="139.501" y2="2.98195" stroke="white" stroke-width="3"/>
<path d="M24.0205 0.0205078H27.0205V33.042C26.6887 33.0294 26.3554 33.0205 26.0205 33.0205C25.3476 33.0205 24.6806 33.0465 24.0205 33.0967V0.0205078ZM24.0205 84.9443C24.6806 84.9946 25.3476 85.0205 26.0205 85.0205C26.3554 85.0205 26.6887 85.0125 27.0205 85V117.021H24.0205V84.9443Z" fill="white"/>
<path d="M26.0205 85.0205C11.6611 85.0205 0.0205078 73.3799 0.0205078 59.0205C0.0205078 44.6611 11.6611 33.0205 26.0205 33.0205C26.3554 33.0205 26.6887 33.0294 27.0205 33.042V36.0439C26.6889 36.0298 26.3556 36.0205 26.0205 36.0205C13.318 36.0205 3.02051 46.318 3.02051 59.0205C3.02051 71.7231 13.318 82.0205 26.0205 82.0205C26.3556 82.0205 26.6889 82.0122 27.0205 81.998V85C26.6887 85.0125 26.3554 85.0205 26.0205 85.0205Z" fill="white"/>
<path d="M141.021 3.02051L141.021 0.0205078L108.02 0.0146484C108.02 0.0166016 108.021 0.0185546 108.021 0.0205078C108.021 1.03321 107.96 2.03212 107.848 3.01465L141.021 3.02051ZM56.1914 3.00586C56.0794 2.0262 56.0205 1.03015 56.0205 0.0205078C56.0205 0.0156247 56.0205 0.0107419 56.0205 0.00585938L25.04 0.000976562L25.0391 3.00098L56.1914 3.00586Z" fill="white"/>
<path d="M56.0205 0.0205078C56.0205 14.3799 67.6611 26.0205 82.0205 26.0205C96.3799 26.0205 108.021 14.3799 108.021 0.0205078H105.021C105.021 12.7231 94.7231 23.0205 82.0205 23.0205C69.318 23.0205 59.0205 12.7231 59.0205 0.0205078H56.0205Z" fill="white"/>
</svg>
