<svg width="118" height="141" viewBox="0 0 118 141" fill="none" xmlns="http://www.w3.org/2000/svg">
<line x1="1.50098" y1="141" x2="1.50098" y2="26" stroke="white" stroke-width="3"/>
<line x1="1.00098" y1="139.48" x2="114.04" y2="139.48" stroke="white" stroke-width="3"/>
<path d="M117.001 23.999V26.999H83.9795C83.992 26.6672 84.001 26.3339 84.001 25.999C84.001 25.3261 83.975 24.6591 83.9248 23.999H117.001ZM32.0771 23.999C32.0269 24.6591 32.001 25.3261 32.001 25.999C32.001 26.3339 32.0089 26.6672 32.0215 26.999H0.000976562V23.999H32.0771Z" fill="white"/>
<path d="M32.001 25.999C32.001 11.6396 43.6416 -0.000976562 58.001 -0.000976562C72.3604 -0.000976562 84.001 11.6396 84.001 25.999C84.001 26.3339 83.992 26.6672 83.9795 26.999H80.9775C80.9917 26.6674 81.001 26.3341 81.001 25.999C81.001 13.2965 70.7035 2.99902 58.001 2.99902C45.2984 2.99902 35.001 13.2965 35.001 25.999C35.001 26.3341 35.0093 26.6674 35.0234 26.999H32.0215C32.0089 26.6672 32.001 26.3339 32.001 25.999Z" fill="white"/>
<path d="M114.001 140.999L117.001 141L117.007 107.998C117.005 107.998 117.003 107.999 117.001 107.999C115.988 107.999 114.989 107.939 114.007 107.826L114.001 140.999ZM114.016 56.1699C114.995 56.0579 115.991 55.999 117.001 55.999C117.006 55.999 117.011 55.999 117.016 55.999L117.021 25.0186L114.021 25.0176L114.016 56.1699Z" fill="white"/>
<path d="M117.001 55.999C102.642 55.999 91.001 67.6396 91.001 81.999C91.001 96.3584 102.642 107.999 117.001 107.999V104.999C104.298 104.999 94.001 94.7016 94.001 81.999C94.001 69.2965 104.298 58.999 117.001 58.999V55.999Z" fill="white"/>
</svg>
