<svg width="141" height="118" viewBox="0 0 141 118" fill="none" xmlns="http://www.w3.org/2000/svg">
<line x1="0.000976563" y1="1.50098" x2="115.001" y2="1.50098" stroke="white" stroke-width="3"/>
<line x1="1.52051" y1="1.00098" x2="1.5205" y2="114.04" stroke="white" stroke-width="3"/>
<path d="M117.001 117.001H114.001V83.9795C114.333 83.992 114.666 84.001 115.001 84.001C115.674 84.001 116.341 83.975 117.001 83.9248V117.001ZM117.001 32.0771C116.341 32.0269 115.674 32.001 115.001 32.001C114.666 32.001 114.333 32.0089 114.001 32.0215V0.000976562H117.001V32.0771Z" fill="white"/>
<path d="M115.001 32.001C129.36 32.001 141.001 43.6416 141.001 58.001C141.001 72.3604 129.36 84.001 115.001 84.001C114.666 84.001 114.333 83.992 114.001 83.9795V80.9775C114.333 80.9917 114.666 81.001 115.001 81.001C127.704 81.001 138.001 70.7035 138.001 58.001C138.001 45.2984 127.704 35.001 115.001 35.001C114.666 35.001 114.333 35.0093 114.001 35.0234V32.0215C114.333 32.0089 114.666 32.001 115.001 32.001Z" fill="white"/>
<path d="M0.000976562 114.001L0 117.001L33.002 117.007C33.002 117.005 33.001 117.003 33.001 117.001C33.001 115.988 33.0612 114.989 33.1738 114.007L0.000976562 114.001ZM84.8301 114.016C84.9421 114.995 85.001 115.991 85.001 117.001C85.001 117.006 85.001 117.011 85.001 117.016L115.981 117.021L115.982 114.021L84.8301 114.016Z" fill="white"/>
<path d="M85.001 117.001C85.001 102.642 73.3604 91.001 59.001 91.001C44.6416 91.001 33.001 102.642 33.001 117.001H36.001C36.001 104.298 46.2984 94.001 59.001 94.001C71.7035 94.001 82.001 104.298 82.001 117.001H85.001Z" fill="white"/>
</svg>
