<svg width="168" height="120" viewBox="0 0 168 120" fill="none" xmlns="http://www.w3.org/2000/svg">
<path d="M77.9139 11.3595C104.989 8.21716 129.49 27.6365 132.635 54.7367C135.78 81.8371 116.379 106.352 89.3035 109.495C62.2281 112.637 37.7275 93.217 34.5822 66.1166C31.4373 39.0164 50.8387 14.5019 77.9139 11.3595Z" stroke="white" stroke-width="3"/>
<path d="M78.6565 14.7316C103.349 11.8659 125.718 29.7435 128.612 54.6733C131.505 79.6033 113.825 102.13 89.1325 104.996C64.4401 107.862 42.0704 89.9831 39.177 65.0531C36.2839 40.1232 53.9642 17.5973 78.6565 14.7316Z" stroke="white"/>
<g filter="url(#filter0_f_355_380)">
<path d="M78.4948 14.1739C103.363 11.2877 125.899 29.2881 128.813 54.3999C131.728 79.5117 113.914 102.195 89.0454 105.081C64.1774 107.967 41.6422 89.9668 38.7277 64.8552C35.8134 39.7436 53.6269 17.0603 78.4948 14.1739Z" stroke="white" stroke-width="2"/>
</g>
<path d="M120.237 25.7507C141.647 25.244 157.034 29.1817 159.46 37.1005L159.544 37.3974C162.859 50.0454 132.272 67.8868 90.7984 77.4109L88.8431 77.8521C48.1749 86.8579 12.4789 84.3679 8.18665 72.1556L8.08859 71.8613C5.65945 63.931 16.8057 53.8896 35.7415 45.1338C35.2476 46.4301 34.8341 47.7477 34.5079 49.0835C31.8084 50.4033 29.2964 51.746 26.992 53.0989C20.9221 56.6626 16.4413 60.2124 13.7364 63.4903C10.983 66.8271 10.4576 69.3762 11.0131 71.1896C11.5686 73.003 13.4846 74.9914 17.7862 76.7082C22.0118 78.3945 27.9348 79.556 35.2465 80.0466C49.8321 81.0254 69.229 79.2943 89.9199 74.5428C110.611 69.7914 128.448 62.9716 140.556 55.8629C146.626 52.2991 151.107 48.7493 153.812 45.4714C156.565 42.1345 157.091 39.5845 156.536 37.7711C155.98 35.9578 154.064 33.97 149.763 32.2534C145.537 30.567 139.614 29.4058 132.302 28.9151C129.553 28.7307 126.634 28.6426 123.568 28.6527C122.523 27.6374 121.412 26.6679 120.237 25.7507Z" fill="white" fill-opacity="0.8"/>
<path d="M62.4768 37.5388C62.8149 37.5226 63.0467 37.7331 63.1719 38.1703C65.4707 37.7209 67.7647 37.4413 70.0537 37.3313C72.3947 37.2189 74.703 37.2384 76.9785 37.3898C77.0923 37.0454 77.2898 36.8143 77.5709 36.6965C78.0454 36.8041 78.2976 37.17 78.3276 37.7943C78.3863 39.0168 78.2368 39.9756 77.8792 40.6707C77.2938 42.0545 74.9345 42.8718 70.8011 43.1225C66.5327 43.2753 63.8445 42.6745 62.7366 41.3198C62.2707 40.8468 62.0065 39.96 61.944 38.6595C61.9871 37.9274 62.1646 37.5538 62.4768 37.5388ZM76.8415 38.6087C75.6908 38.5336 74.5289 38.4982 73.3559 38.5024C73.4129 38.6039 73.4433 38.6937 73.447 38.7718L73.5763 41.464C75.0242 41.2119 75.893 40.8443 76.1827 40.3611C76.5121 40.1628 76.7317 39.5786 76.8415 38.6087ZM72.0664 38.5252C71.3628 38.5329 70.6989 38.5518 70.0746 38.5818C69.4243 38.613 68.8137 38.6554 68.2427 38.7089C68.2737 38.8117 68.2911 38.9021 68.2948 38.9801L68.4298 41.7894C69.1358 41.8337 69.866 41.8377 70.6204 41.8015C71.1926 41.774 71.7116 41.723 72.1773 41.6485L72.0424 38.8392C72.0374 38.7352 72.0454 38.6305 72.0664 38.5252ZM66.8808 38.8525C65.688 38.988 64.5231 39.1613 63.3861 39.3723C63.6329 40.1687 63.918 40.6764 64.2414 40.8956C64.8857 41.2818 65.8111 41.5502 67.0176 41.7008L66.8808 38.8525ZM59.7985 44.4722L80.2047 43.492C80.8315 43.5141 81.1536 43.7072 81.1711 44.0713C81.1911 44.4875 80.941 44.7081 80.4207 44.7331L59.5464 45.7358C59.0261 45.7607 58.756 45.5651 58.736 45.149C58.7185 44.7848 59.0727 44.5592 59.7985 44.4722ZM67.3804 51.6949C65.5693 51.4429 64.3539 50.8365 63.7342 49.8755C63.345 49.3728 63.1192 48.4711 63.0567 47.1706C63.0998 46.4385 63.2774 46.0649 63.5895 46.05C63.9797 46.0312 64.2146 46.3067 64.2941 46.8765C66.36 46.4644 68.4334 46.2084 70.5144 46.1084C72.4913 46.0135 74.436 46.0634 76.3486 46.2584C76.4352 45.8892 76.632 45.6451 76.9392 45.5261C77.3876 45.6349 77.6249 45.9624 77.6512 46.5086C77.7111 47.7572 77.5883 48.7278 77.2826 49.4203C76.6961 50.7781 74.5188 51.5867 70.7509 51.8459C71.5352 52.4339 72.2924 53.2709 73.0224 54.357C73.0707 54.2764 73.1196 54.2089 73.1691 54.1544L76.9828 52.1331C77.2639 52.0153 77.5085 51.9514 77.7166 51.9415C78.0337 52.0305 78.1973 52.1791 78.2073 52.3872C78.2223 52.6993 78.0787 52.9669 77.7766 53.19L74.0019 55.2094C73.8496 55.2949 73.7214 55.3402 73.6174 55.3452C74.1243 56.129 74.6096 57.0052 75.0733 57.9737C77.2118 62.3292 79.8541 65.7741 83.0001 68.3084C83.0064 68.4384 82.9575 68.506 82.8534 68.511C82.7494 68.516 82.6279 68.4305 82.4891 68.2547C78.4947 65.9698 75.6098 62.9015 73.8344 59.05C72.2436 55.2417 71.0337 52.8491 70.2046 51.8721C69.6584 51.8983 69.1623 51.8831 68.7163 51.8263C67.6018 52.5055 66.5543 53.4944 65.5738 54.7929C66.0485 55.448 66.3337 56.2295 66.4294 57.1374L66.7218 63.2241C66.7019 66.0669 65.7156 68.3304 63.7629 70.0145C63.6689 70.2276 63.5438 70.3379 63.3878 70.3454C63.2577 70.3517 63.1889 70.2768 63.1814 70.1207C64.6819 68.2497 65.3938 65.9733 65.3172 63.2916L64.9761 56.1904C64.5924 56.8867 64.1974 57.3489 63.7912 57.577C62.4899 58.7084 60.9276 59.5656 59.1045 60.1486C58.7516 60.4001 58.4841 60.5303 58.302 60.5391C58.12 60.5478 57.9973 60.4364 57.934 60.2048C58.6238 59.9109 59.5124 59.412 60.5996 58.708C62.1686 57.7201 63.2185 56.5095 63.7493 55.0761C64.3299 54.1357 65.0975 53.2906 66.0522 52.5408C66.5315 52.205 66.9742 51.923 67.3804 51.6949ZM76.2506 47.4754C74.3393 47.3065 72.4212 47.2683 70.4963 47.3607C68.4934 47.4569 66.4968 47.6832 64.5064 48.0395C64.6739 48.8136 64.8927 49.2985 65.1628 49.4941C66.1145 50.3087 67.8389 50.6561 70.336 50.5361C73.4054 50.3887 75.1684 49.9129 75.6252 49.1088C75.9546 48.9105 76.1631 48.366 76.2506 47.4754ZM69.1958 34.1266L68.5896 32.9043L68.5859 32.8263C68.5709 32.5141 68.7572 32.3227 69.1449 32.2519C69.405 32.2394 69.6206 32.3855 69.7916 32.6901L70.4406 33.9886C70.4679 34.0134 70.4821 34.0388 70.4834 34.0648C73.476 33.9471 76.411 33.9886 79.2886 34.1893C79.4829 33.8932 79.7064 33.6609 79.959 33.4923C80.0518 33.2532 80.1893 33.1293 80.3714 33.1205C80.5534 33.1118 80.6501 33.2245 80.6613 33.4586C80.4275 34.0173 80.3261 34.6218 80.3574 35.2721C80.4149 36.4687 80.7306 37.6137 81.3045 38.7072C81.3158 38.9413 81.2694 39.0609 81.1653 39.0659C81.0353 39.0721 80.8748 38.9886 80.684 38.8152C79.601 37.9808 79.0265 36.8743 78.9602 35.4957L78.9565 35.4176C75.9489 35.2232 72.8974 35.2003 69.802 35.3489C66.8627 35.4901 63.9068 35.8276 60.9342 36.3615C61.0004 37.7401 60.4695 38.8997 59.3414 39.8404C59.1681 40.0312 59.0164 40.1297 58.8863 40.136C58.7823 40.141 58.7246 40.0264 58.7134 39.7923C59.31 38.6426 59.5795 37.4694 59.522 36.2729C59.4883 35.5706 59.327 34.9265 59.0381 34.3408C59.0256 34.0807 59.1104 33.9462 59.2925 33.9375C59.4746 33.9287 59.6239 34.0519 59.7405 34.307C60.1406 34.4964 60.4405 34.7688 60.6401 35.1242C63.5359 34.6201 66.3878 34.2876 69.1958 34.1266ZM88.8088 60.1766C89.0169 60.1666 89.1793 60.2891 89.2958 60.5443C89.5684 60.7919 89.776 61.0426 89.9185 61.2965C92.8291 60.557 95.7801 60.1155 98.7714 59.9718L98.2024 58.7086C98.1751 58.6838 98.1608 58.6584 98.1596 58.6324C98.1446 58.3203 98.3569 58.1276 98.7966 58.0543C99.0568 58.0418 99.2724 58.1879 99.4434 58.4925L100.139 59.9452C103.211 59.8498 106.256 60.0164 109.275 60.445C109.612 59.8552 110.069 59.3379 110.647 58.893C110.777 58.8867 110.844 58.9226 110.848 59.0006C110.851 59.0527 110.804 59.1592 110.707 59.3203C110.351 60.5888 110.196 61.7043 110.242 62.6668C110.263 63.109 110.328 63.6403 110.436 64.2608C110.569 64.8541 110.73 65.4982 110.92 66.193C110.925 66.297 110.903 66.3763 110.853 66.4308C110.723 66.4371 110.59 66.3913 110.455 66.2935C110.022 65.9493 109.617 65.3952 109.241 64.6311C108.945 63.8892 108.781 63.1802 108.748 62.5039C108.734 62.2177 108.76 61.9297 108.824 61.6399C105.492 61.2003 102.135 61.0617 98.7534 61.2241C95.9961 61.3565 93.265 61.7615 90.56 62.4389C90.7398 62.9256 90.841 63.4031 90.8635 63.8713C90.9247 65.1459 90.4712 66.2888 89.503 67.2999C89.3074 67.57 89.1315 67.7088 88.9755 67.7163C88.8194 67.7238 88.7351 67.5975 88.7226 67.3374C89.1234 65.9103 89.3205 64.8579 89.314 64.1804C89.259 63.0359 89.0189 61.8351 88.5935 60.578C88.581 60.3179 88.6528 60.1841 88.8088 60.1766ZM93.6116 64.0913L106.331 63.4803C106.958 63.5024 107.28 63.6955 107.298 64.0596C107.318 64.4758 107.068 64.6964 106.547 64.7214L99.5632 65.0569C99.8745 66.1108 100.287 67.0948 100.8 68.0087L108.799 67.6245C109.425 67.6466 109.747 67.8397 109.765 68.2038C109.785 68.62 109.535 68.8406 109.015 68.8656L101.484 69.2273C101.511 69.2521 101.526 69.2774 101.527 69.3035C103.132 72.3289 103.998 75.1552 104.124 77.7824C104.44 84.3633 100.935 90.085 93.6076 94.9473C93.3327 95.1952 93.1042 95.3235 92.9221 95.3322C92.7401 95.341 92.6446 95.2543 92.6359 95.0722C99.5405 89.5523 102.851 83.84 102.567 77.9354C102.446 75.4122 101.876 73.041 100.857 70.8217C100.569 70.262 100.323 69.7524 100.119 69.2929L91.1056 69.7258C90.5853 69.7508 90.3152 69.5552 90.2952 69.139C90.2777 68.7749 90.6319 68.5493 91.3577 68.4623L99.6685 68.0631C99.3311 67.0103 99.1269 66.0164 99.056 65.0812L93.3594 65.3548C92.8392 65.3798 92.5691 65.1842 92.5491 64.768C92.5316 64.4039 92.8857 64.1783 93.6116 64.0913Z" fill="white"/>
<path d="M146.418 49.1731C145.916 49.481 145.406 49.7907 144.885 50.097C132.267 57.5134 113.993 64.5609 92.9843 69.5393L92.9814 69.5397L91.0065 69.9998L91.0028 70.0013C85.0728 71.3583 79.2425 72.4748 73.5925 73.3575L72.8648 70.4426C79.118 69.4709 85.6076 68.2069 92.2212 66.6396L94.1789 66.1678C114.316 61.2312 131.671 54.4176 143.59 47.357L144.727 46.6724C145.039 46.4813 145.347 46.2899 145.65 46.0989L146.418 49.1731Z" fill="url(#paint0_linear_355_380)"/>
<defs>
<filter id="filter0_f_355_380" x="28.216" y="3.66914" width="111.109" height="111.916" filterUnits="userSpaceOnUse" color-interpolation-filters="sRGB">
<feFlood flood-opacity="0" result="BackgroundImageFix"/>
<feBlend mode="normal" in="SourceGraphic" in2="BackgroundImageFix" result="shape"/>
<feGaussianBlur stdDeviation="4.6" result="effect1_foregroundBlur_355_380"/>
</filter>
<linearGradient id="paint0_linear_355_380" x1="84.3355" y1="63.0487" x2="144.91" y2="55.5154" gradientUnits="userSpaceOnUse">
<stop stop-color="white" stop-opacity="0"/>
<stop offset="0.504808" stop-color="#FFE734"/>
<stop offset="1" stop-color="white" stop-opacity="0"/>
</linearGradient>
</defs>
</svg>
