<svg width="1789" height="4815" viewBox="0 0 1789 4815" fill="none" xmlns="http://www.w3.org/2000/svg">
<path d="M1616 1404.17C1659.8 1508.02 1654.51 1604.6 1610.97 1700.85C1564.94 1802.6 1476.18 1903.96 1357.65 2013.23L1354.61 2016.03C1096.11 2252.7 785.912 2328.8 588.316 2398.44C489.172 2433.39 243.016 2557.05 103.497 2749.88C33.7596 2846.27 -9.29678 2959.89 5.89285 3088.34C21.0838 3216.8 94.5501 3360.25 258.192 3516.28C422.022 3672.48 505.191 3809.7 535.667 3931.48C566.15 4053.3 543.888 4159.56 497.085 4253.76C450.298 4347.93 378.975 4430.07 311.324 4503.67C243.615 4577.34 179.681 4642.37 147.382 4702.47C115.181 4762.4 119.404 4826.69 137.304 4887.96C155.213 4949.26 186.747 5007.35 209.032 5054.89C220.156 5078.62 228.993 5099.77 232.598 5117.32C236.2 5134.86 234.631 5149.11 224.533 5158.7C214.507 5168.23 196.341 5172.87 167.527 5172.02C138.659 5171.17 98.8538 5164.79 45.2688 5151.97L45.7346 5150.03C99.2739 5162.84 138.922 5169.18 167.585 5170.02C196.301 5170.87 213.746 5166.19 223.157 5157.25C232.496 5148.38 234.193 5135.03 230.639 5117.72C227.087 5100.43 218.346 5079.47 207.22 5055.74C185.005 5008.34 153.351 4950.02 135.385 4888.52C117.41 4827 113.071 4762.1 145.62 4701.53C178.073 4641.13 242.265 4575.85 309.852 4502.32C377.498 4428.72 448.645 4346.76 495.294 4252.87C541.929 4159.01 564.071 4053.23 533.726 3931.97C503.373 3810.68 420.48 3673.77 256.812 3517.72C92.9539 3361.5 19.169 3217.64 3.90652 3088.57C-11.357 2959.5 31.9296 2845.39 101.877 2748.71C241.73 2555.41 488.315 2431.57 587.652 2396.56C785.465 2326.84 1095.14 2250.88 1353.26 2014.55L1356.3 2011.76C1474.78 1902.53 1563.29 1801.4 1609.15 1700.02C1651.84 1605.63 1657.57 1511.02 1616 1409.38V1404.17ZM1789.35 1.34277C1789.61 2.30811 1789.61 2.30826 1789.6 2.30859C1789.6 2.30893 1789.6 2.30892 1789.6 2.30957C1789.59 2.31109 1789.58 2.31425 1789.57 2.31738C1789.55 2.32364 1789.51 2.33303 1789.47 2.3457C1789.37 2.37132 1789.23 2.40983 1789.05 2.46191C1788.67 2.56631 1788.11 2.72523 1787.37 2.93945C1785.88 3.36791 1783.67 4.02121 1780.77 4.91699C1774.96 6.70867 1766.38 9.47173 1755.32 13.3574C1733.19 21.129 1701.12 33.3878 1661.39 51.332C1581.92 87.2211 1471.76 145.851 1349.08 236.803L1344.14 240.469C1240.78 317.419 1151.91 393.85 1092.5 484.619C1032.17 576.789 1002.19 683.787 1018.34 821.227C1026.4 889.775 1060.16 944.544 1108.12 991.857C1125.26 1008.77 1144.2 1024.72 1164.42 1040H1161.11C1141.62 1025.16 1123.32 1009.67 1106.71 993.281C1058.54 945.747 1024.48 890.581 1016.35 821.459C1000.14 683.556 1030.24 576.087 1090.82 483.523C1150.44 392.446 1239.55 315.841 1342.95 238.863L1347.89 235.197C1470.7 144.149 1580.98 85.4495 1660.57 49.5098C1700.36 31.5399 1732.48 19.2599 1754.65 11.4707C1765.74 7.57608 1774.34 4.80386 1780.18 3.00488C1783.09 2.10545 1785.32 1.44933 1786.82 1.01758C1787.56 0.801794 1788.13 0.642088 1788.51 0.536133C1788.7 0.483307 1788.84 0.443365 1788.94 0.416992C1788.99 0.403825 1789.02 0.393373 1789.05 0.386719C1789.06 0.383401 1789.07 0.381586 1789.08 0.379883C1789.08 0.379042 1789.08 0.378346 1789.08 0.37793C1789.09 0.383927 1789.11 0.459371 1789.35 1.34277Z" fill="url(#paint0_linear_229_842)"/>
<defs>
<linearGradient id="paint0_linear_229_842" x1="36.9141" y1="4843.44" x2="2884.58" y2="4692.76" gradientUnits="userSpaceOnUse">
<stop offset="0.0192308" stop-color="white"/>
<stop offset="0.117788" stop-color="white" stop-opacity="0.75"/>
<stop offset="0.908654" stop-color="white" stop-opacity="0"/>
</linearGradient>
</defs>
</svg>
