<svg width="225" height="56" viewBox="0 0 225 56" fill="none" xmlns="http://www.w3.org/2000/svg">
<rect x="0.763672" width="224" height="56" rx="28" fill="black"/>
<mask id="mask0_227_2298" style="mask-type:alpha" maskUnits="userSpaceOnUse" x="0" y="0" width="225" height="56">
<rect x="0.763672" width="224" height="56" rx="28" fill="black"/>
</mask>
<g mask="url(#mask0_227_2298)">
<g filter="url(#filter0_f_227_2298)">
<path d="M43.6507 -4C43.6507 10.3594 -0.176207 47 -17.8493 47C-35.5224 47 -27.3493 13.3594 -27.3493 -1C-27.3493 -15.3594 -13.0225 -27 4.65065 -27C22.3238 -27 43.6507 -18.3594 43.6507 -4Z" fill="#803096" fill-opacity="0.8"/>
</g>
<g filter="url(#filter1_f_227_2298)">
<ellipse cx="185.264" rx="25.5" ry="26" fill="#4630BF" fill-opacity="0.8"/>
</g>
</g>
<rect x="1.26367" y="0.5" width="223" height="55" rx="27.5" stroke="url(#paint0_linear_227_2298)"/>
<path d="M57.6837 19.528H73.6917L75.2997 17.464L78.0357 19.408C78.1317 19.488 78.1797 19.584 78.1797 19.696C78.1797 19.808 78.1077 19.904 77.9637 19.984C77.8357 20.064 77.6597 20.104 77.4357 20.104H73.1157V26.848H74.2917L75.9717 24.592L78.8997 26.728C78.9957 26.808 79.0437 26.904 79.0437 27.016C79.0437 27.128 78.9717 27.224 78.8277 27.304C78.6997 27.384 78.5237 27.424 78.2997 27.424H73.1157V30.664C73.1157 30.824 73.1157 31.184 73.1157 31.744C73.1317 32.304 73.1477 32.944 73.1637 33.664C73.1797 34.384 73.1877 35.136 73.1877 35.92C73.2037 36.688 73.2117 37.368 73.2117 37.96C73.2117 38.376 73.0437 38.616 72.7077 38.68C72.2757 38.76 71.8117 38.816 71.3157 38.848C70.8197 38.896 70.3957 38.912 70.0437 38.896C70.0597 38.368 70.0757 37.76 70.0917 37.072C70.1077 36.4 70.1237 35.728 70.1397 35.056C70.1557 34.384 70.1637 33.752 70.1637 33.16C70.1797 32.568 70.1877 32.104 70.1877 31.768V27.424H65.0517C65.0037 28.912 64.8437 30.24 64.5717 31.408C64.2997 32.576 63.8597 33.624 63.2517 34.552C62.6597 35.48 61.8677 36.304 60.8757 37.024C59.8837 37.76 58.6277 38.44 57.1077 39.064L57.0117 38.944C58.0197 37.952 58.8437 37.032 59.4837 36.184C60.1237 35.32 60.6277 34.456 60.9957 33.592C61.3797 32.712 61.6437 31.784 61.7877 30.808C61.9477 29.816 62.0437 28.688 62.0757 27.424H56.5317V26.848H62.0997V26.2V20.104H57.6837V19.528ZM65.0757 26.056C65.0757 26.184 65.0677 26.32 65.0517 26.464C65.0517 26.592 65.0517 26.72 65.0517 26.848H70.1877V20.104H65.0757V26.056ZM98.3157 21.064C99.5957 21.64 100.628 22.16 101.412 22.624C102.196 23.088 102.804 23.52 103.236 23.92C103.668 24.304 103.956 24.68 104.1 25.048C104.244 25.4 104.316 25.76 104.316 26.128C104.316 26.4 104.26 26.664 104.148 26.92C104.052 27.16 103.924 27.368 103.764 27.544C103.604 27.72 103.42 27.864 103.212 27.976C103.02 28.072 102.82 28.12 102.612 28.12C102.052 28.12 101.66 27.824 101.436 27.232C101.292 26.864 101.148 26.52 101.004 26.2C100.876 25.864 100.748 25.536 100.62 25.216C99.2277 25.76 97.8517 26.24 96.4917 26.656C95.1477 27.056 93.7717 27.416 92.3637 27.736L91.8357 28.648L95.3397 29.584H99.5157L100.356 27.808L103.788 29.536L102.852 30.52V33.472C102.852 33.856 102.852 34.48 102.852 35.344C102.868 36.192 102.892 37.128 102.924 38.152C102.924 38.392 102.892 38.568 102.828 38.68C102.764 38.792 102.62 38.872 102.396 38.92C102.076 39 101.684 39.056 101.22 39.088C100.772 39.136 100.34 39.168 99.9237 39.184V37.432H94.6917V38.104C94.6917 38.376 94.6357 38.576 94.5237 38.704C94.4277 38.832 94.2597 38.92 94.0197 38.968C93.6517 39.048 93.2597 39.104 92.8437 39.136C92.4277 39.168 92.0517 39.184 91.7157 39.184C91.7477 38.224 91.7717 37.352 91.7877 36.568C91.8037 35.768 91.8117 34.984 91.8117 34.216V31.576C91.8117 31.016 91.8117 30.48 91.8117 29.968C91.8117 29.44 91.7957 29.008 91.7637 28.672L90.3237 25.096C91.2357 25.016 91.8757 24.712 92.2437 24.184C92.5317 23.752 92.8117 23.248 93.0837 22.672C93.3557 22.096 93.6117 21.496 93.8517 20.872C94.0917 20.248 94.2997 19.624 94.4757 19C94.6677 18.376 94.8037 17.8 94.8837 17.272L99.1317 18.808L97.9077 19.504C97.0917 20.608 96.2277 21.616 95.3157 22.528C94.4197 23.44 93.4677 24.328 92.4597 25.192L100.356 24.616C100.084 24.056 99.7797 23.504 99.4437 22.96C99.1237 22.416 98.7237 21.808 98.2437 21.136L98.3157 21.064ZM82.5477 30.496C82.7877 29.344 82.9877 28.184 83.1477 27.016C83.3237 25.832 83.4837 24.616 83.6277 23.368H81.7077V22.792H83.6997C83.7317 22.616 83.7477 22.448 83.7477 22.288C83.7637 22.128 83.7877 21.96 83.8197 21.784C83.9157 20.92 83.9797 20.128 84.0117 19.408C84.0597 18.672 84.0837 18.04 84.0837 17.512L87.7317 18.184L86.7957 18.952C86.6997 19.576 86.6037 20.208 86.5077 20.848C86.4117 21.488 86.3157 22.136 86.2197 22.792H87.4917L88.2837 21.4L91.3557 22.936L90.4197 23.776C90.2917 25.568 90.0837 27.136 89.7957 28.48C89.5077 29.824 89.0997 31.048 88.5717 32.152C89.5157 32.568 90.1557 32.984 90.4917 33.4C90.8437 33.816 91.0197 34.24 91.0197 34.672C91.0197 35.28 90.8757 35.744 90.5877 36.064C90.2997 36.384 89.9557 36.544 89.5557 36.544C89.3957 36.544 89.2357 36.488 89.0757 36.376C88.9157 36.264 88.7157 36.048 88.4757 35.728C88.2677 35.456 88.0677 35.2 87.8757 34.96C87.6837 34.704 87.4917 34.464 87.2997 34.24C86.6437 35.12 85.8677 35.96 84.9717 36.76C84.0757 37.544 83.0037 38.368 81.7557 39.232L81.6597 39.112C82.6197 37.912 83.4437 36.8 84.1317 35.776C84.8197 34.736 85.3957 33.704 85.8597 32.68C85.3957 32.264 84.8997 31.88 84.3717 31.528C83.8437 31.16 83.2357 30.816 82.5477 30.496ZM94.6917 30.16V36.856H99.9237V30.16H94.6917ZM86.1477 23.368C85.9397 24.728 85.7237 26.048 85.4997 27.328C85.2757 28.608 85.0357 29.816 84.7797 30.952C85.3557 31.096 85.8837 31.24 86.3637 31.384C86.7957 30.232 87.1237 29.016 87.3477 27.736C87.5717 26.456 87.7237 25 87.8037 23.368H86.1477ZM123.732 25.552L122.772 26.488V28.672H125.412L126.756 26.848L129.3 28.624C129.38 28.688 129.42 28.776 129.42 28.888C129.42 28.968 129.364 29.048 129.252 29.128C129.156 29.208 128.996 29.248 128.772 29.248H123.18C123.708 29.84 124.22 30.376 124.716 30.856C125.212 31.32 125.716 31.744 126.228 32.128C126.756 32.496 127.3 32.824 127.86 33.112C128.42 33.4 129.028 33.664 129.684 33.904L129.636 34.048C129.348 34.224 129.084 34.4 128.844 34.576C128.62 34.736 128.404 34.928 128.196 35.152C128.004 35.36 127.82 35.616 127.644 35.92C127.468 36.208 127.284 36.56 127.092 36.976C126.516 36.4 126.02 35.84 125.604 35.296C125.188 34.752 124.812 34.184 124.476 33.592C124.156 32.984 123.868 32.336 123.612 31.648C123.372 30.944 123.132 30.144 122.892 29.248H122.772V38.104C122.772 38.36 122.724 38.552 122.628 38.68C122.532 38.808 122.356 38.896 122.1 38.944C121.78 39.008 121.42 39.056 121.02 39.088C120.62 39.12 120.236 39.136 119.868 39.136C119.884 38.64 119.9 38.088 119.916 37.48C119.932 36.888 119.94 36.296 119.94 35.704C119.956 35.112 119.964 34.552 119.964 34.024C119.964 33.48 119.964 33.024 119.964 32.656V32.296C119.132 33.256 118.172 34.152 117.084 34.984C115.996 35.8 114.692 36.616 113.172 37.432L113.076 37.312C113.796 36.48 114.428 35.728 114.972 35.056C115.532 34.384 116.036 33.744 116.484 33.136C116.932 32.512 117.34 31.888 117.708 31.264C118.076 30.64 118.436 29.968 118.788 29.248H114.42V28.672H119.964C119.948 28.064 119.932 27.448 119.916 26.824C119.916 26.2 119.9 25.576 119.868 24.952L123.732 25.552ZM109.692 22.6C109.692 22.456 109.692 22.216 109.692 21.88C109.692 21.528 109.684 21.12 109.668 20.656C109.668 20.176 109.66 19.664 109.644 19.12C109.628 18.56 109.612 18.008 109.596 17.464L113.604 17.992L112.548 18.928V23.104H112.644L113.628 21.712L115.5 23.056C115.612 23.12 115.668 23.208 115.668 23.32C115.668 23.432 115.596 23.52 115.452 23.584C115.324 23.648 115.148 23.68 114.924 23.68H112.548V27.64C112.98 27.56 113.436 27.464 113.916 27.352C114.396 27.224 114.9 27.096 115.428 26.968L115.5 27.112C114.348 27.912 113.364 28.568 112.548 29.08V35.896C112.548 36.392 112.492 36.816 112.38 37.168C112.268 37.536 112.068 37.848 111.78 38.104C111.492 38.376 111.108 38.592 110.628 38.752C110.148 38.912 109.548 39.04 108.828 39.136C108.78 38.736 108.716 38.384 108.636 38.08C108.556 37.792 108.436 37.536 108.276 37.312C108.132 37.104 107.932 36.92 107.676 36.76C107.42 36.6 107.1 36.456 106.716 36.328L106.764 36.184L108.852 36.28C109.412 36.296 109.692 35.976 109.692 35.32V30.712C109.548 30.824 109.396 30.912 109.236 30.976C109.076 31.04 108.908 31.112 108.732 31.192L108.06 32.176L106.74 28.504C107.172 28.472 107.628 28.432 108.108 28.384C108.604 28.32 109.132 28.248 109.692 28.168V23.68H107.004V23.104H109.692V22.6ZM121.74 21.424C122.412 21.568 123.012 21.712 123.54 21.856C124.068 21.984 124.54 22.112 124.956 22.24L125.652 19.864H117.228C117.244 19.976 117.252 20.08 117.252 20.176C117.268 20.272 117.276 20.376 117.276 20.488C117.276 21.064 117.092 21.536 116.724 21.904C116.356 22.256 115.916 22.432 115.404 22.432C115.02 22.432 114.716 22.312 114.492 22.072C114.268 21.816 114.156 21.52 114.156 21.184C114.156 20.944 114.204 20.728 114.3 20.536C114.396 20.328 114.556 20.128 114.78 19.936C115.516 19.376 116.004 18.648 116.244 17.752H116.34C116.5 18.024 116.644 18.288 116.772 18.544C116.9 18.784 117.004 19.032 117.084 19.288H125.292L126.396 17.896L129.66 20.128L128.484 20.536C127.972 20.936 127.484 21.288 127.02 21.592C126.556 21.88 126.052 22.152 125.508 22.408C125.94 22.568 126.292 22.728 126.564 22.888C126.852 23.048 127.068 23.216 127.212 23.392C127.372 23.552 127.476 23.72 127.524 23.896C127.588 24.072 127.62 24.264 127.62 24.472C127.62 24.68 127.58 24.88 127.5 25.072C127.42 25.264 127.308 25.432 127.164 25.576C127.036 25.72 126.884 25.832 126.708 25.912C126.532 25.992 126.356 26.032 126.18 26.032C125.924 26.032 125.708 25.992 125.532 25.912C125.372 25.832 125.212 25.656 125.052 25.384C124.812 25 124.572 24.64 124.332 24.304C124.092 23.968 123.836 23.648 123.564 23.344C123.292 23.04 123.004 22.744 122.7 22.456C122.396 22.168 122.052 21.864 121.668 21.544L121.74 21.424ZM114.108 26.8C115.212 25.616 116.108 24.584 116.796 23.704C117.5 22.808 118.06 21.936 118.476 21.088L121.572 23.152L120.396 23.512C119.916 23.88 119.444 24.216 118.98 24.52C118.532 24.808 118.06 25.088 117.564 25.36C117.084 25.632 116.564 25.896 116.004 26.152C115.46 26.408 114.86 26.664 114.204 26.92L114.108 26.8ZM143.964 26.368C144.364 26.048 144.724 25.728 145.044 25.408C145.38 25.072 145.66 24.744 145.884 24.424L149.22 26.68L147.924 26.968C146.58 27.608 145.092 28.24 143.46 28.864C141.828 29.488 140.172 30.048 138.492 30.544C139.852 30.528 141.388 30.512 143.1 30.496C144.812 30.464 146.588 30.424 148.428 30.376C148.188 30.024 147.932 29.688 147.66 29.368C147.404 29.048 147.116 28.736 146.796 28.432L146.868 28.336C147.892 28.56 148.756 28.792 149.46 29.032C150.164 29.272 150.74 29.528 151.188 29.8C151.636 30.072 151.956 30.368 152.148 30.688C152.356 31.008 152.46 31.344 152.46 31.696C152.46 32.256 152.292 32.72 151.956 33.088C151.62 33.44 151.26 33.616 150.876 33.616C150.364 33.616 149.996 33.344 149.772 32.8C149.644 32.496 149.508 32.2 149.364 31.912C149.22 31.624 149.06 31.344 148.884 31.072C148.228 31.2 147.556 31.328 146.868 31.456C146.18 31.568 145.476 31.68 144.756 31.792V33.112C144.756 33.352 144.756 33.64 144.756 33.976C144.756 34.296 144.756 34.632 144.756 34.984C144.772 35.32 144.78 35.656 144.78 35.992C144.796 36.328 144.804 36.616 144.804 36.856C144.804 37.464 144.508 37.976 143.916 38.392C143.34 38.808 142.364 39.08 140.988 39.208C140.892 38.52 140.692 37.984 140.388 37.6C140.084 37.232 139.548 36.928 138.78 36.688L138.828 36.544L140.964 36.616C141.508 36.648 141.78 36.384 141.78 35.824V32.2C140.836 32.328 139.884 32.44 138.924 32.536C137.98 32.632 137.004 32.72 135.996 32.8L135.492 33.616L134.316 30.448C134.876 30.448 135.404 30.416 135.9 30.352C136.396 30.288 136.852 30.192 137.268 30.064C138.196 29.76 139.1 29.384 139.98 28.936C140.876 28.472 141.716 27.976 142.5 27.448C141.684 27.64 140.876 27.816 140.076 27.976C139.292 28.12 138.476 28.256 137.628 28.384L137.028 29.224L135.996 26.44C136.492 26.408 136.884 26.344 137.172 26.248C137.476 26.136 137.756 25.968 138.012 25.744C138.332 25.456 138.596 25.176 138.804 24.904C139.044 24.632 139.252 24.336 139.428 24.016H135.66C135.74 24.464 135.78 24.864 135.78 25.216C135.78 25.632 135.716 26.008 135.588 26.344C135.46 26.664 135.292 26.944 135.084 27.184C134.892 27.408 134.66 27.584 134.388 27.712C134.132 27.824 133.868 27.88 133.596 27.88C133.18 27.88 132.836 27.712 132.564 27.376C132.308 27.04 132.18 26.632 132.18 26.152C132.18 25.912 132.22 25.696 132.3 25.504C132.38 25.312 132.524 25.152 132.732 25.024C133.276 24.672 133.716 24.28 134.052 23.848C134.404 23.4 134.708 22.8 134.964 22.048H135.06C135.156 22.32 135.244 22.568 135.324 22.792C135.404 23.016 135.476 23.232 135.54 23.44H141.54V21.184V20.968H132.948V20.392H141.516C141.5 19.928 141.484 19.432 141.468 18.904C141.468 18.36 141.46 17.928 141.444 17.608L145.524 18.208L144.564 19.048V20.392H149.676L151.092 18.544L153.66 20.296C153.788 20.392 153.852 20.496 153.852 20.608C153.852 20.704 153.772 20.792 153.612 20.872C153.468 20.936 153.292 20.968 153.084 20.968H144.564V23.44H149.868L151.284 21.88L154.5 24.568L153.18 24.904C152.044 25.48 150.828 25.92 149.532 26.224L149.436 26.128L150.3 24.016H143.844C143.076 24.416 142.212 24.84 141.252 25.288C140.292 25.72 139.348 26.12 138.42 26.488L143.964 26.368ZM146.052 33.256C148.372 33.672 150.044 34.16 151.068 34.72C152.108 35.264 152.628 35.88 152.628 36.568C152.628 37.128 152.46 37.584 152.124 37.936C151.788 38.304 151.404 38.488 150.972 38.488C150.508 38.488 150.1 38.2 149.748 37.624C149.236 36.808 148.676 36.048 148.068 35.344C147.46 34.624 146.772 33.96 146.004 33.352L146.052 33.256ZM132.444 38.848C132.956 38.384 133.452 37.904 133.932 37.408C134.412 36.928 134.852 36.44 135.252 35.944C135.668 35.448 136.036 34.96 136.356 34.48C136.676 34 136.94 33.544 137.148 33.112L140.652 34.768L139.524 35.248C138.676 35.968 137.66 36.656 136.476 37.312C135.292 37.968 133.972 38.52 132.516 38.968L132.444 38.848Z" fill="white"/>
<path d="M192.026 29.5H173.764V26.5H192.026L183.626 18.1L185.764 16L197.764 28L185.764 40L183.626 37.9L192.026 29.5Z" fill="white"/>
<defs>
<filter id="filter0_f_227_2298" x="-86.8363" y="-84.6" width="188.087" height="189.2" filterUnits="userSpaceOnUse" color-interpolation-filters="sRGB">
<feFlood flood-opacity="0" result="BackgroundImageFix"/>
<feBlend mode="normal" in="SourceGraphic" in2="BackgroundImageFix" result="shape"/>
<feGaussianBlur stdDeviation="28.8" result="effect1_foregroundBlur_227_2298"/>
</filter>
<filter id="filter1_f_227_2298" x="106.964" y="-78.8" width="156.6" height="157.6" filterUnits="userSpaceOnUse" color-interpolation-filters="sRGB">
<feFlood flood-opacity="0" result="BackgroundImageFix"/>
<feBlend mode="normal" in="SourceGraphic" in2="BackgroundImageFix" result="shape"/>
<feGaussianBlur stdDeviation="26.4" result="effect1_foregroundBlur_227_2298"/>
</filter>
<linearGradient id="paint0_linear_227_2298" x1="31.7637" y1="-10.5" x2="224.764" y2="56" gradientUnits="userSpaceOnUse">
<stop stop-color="#803096" stop-opacity="0.8"/>
<stop offset="0.32605" stop-color="white" stop-opacity="0.1"/>
<stop offset="0.80526" stop-color="#4630BF"/>
<stop offset="1" stop-color="white" stop-opacity="0.1"/>
</linearGradient>
</defs>
</svg>
